<svg width="1590" height="140" viewBox="0 0 1590 140" fill="none" xmlns="http://www.w3.org/2000/svg">
<rect width="1590" height="140" rx="30" fill="white"/>
<rect width="1590" height="140" rx="30" fill="black" fill-opacity="0.05"/>
<g opacity="0.89">
<path d="M102.016 48.072V53.208H119.728V48.072H102.016ZM107.2 58.296V62.952H115.648V58.296H107.2ZM121.12 78.552V82.392H128.32V78.552H121.12ZM136.144 78.552V82.392H143.44V78.552H136.144ZM107.2 68.04V72.744H115.648V68.04H107.2ZM104.176 50.808V80.904H108.928V50.808H104.176ZM112.624 50.76V91.32H117.424V50.76H112.624ZM133.312 69.96V91.32H137.968V69.96H133.312ZM119.584 71.448V84.168H123.76V71.448H119.584ZM140.704 71.448V84.072H145.024V71.448H140.704ZM101.152 79.704L102.112 85.032C106.048 84.312 110.8 83.352 115.36 82.44L114.928 77.496C109.888 78.36 104.752 79.224 101.152 79.704ZM126.4 70.008V78.456C126.4 82.2 125.68 85.56 120.4 87.816C121.36 88.584 122.704 90.456 123.232 91.56C130 88.68 131.008 83.928 131.008 78.552V70.008H126.4ZM118.336 65.448L118.864 69.384C122.272 69.096 126.352 68.664 130.48 68.28L130.432 64.584C125.872 64.92 121.504 65.256 118.336 65.448ZM118.912 55.704C121.12 57.528 123.616 60.216 124.672 62.088L127.12 58.392C126.064 56.568 123.472 54.12 121.312 52.344L118.912 55.704ZM127.504 62.328C128.608 64.632 129.472 67.656 129.568 69.576L133.12 68.424C132.976 66.504 132.016 63.576 130.864 61.368L127.504 62.328ZM124.672 46.248C123.904 48.888 122.416 52.728 121.168 55.176L124.192 56.376C125.68 54.216 127.6 50.664 129.328 47.64L124.672 46.248ZM128.224 52.44C126.4 56.664 123.232 62.52 120.496 66.168L123.424 67.416C126.208 64.056 129.712 58.488 132.4 53.928L128.224 52.44ZM132.256 65.304L132.976 69.288C136.336 68.952 140.368 68.52 144.448 68.04L144.352 64.44C139.84 64.776 135.472 65.112 132.256 65.304ZM131.824 55.608C134.128 57.384 136.672 60.072 137.728 61.992L140.176 58.152C139.072 56.28 136.432 53.832 134.08 52.104L131.824 55.608ZM140.848 62.376C142.096 64.968 143.104 68.28 143.296 70.392L146.944 69.144C146.752 67.032 145.6 63.768 144.256 61.272L140.848 62.376ZM137.728 46.248C136.912 48.936 135.376 52.728 134.032 55.176L137.296 56.472C138.832 54.264 140.752 50.76 142.48 47.688L137.728 46.248ZM141.376 52.296C139.6 56.472 136.48 62.376 133.792 65.976L136.816 67.368C139.648 63.96 143.104 58.392 145.84 53.88L141.376 52.296ZM170.176 72.84V91.32H175.552V77.784H186.016V91.176H191.632V72.84H170.176ZM173.296 84.408V89.352H187.792V84.408H173.296ZM175.744 46.248C173.968 50.76 170.56 55.944 165.232 59.832C166.432 60.552 168.256 62.424 169.072 63.576C174.976 58.872 178.768 53.064 181.312 47.208L175.744 46.248ZM176.416 50.52L173.968 55.416H188.368V50.52H176.416ZM186.88 50.52V51.48C183.664 60.456 175.312 66.984 165.904 70.152C167.008 71.112 168.736 73.368 169.36 74.712C179.104 70.968 188.128 63.384 192.4 52.248L188.896 50.28L187.984 50.52H186.88ZM175.744 54.984L170.992 56.904C175.744 64.296 183.376 70.632 191.68 73.896C192.544 72.504 194.128 70.344 195.376 69.288C187.36 66.648 179.584 61.08 175.744 54.984ZM156.64 46.296C155.536 49.656 153.472 54.264 151.744 57.096L155.584 58.776C157.456 56.088 159.664 51.816 161.632 48.168L156.64 46.296ZM162.16 51.96C159.664 57.144 155.248 64.2 151.696 68.568L155.008 70.44C158.656 66.264 163.36 59.592 166.816 54.072L162.16 51.96ZM149.248 57.672C151.696 59.976 154.624 63.336 155.776 65.64L158.752 61.176C157.504 58.968 154.528 55.944 151.984 53.736L149.248 57.672ZM160.72 63.432C162.496 66.744 164.176 71.064 164.656 73.848L168.736 72.024C168.208 69.288 166.384 65.064 164.512 61.848L160.72 63.432ZM149.2 67.416L149.68 72.456C154.336 72.12 160.48 71.736 166.384 71.304L166.432 66.744C160.096 67.032 153.616 67.272 149.2 67.416ZM161.776 75.384C162.832 78.216 164.08 81.912 164.56 84.312L168.784 82.824C168.256 80.424 167.008 76.824 165.808 74.088L161.776 75.384ZM151.264 74.472C150.88 78.552 150.112 82.824 148.72 85.656C149.92 86.136 152.08 87.144 153.088 87.768C154.48 84.696 155.536 79.896 156.016 75.288L151.264 74.472ZM156.64 69.96V91.368H161.68V69.96H156.64ZM198.208 53.928V59.448H241.744V53.928H198.208ZM214.24 65.688V71.16H232.624V65.688H214.24ZM230.512 65.688L230.464 66.6C229.792 78.456 228.88 83.928 227.44 85.176C226.816 85.704 226.144 85.752 225.088 85.752C223.696 85.752 220.288 85.752 216.976 85.464C218.08 87.048 218.944 89.448 219.04 91.128C222.256 91.224 225.472 91.272 227.296 91.128C229.504 90.888 231.04 90.408 232.48 88.872C234.4 86.76 235.408 81.336 236.272 68.184C236.416 67.416 236.464 65.688 236.464 65.688H230.512ZM212.08 57.192C211.6 68.136 211.312 80.328 197.344 86.808C198.88 88.008 200.608 90.12 201.472 91.656C216.544 84.072 217.84 70.056 218.56 57.192H212.08ZM216.736 46.008V56.088H222.688V46.008H216.736ZM278.224 49.416C280.432 51 283.12 53.4 284.368 55.032L288.4 51.576C287.056 49.992 284.224 47.736 282.064 46.248L278.224 49.416ZM246.448 54.408V60.024H289.648V54.408H246.448ZM248.224 65.544V71.112H269.008V65.544H248.224ZM255.52 68.712V84.984H261.28V68.712H255.52ZM246.4 84.168L248.032 89.976C254.272 88.68 262.768 86.904 270.688 85.176L270.256 80.04C261.616 81.672 252.208 83.304 246.4 84.168ZM270.016 46.44C270.064 68.664 273.088 91.368 283.504 91.368C288.064 91.368 290.032 89.112 290.896 79.944C289.264 79.368 287.152 77.976 285.856 76.632C285.568 82.68 285.04 85.32 283.984 85.32C279.424 85.32 275.776 66.168 276.208 46.44H270.016Z" fill="#2D2D2D"/>
</g>
</svg>
