<svg width="1590" height="140" viewBox="0 0 1590 140" fill="none" xmlns="http://www.w3.org/2000/svg">
<rect width="1590" height="140" rx="30" fill="white"/>
<rect width="1590" height="140" rx="30" fill="black" fill-opacity="0.05"/>
<g opacity="0.89">
<path d="M128.272 81.048V86.424H141.424V81.048H128.272ZM125.68 50.376V89.928H131.248V55.8H138.256V89.256H144.112V50.376H125.68ZM110.704 54.888V64.056C110.704 71.112 109.84 80.52 101.056 86.856C102.208 87.672 104.416 89.976 105.136 91.176C114.784 84.168 116.512 72.312 116.512 64.152V54.888H110.704ZM106.768 52.344V57.672H123.232V52.344H106.768ZM101.776 65.256V70.728H124.432V65.256H101.776ZM115.072 72.024L111.568 75.288C114.016 78.12 118.72 84.072 120.976 87.624L124.864 82.776C123.376 81 117.04 73.752 115.072 72.024ZM106.24 46.248C105.28 51.768 103.456 57.288 100.864 60.744C102.112 61.512 104.464 63.144 105.472 64.056C108.208 60.024 110.512 53.688 111.76 47.352L106.24 46.248ZM166.288 84.216V89.448H187.792V84.216H166.288ZM163.888 50.952V56.04H180.88V50.952H163.888ZM165.136 45.96C162.352 51.288 157.024 57.144 149.104 61.32C150.4 62.328 152.32 64.44 153.136 65.88C161.776 60.696 167.536 54.264 171.616 47.256L165.136 45.96ZM179.056 50.952V51.912C174.64 64.008 162.256 73.32 149.008 77.16C150.208 78.36 151.648 80.712 152.368 82.296C166.672 77.496 179.488 67.704 185.104 52.776L181.12 50.664L180.16 50.952H179.056ZM157.6 61.512C160.912 64.008 165.184 67.704 167.008 70.2L171.664 66.024C169.552 63.528 165.184 60.12 161.872 57.768L157.6 61.512ZM185.104 69.576V91.368H191.104V69.576H185.104ZM168.736 69.576H167.344L162.976 73.848V91.272H168.736V74.808H187.984V69.576H168.736ZM198.016 76.584V81.144H241.984V76.584H198.016ZM199.36 49.32V53.688H240.256V49.32H199.36ZM225.616 73.8V85.608C225.616 86.184 225.376 86.376 224.608 86.424C223.84 86.424 221.056 86.424 218.752 86.328C219.472 87.72 220.192 89.832 220.384 91.32C224.08 91.32 226.768 91.272 228.736 90.552C230.656 89.784 231.184 88.392 231.184 85.8V73.8H225.616ZM217.072 46.248V72.12H222.736V46.248H217.072ZM205.696 82.776C208.336 84.6 211.504 87.336 212.944 89.208L217.168 85.56C215.632 83.688 212.272 81.144 209.632 79.464L205.696 82.776ZM208.576 63.96H231.616V65.784H208.576V63.96ZM208.576 58.872H231.616V60.696H208.576V58.872ZM203.152 55.416V69.288H237.28V55.416H203.152ZM226.768 70.056C230.272 71.544 234.496 74.184 236.752 76.104L240.208 73.176C237.904 71.4 233.68 68.904 230.128 67.464L226.768 70.056ZM200.08 71.064L200.272 75.192C209.488 75.096 223.216 74.856 236.08 74.472L236.32 70.92C223.072 71.064 208.912 71.112 200.08 71.064ZM265.072 46.296V52.68H270.832V46.296H265.072ZM264.928 72.456V91.272H270.736V72.456H264.928ZM247.408 49.464V56.856H252.736V54.216H283.12V56.856H288.688V49.464H247.408ZM247.072 57.768V62.28H289.024V57.768H247.072ZM246.16 75.768V80.52H289.888V75.768H246.16ZM262.768 53.928C259.888 58.056 255.808 63.384 252.784 66.744L258.256 68.232C261.04 64.92 265.024 59.832 268.144 55.512L262.768 53.928ZM256.672 66.984C265.552 68.808 277.552 72.216 283.552 74.76L286.96 70.728C280.384 68.184 268.288 65.064 259.84 63.576L256.672 66.984ZM263.488 78.504C259.696 82.056 252.16 84.936 245.008 86.184C246.16 87.288 247.792 89.496 248.56 90.84C255.904 89.064 263.344 85.224 267.76 80.376L263.488 78.504ZM272.128 78.36L268 80.184C272.56 85.128 280.192 89.016 287.536 90.792C288.304 89.352 289.936 87.144 291.184 85.944C283.888 84.744 276.16 81.864 272.128 78.36ZM275.248 60.456C272.896 66.264 268.192 69.144 248.272 70.152C249.04 71.304 249.952 73.272 250.144 74.616C271.648 73.128 278.224 69.144 281.296 60.456H275.248Z" fill="#2D2D2D"/>
</g>
</svg>
