<svg width="1590" height="140" viewBox="0 0 1590 140" fill="none" xmlns="http://www.w3.org/2000/svg">
<rect width="1590" height="140" rx="30" fill="white"/>
<rect width="1590" height="140" rx="30" fill="black" fill-opacity="0.05"/>
<g opacity="0.89">
<path d="M126.182 63.375C125.943 62.5455 125.608 61.8125 125.176 61.1761C124.744 60.5284 124.216 59.983 123.591 59.5398C122.977 59.0852 122.273 58.7386 121.477 58.5C120.693 58.2614 119.824 58.142 118.869 58.142C117.085 58.142 115.517 58.5852 114.165 59.4716C112.824 60.358 111.778 61.6477 111.028 63.3409C110.278 65.0227 109.903 67.0795 109.903 69.5114C109.903 71.9432 110.273 74.0114 111.011 75.7159C111.75 77.4205 112.795 78.7216 114.148 79.6193C115.5 80.5057 117.097 80.9489 118.938 80.9489C120.608 80.9489 122.034 80.6534 123.216 80.0625C124.409 79.4602 125.318 78.6136 125.943 77.5227C126.58 76.4318 126.898 75.142 126.898 73.6534L128.398 73.875H119.398V68.3182H134.006V72.7159C134.006 75.7841 133.358 78.4205 132.062 80.625C130.767 82.8182 128.983 84.5114 126.71 85.7045C124.438 86.8864 121.835 87.4773 118.903 87.4773C115.631 87.4773 112.756 86.7557 110.278 85.3125C107.801 83.858 105.869 81.7955 104.483 79.125C103.108 76.4432 102.42 73.2614 102.42 69.5795C102.42 66.75 102.83 64.2273 103.648 62.0114C104.477 59.7841 105.636 57.8977 107.125 56.3523C108.614 54.8068 110.347 53.6307 112.324 52.8239C114.301 52.017 116.443 51.6136 118.75 51.6136C120.727 51.6136 122.568 51.9034 124.273 52.483C125.977 53.0511 127.489 53.858 128.807 54.9034C130.136 55.9489 131.222 57.1932 132.062 58.6364C132.903 60.0682 133.443 61.6477 133.682 63.375H126.182ZM141.054 87V60.8182H148.315V87H141.054ZM144.702 57.4432C143.622 57.4432 142.696 57.0852 141.923 56.3693C141.162 55.642 140.781 54.7727 140.781 53.7614C140.781 52.7614 141.162 51.9034 141.923 51.1875C142.696 50.4602 143.622 50.0966 144.702 50.0966C145.781 50.0966 146.702 50.4602 147.463 51.1875C148.236 51.9034 148.622 52.7614 148.622 53.7614C148.622 54.7727 148.236 55.642 147.463 56.3693C146.702 57.0852 145.781 57.4432 144.702 57.4432ZM168.058 60.8182V66.2727H152.291V60.8182H168.058ZM155.871 54.5455H163.132V78.9545C163.132 79.625 163.234 80.1477 163.439 80.5227C163.643 80.8864 163.928 81.142 164.291 81.2898C164.666 81.4375 165.098 81.5114 165.587 81.5114C165.928 81.5114 166.268 81.483 166.609 81.4261C166.95 81.358 167.212 81.3068 167.393 81.2727L168.536 86.6761C168.172 86.7898 167.661 86.9205 167.001 87.0682C166.342 87.2273 165.541 87.3239 164.598 87.358C162.848 87.4261 161.314 87.1932 159.996 86.6591C158.689 86.125 157.672 85.2955 156.945 84.1705C156.217 83.0455 155.859 81.625 155.871 79.9091V54.5455ZM173.487 87V52.0909H180.868V66.4943H195.851V52.0909H203.214V87H195.851V72.5795H180.868V87H173.487ZM225.953 75.8523V60.8182H233.214V87H226.243V82.2443H225.97C225.379 83.7784 224.396 85.0114 223.021 85.9432C221.658 86.875 219.993 87.3409 218.027 87.3409C216.277 87.3409 214.737 86.9432 213.408 86.1477C212.078 85.3523 211.038 84.2216 210.288 82.7557C209.55 81.2898 209.175 79.5341 209.163 77.4886V60.8182H216.425V76.1932C216.436 77.7386 216.851 78.9602 217.669 79.858C218.487 80.7557 219.584 81.2045 220.959 81.2045C221.834 81.2045 222.652 81.0057 223.413 80.608C224.175 80.1989 224.788 79.5966 225.254 78.8011C225.732 78.0057 225.964 77.0227 225.953 75.8523ZM239.159 87V52.0909H246.42V65.2159H246.642C246.96 64.5114 247.42 63.7955 248.023 63.0682C248.636 62.3295 249.432 61.7159 250.409 61.2273C251.398 60.7273 252.625 60.4773 254.091 60.4773C256 60.4773 257.761 60.9773 259.375 61.9773C260.989 62.9659 262.278 64.4602 263.244 66.4602C264.21 68.4489 264.693 70.9432 264.693 73.9432C264.693 76.8636 264.222 79.3295 263.278 81.3409C262.347 83.3409 261.074 84.858 259.46 85.892C257.858 86.9148 256.063 87.4261 254.074 87.4261C252.665 87.4261 251.466 87.1932 250.477 86.7273C249.5 86.2614 248.699 85.6761 248.074 84.9716C247.449 84.2557 246.972 83.5341 246.642 82.8068H246.318V87H239.159ZM246.267 73.9091C246.267 75.4659 246.483 76.8239 246.915 77.983C247.347 79.142 247.972 80.0455 248.79 80.6932C249.608 81.3295 250.602 81.6477 251.773 81.6477C252.955 81.6477 253.955 81.3239 254.773 80.6761C255.591 80.017 256.21 79.108 256.631 77.9489C257.063 76.7784 257.278 75.4318 257.278 73.9091C257.278 72.3977 257.068 71.0682 256.648 69.9205C256.227 68.7727 255.608 67.875 254.79 67.2273C253.972 66.5795 252.966 66.2557 251.773 66.2557C250.591 66.2557 249.591 66.5682 248.773 67.1932C247.966 67.8182 247.347 68.7045 246.915 69.8523C246.483 71 246.267 72.3523 246.267 73.9091ZM306.982 46.248V54.168H312.838V46.248H306.982ZM304.15 55.176C303.43 58.296 301.894 62.568 300.598 65.304L305.35 66.84C306.79 64.344 308.566 60.408 310.15 56.808L304.15 55.176ZM312.886 59.832C315.622 63.336 318.598 68.088 319.798 71.112L324.598 68.472C323.254 65.4 320.038 60.84 317.302 57.528L312.886 59.832ZM297.142 51.864V57H323.59V51.864H297.142ZM297.43 64.056L297.91 69.24C303.67 68.808 311.638 68.184 319.126 67.512V62.568C311.302 63.192 302.95 63.768 297.43 64.056ZM311.35 70.584V84.408C311.35 89.352 312.262 91.032 316.486 91.032C317.302 91.032 318.886 91.032 319.702 91.032C323.158 91.032 324.454 89.112 324.934 82.152C323.494 81.768 321.19 80.904 320.134 79.992C319.99 85.176 319.846 85.944 319.126 85.944C318.79 85.944 317.782 85.944 317.494 85.944C316.822 85.944 316.726 85.8 316.726 84.408V70.584H311.35ZM286.39 46.296C285.286 49.656 283.222 54.264 281.494 57.096L285.334 58.776C287.206 56.088 289.414 51.816 291.382 48.168L286.39 46.296ZM291.91 51.96C289.414 57.144 284.998 64.2 281.446 68.568L284.758 70.44C288.406 66.264 293.11 59.592 296.566 54.072L291.91 51.96ZM278.998 57.672C281.446 59.976 284.374 63.336 285.526 65.64L288.502 61.176C287.254 58.968 284.278 55.944 281.734 53.736L278.998 57.672ZM290.47 63.432C292.294 66.744 293.926 71.112 294.454 73.896L298.534 72.072C297.958 69.288 296.134 65.064 294.262 61.848L290.47 63.432ZM278.95 67.416L279.43 72.456C284.086 72.12 290.23 71.736 296.134 71.304L296.182 66.744C289.846 67.032 283.366 67.272 278.95 67.416ZM291.526 75.384C292.582 78.216 293.83 81.912 294.31 84.312L298.534 82.824C298.006 80.424 296.758 76.824 295.558 74.088L291.526 75.384ZM281.014 74.472C280.63 78.552 279.862 82.824 278.47 85.656C279.67 86.136 281.83 87.144 282.838 87.768C284.23 84.696 285.286 79.896 285.766 75.288L281.014 74.472ZM286.39 69.96V91.368H291.43V69.96H286.39ZM302.47 70.584C302.182 78.936 301.558 84.12 294.262 87.144C295.462 88.152 296.902 90.12 297.526 91.464C306.262 87.624 307.558 80.808 307.942 70.584H302.47ZM346.678 62.376V68.088H372.694V62.376H346.678ZM356.806 46.44V91.32H362.662V46.44H356.806ZM329.494 60.984V65.304H344.998V60.984H329.494ZM329.782 47.736V52.104H345.094V47.736H329.782ZM329.494 67.512V71.88H344.998V67.512H329.494ZM327.142 54.216V58.776H346.918V54.216H327.142ZM332.134 74.184V78.744H339.814V84.216H332.134V88.776H344.854V74.184H332.134ZM329.35 74.184V90.696H334.342V74.184H329.35Z" fill="#2D2D2D"/>
</g>
</svg>
