<svg width="775" height="170" viewBox="0 0 775 170" fill="none" xmlns="http://www.w3.org/2000/svg">
<rect width="775" height="170" rx="30" fill="white"/>
<rect width="775" height="170" rx="30" fill="#18C5F8" fill-opacity="0.1"/>
<path opacity="0.9" d="M69.9929 59.152H65.2116C65.0753 58.3679 64.8239 57.6733 64.4574 57.0682C64.0909 56.4545 63.6349 55.9347 63.0895 55.5085C62.544 55.0824 61.9219 54.7628 61.223 54.5497C60.5327 54.3281 59.7869 54.2173 58.9858 54.2173C57.5625 54.2173 56.3011 54.5753 55.2017 55.2912C54.1023 55.9986 53.2415 57.0384 52.6193 58.4105C51.9972 59.7741 51.6861 61.4403 51.6861 63.4091C51.6861 65.4119 51.9972 67.0994 52.6193 68.4716C53.25 69.8352 54.1108 70.8665 55.2017 71.5653C56.3011 72.2557 57.5582 72.6009 58.973 72.6009C59.7571 72.6009 60.4901 72.4986 61.1719 72.294C61.8622 72.081 62.4801 71.7699 63.0256 71.3608C63.5795 70.9517 64.044 70.4489 64.419 69.8523C64.8026 69.2557 65.0668 68.5739 65.2116 67.8068L69.9929 67.8324C69.8139 69.0767 69.4261 70.2443 68.8295 71.3352C68.2415 72.4261 67.4702 73.3892 66.5156 74.2244C65.5611 75.0511 64.4446 75.6989 63.1662 76.1676C61.8878 76.6278 60.4688 76.858 58.9091 76.858C56.608 76.858 54.554 76.3253 52.7472 75.2599C50.9403 74.1946 49.517 72.6562 48.4773 70.6449C47.4375 68.6335 46.9176 66.2216 46.9176 63.4091C46.9176 60.5881 47.4418 58.1761 48.4901 56.1733C49.5384 54.1619 50.9659 52.6236 52.7727 51.5582C54.5795 50.4929 56.625 49.9602 58.9091 49.9602C60.3665 49.9602 61.7216 50.1648 62.9744 50.5739C64.2273 50.983 65.3438 51.5838 66.3239 52.3764C67.304 53.1605 68.1094 54.1236 68.7401 55.2656C69.3793 56.3991 69.7969 57.6946 69.9929 59.152ZM88.565 57.5156C88.4457 56.3991 87.9428 55.5298 87.0565 54.9077C86.1786 54.2855 85.0366 53.9744 83.6303 53.9744C82.6417 53.9744 81.7937 54.1236 81.0863 54.4219C80.3789 54.7202 79.8377 55.125 79.4627 55.6364C79.0877 56.1477 78.896 56.7315 78.8874 57.3878C78.8874 57.9332 79.011 58.4062 79.2582 58.8068C79.5138 59.2074 79.859 59.5483 80.2937 59.8295C80.7283 60.1023 81.2099 60.3324 81.7383 60.5199C82.2667 60.7074 82.7994 60.8651 83.3363 60.9929L85.7908 61.6065C86.7795 61.8366 87.7298 62.1477 88.6417 62.5398C89.5621 62.9318 90.3846 63.4261 91.109 64.0227C91.842 64.6193 92.4215 65.3395 92.8477 66.1832C93.2738 67.027 93.4869 68.0156 93.4869 69.1491C93.4869 70.6832 93.0948 72.0341 92.3107 73.2017C91.5266 74.3608 90.3931 75.2685 88.9102 75.9247C87.4357 76.5724 85.6502 76.8963 83.5536 76.8963C81.5167 76.8963 79.7482 76.581 78.2482 75.9503C76.7567 75.3196 75.5891 74.3991 74.7454 73.1889C73.9102 71.9787 73.4585 70.5043 73.3903 68.7656H78.0565C78.1246 69.6776 78.4059 70.4361 78.9002 71.0412C79.3945 71.6463 80.038 72.098 80.8306 72.3963C81.6317 72.6946 82.5266 72.8438 83.5153 72.8438C84.5465 72.8438 85.4499 72.6903 86.2255 72.3835C87.0096 72.0682 87.6232 71.6335 88.0664 71.0795C88.5096 70.517 88.7354 69.8608 88.744 69.1108C88.7354 68.429 88.5352 67.8665 88.1431 67.4233C87.7511 66.9716 87.2013 66.5966 86.494 66.2983C85.7951 65.9915 84.9769 65.7187 84.0394 65.4801L81.0607 64.7131C78.9045 64.1591 77.1999 63.3196 75.9471 62.1946C74.7028 61.0611 74.0806 59.5568 74.0806 57.6818C74.0806 56.1392 74.4982 54.7884 75.3335 53.6293C76.1772 52.4702 77.3235 51.571 78.7724 50.9318C80.2212 50.2841 81.8619 49.9602 83.6942 49.9602C85.5522 49.9602 87.18 50.2841 88.5778 50.9318C89.984 51.571 91.0877 52.4616 91.8889 53.6037C92.69 54.7372 93.1033 56.0412 93.1289 57.5156H88.565ZM120.126 59.152H115.344C115.208 58.3679 114.957 57.6733 114.59 57.0682C114.224 56.4545 113.768 55.9347 113.222 55.5085C112.677 55.0824 112.055 54.7628 111.356 54.5497C110.665 54.3281 109.92 54.2173 109.119 54.2173C107.695 54.2173 106.434 54.5753 105.335 55.2912C104.235 55.9986 103.374 57.0384 102.752 58.4105C102.13 59.7741 101.819 61.4403 101.819 63.4091C101.819 65.4119 102.13 67.0994 102.752 68.4716C103.383 69.8352 104.244 70.8665 105.335 71.5653C106.434 72.2557 107.691 72.6009 109.106 72.6009C109.89 72.6009 110.623 72.4986 111.305 72.294C111.995 72.081 112.613 71.7699 113.158 71.3608C113.712 70.9517 114.177 70.4489 114.552 69.8523C114.935 69.2557 115.2 68.5739 115.344 67.8068L120.126 67.8324C119.947 69.0767 119.559 70.2443 118.962 71.3352C118.374 72.4261 117.603 73.3892 116.648 74.2244C115.694 75.0511 114.577 75.6989 113.299 76.1676C112.021 76.6278 110.602 76.858 109.042 76.858C106.741 76.858 104.687 76.3253 102.88 75.2599C101.073 74.1946 99.6499 72.6562 98.6101 70.6449C97.5703 68.6335 97.0504 66.2216 97.0504 63.4091C97.0504 60.5881 97.5746 58.1761 98.6229 56.1733C99.6712 54.1619 101.099 52.6236 102.906 51.5582C104.712 50.4929 106.758 49.9602 109.042 49.9602C110.499 49.9602 111.854 50.1648 113.107 50.5739C114.36 50.983 115.477 51.5838 116.457 52.3764C117.437 53.1605 118.242 54.1236 118.873 55.2656C119.512 56.3991 119.93 57.6946 120.126 59.152ZM128.892 64.9943V76.5H124.265V50.3182H128.79V60.2003H129.02C129.48 59.0923 130.192 58.2187 131.155 57.5795C132.127 56.9318 133.363 56.608 134.863 56.608C136.226 56.608 137.415 56.8935 138.429 57.4645C139.444 58.0355 140.228 58.8707 140.782 59.9702C141.344 61.0696 141.625 62.4119 141.625 63.9972V76.5H136.998V64.7131C136.998 63.392 136.657 62.3651 135.975 61.6321C135.301 60.8906 134.355 60.5199 133.137 60.5199C132.319 60.5199 131.586 60.6989 130.938 61.0568C130.299 61.4062 129.796 61.9134 129.429 62.5781C129.071 63.2429 128.892 64.0483 128.892 64.9943ZM155.036 76.8835C153.067 76.8835 151.367 76.4744 149.935 75.6562C148.512 74.8295 147.417 73.6619 146.65 72.1534C145.882 70.6364 145.499 68.8509 145.499 66.7969C145.499 64.777 145.882 63.0043 146.65 61.4787C147.425 59.9446 148.507 58.7514 149.897 57.8991C151.286 57.0384 152.918 56.608 154.793 56.608C156.003 56.608 157.145 56.804 158.219 57.196C159.301 57.5795 160.256 58.1761 161.083 58.9858C161.918 59.7955 162.574 60.8267 163.051 62.0795C163.529 63.3239 163.767 64.8068 163.767 66.5284V67.9474H147.672V64.8281H159.331C159.323 63.9418 159.131 63.1534 158.756 62.4631C158.381 61.7642 157.857 61.2145 157.184 60.8139C156.519 60.4134 155.743 60.2131 154.857 60.2131C153.911 60.2131 153.08 60.4432 152.364 60.9034C151.648 61.3551 151.09 61.9517 150.689 62.6932C150.297 63.4261 150.097 64.2315 150.088 65.1094V67.8324C150.088 68.9744 150.297 69.9545 150.715 70.7727C151.132 71.5824 151.716 72.2045 152.466 72.6392C153.216 73.0653 154.094 73.2784 155.1 73.2784C155.773 73.2784 156.382 73.1847 156.928 72.9972C157.473 72.8011 157.946 72.5156 158.347 72.1406C158.748 71.7656 159.05 71.3011 159.255 70.7472L163.576 71.233C163.303 72.375 162.783 73.3722 162.016 74.2244C161.257 75.0682 160.286 75.7244 159.101 76.1932C157.917 76.6534 156.561 76.8835 155.036 76.8835ZM176.248 76.8835C174.288 76.8835 172.604 76.4531 171.198 75.5923C169.8 74.7315 168.722 73.5426 167.964 72.0256C167.214 70.5 166.839 68.7443 166.839 66.7585C166.839 64.7642 167.222 63.0043 167.989 61.4787C168.756 59.9446 169.839 58.7514 171.237 57.8991C172.643 57.0384 174.305 56.608 176.222 56.608C177.816 56.608 179.227 56.902 180.454 57.4901C181.69 58.0696 182.674 58.892 183.407 59.9574C184.14 61.0142 184.558 62.25 184.66 63.6648H180.237C180.058 62.7187 179.631 61.9304 178.958 61.2997C178.293 60.6605 177.403 60.3409 176.286 60.3409C175.34 60.3409 174.509 60.5966 173.793 61.108C173.077 61.6108 172.519 62.3352 172.119 63.2812C171.727 64.2273 171.531 65.3608 171.531 66.6818C171.531 68.0199 171.727 69.1705 172.119 70.1335C172.511 71.0881 173.06 71.8253 173.768 72.3452C174.484 72.8565 175.323 73.1122 176.286 73.1122C176.968 73.1122 177.577 72.9844 178.114 72.7287C178.66 72.4645 179.116 72.0852 179.482 71.5909C179.849 71.0966 180.1 70.4957 180.237 69.7884H184.66C184.549 71.1776 184.14 72.4091 183.433 73.483C182.725 74.5483 181.762 75.3835 180.543 75.9886C179.325 76.5852 177.893 76.8835 176.248 76.8835ZM192.679 70.3381L192.666 64.7514H193.407L200.464 56.8636H205.872L197.191 66.5284H196.233L192.679 70.3381ZM188.46 76.5V50.3182H193.088V76.5H188.46ZM200.784 76.5L194.392 67.5639L197.511 64.304L206.319 76.5H200.784ZM208.956 76.5V56.8636H213.584V76.5H208.956ZM211.283 54.0767C210.55 54.0767 209.919 53.8338 209.391 53.348C208.862 52.8537 208.598 52.2614 208.598 51.571C208.598 50.8722 208.862 50.2798 209.391 49.794C209.919 49.2997 210.55 49.0526 211.283 49.0526C212.024 49.0526 212.655 49.2997 213.175 49.794C213.703 50.2798 213.967 50.8722 213.967 51.571C213.967 52.2614 213.703 52.8537 213.175 53.348C212.655 53.8338 212.024 54.0767 211.283 54.0767ZM222.971 64.9943V76.5H218.343V56.8636H222.766V60.2003H222.996C223.448 59.1009 224.168 58.2273 225.157 57.5795C226.154 56.9318 227.385 56.608 228.851 56.608C230.206 56.608 231.387 56.8977 232.392 57.4773C233.407 58.0568 234.191 58.8963 234.745 59.9957C235.307 61.0952 235.584 62.429 235.576 63.9972V76.5H230.948V64.7131C230.948 63.4006 230.607 62.3736 229.925 61.6321C229.252 60.8906 228.319 60.5199 227.125 60.5199C226.316 60.5199 225.596 60.6989 224.965 61.0568C224.343 61.4062 223.853 61.9134 223.495 62.5781C223.145 63.2429 222.971 64.0483 222.971 64.9943Z" fill="#119DC7"/>
<path d="M47.1136 122.5V105.045H57.5795V106.92H49.2273V112.818H56.7955V114.693H49.2273V122.5H47.1136ZM60.7862 122.5V109.409H62.7294V111.386H62.8658C63.1044 110.739 63.5362 110.213 64.1612 109.81C64.7862 109.406 65.4908 109.205 66.2749 109.205C66.4226 109.205 66.6072 109.207 66.8288 109.213C67.0504 109.219 67.218 109.227 67.3317 109.239V111.284C67.2635 111.267 67.1072 111.241 66.8629 111.207C66.6243 111.168 66.3714 111.148 66.1044 111.148C65.468 111.148 64.8999 111.281 64.3999 111.548C63.9055 111.81 63.5135 112.173 63.2237 112.639C62.9396 113.099 62.7976 113.625 62.7976 114.216V122.5H60.7862ZM74.6357 122.773C73.4538 122.773 72.4169 122.491 71.5249 121.929C70.6385 121.366 69.9453 120.58 69.4453 119.568C68.951 118.557 68.7038 117.375 68.7038 116.023C68.7038 114.659 68.951 113.469 69.4453 112.452C69.9453 111.435 70.6385 110.645 71.5249 110.082C72.4169 109.52 73.4538 109.239 74.6357 109.239C75.8175 109.239 76.8516 109.52 77.7379 110.082C78.63 110.645 79.3232 111.435 79.8175 112.452C80.3175 113.469 80.5675 114.659 80.5675 116.023C80.5675 117.375 80.3175 118.557 79.8175 119.568C79.3232 120.58 78.63 121.366 77.7379 121.929C76.8516 122.491 75.8175 122.773 74.6357 122.773ZM74.6357 120.966C75.5334 120.966 76.272 120.736 76.8516 120.276C77.4311 119.815 77.8601 119.21 78.1385 118.46C78.4169 117.71 78.5561 116.898 78.5561 116.023C78.5561 115.148 78.4169 114.332 78.1385 113.577C77.8601 112.821 77.4311 112.21 76.8516 111.744C76.272 111.278 75.5334 111.045 74.6357 111.045C73.7379 111.045 72.9993 111.278 72.4197 111.744C71.8402 112.21 71.4112 112.821 71.1328 113.577C70.8544 114.332 70.7152 115.148 70.7152 116.023C70.7152 116.898 70.8544 117.71 71.1328 118.46C71.4112 119.21 71.8402 119.815 72.4197 120.276C72.9993 120.736 73.7379 120.966 74.6357 120.966ZM85.6491 114.625V122.5H83.6378V109.409H85.581V111.455H85.7514C86.0582 110.79 86.5241 110.256 87.1491 109.852C87.7741 109.443 88.581 109.239 89.5696 109.239C90.456 109.239 91.2315 109.42 91.8963 109.784C92.5611 110.142 93.0781 110.688 93.4474 111.42C93.8168 112.148 94.0014 113.068 94.0014 114.182V122.5H91.9901V114.318C91.9901 113.29 91.723 112.489 91.1889 111.915C90.6548 111.335 89.9219 111.045 88.9901 111.045C88.348 111.045 87.7741 111.185 87.2685 111.463C86.7685 111.741 86.3736 112.148 86.0838 112.682C85.794 113.216 85.6491 113.864 85.6491 114.625ZM103.37 109.409V111.114H96.5859V109.409H103.37ZM98.5632 106.273H100.575V118.75C100.575 119.318 100.657 119.744 100.822 120.028C100.992 120.307 101.208 120.494 101.469 120.591C101.737 120.682 102.018 120.727 102.313 120.727C102.535 120.727 102.717 120.716 102.859 120.693C103.001 120.665 103.114 120.642 103.2 120.625L103.609 122.432C103.472 122.483 103.282 122.534 103.038 122.585C102.793 122.642 102.484 122.67 102.109 122.67C101.54 122.67 100.984 122.548 100.438 122.304C99.8984 122.06 99.4496 121.688 99.0916 121.188C98.7393 120.688 98.5632 120.057 98.5632 119.295V106.273ZM113.427 114.08V115.955H105.79V114.08H113.427ZM122.455 122.773C121.193 122.773 120.105 122.494 119.19 121.938C118.281 121.375 117.58 120.591 117.085 119.585C116.597 118.574 116.352 117.398 116.352 116.057C116.352 114.716 116.597 113.534 117.085 112.511C117.58 111.483 118.267 110.682 119.148 110.108C120.034 109.528 121.068 109.239 122.25 109.239C122.932 109.239 123.605 109.352 124.27 109.58C124.935 109.807 125.54 110.176 126.085 110.688C126.631 111.193 127.065 111.864 127.389 112.699C127.713 113.534 127.875 114.562 127.875 115.784V116.636H117.784V114.898H125.83C125.83 114.159 125.682 113.5 125.386 112.92C125.097 112.341 124.682 111.884 124.142 111.548C123.608 111.213 122.977 111.045 122.25 111.045C121.449 111.045 120.756 111.244 120.17 111.642C119.591 112.034 119.145 112.545 118.832 113.176C118.52 113.807 118.364 114.483 118.364 115.205V116.364C118.364 117.352 118.534 118.19 118.875 118.878C119.222 119.56 119.702 120.08 120.315 120.438C120.929 120.79 121.642 120.966 122.455 120.966C122.983 120.966 123.46 120.892 123.886 120.744C124.318 120.591 124.69 120.364 125.003 120.062C125.315 119.756 125.557 119.375 125.727 118.92L127.67 119.466C127.466 120.125 127.122 120.705 126.639 121.205C126.156 121.699 125.56 122.085 124.849 122.364C124.139 122.636 123.341 122.773 122.455 122.773ZM132.946 114.625V122.5H130.935V109.409H132.878V111.455H133.048C133.355 110.79 133.821 110.256 134.446 109.852C135.071 109.443 135.878 109.239 136.866 109.239C137.753 109.239 138.528 109.42 139.193 109.784C139.858 110.142 140.375 110.688 140.744 111.42C141.114 112.148 141.298 113.068 141.298 114.182V122.5H139.287V114.318C139.287 113.29 139.02 112.489 138.486 111.915C137.952 111.335 137.219 111.045 136.287 111.045C135.645 111.045 135.071 111.185 134.565 111.463C134.065 111.741 133.67 112.148 133.381 112.682C133.091 113.216 132.946 113.864 132.946 114.625ZM149.917 122.773C148.826 122.773 147.863 122.497 147.028 121.946C146.192 121.389 145.539 120.605 145.067 119.594C144.596 118.577 144.36 117.375 144.36 115.989C144.36 114.614 144.596 113.42 145.067 112.409C145.539 111.398 146.195 110.616 147.036 110.065C147.877 109.514 148.849 109.239 149.951 109.239C150.803 109.239 151.477 109.381 151.971 109.665C152.471 109.943 152.852 110.261 153.113 110.619C153.38 110.972 153.587 111.261 153.735 111.489H153.906V105.045H155.917V122.5H153.974V120.489H153.735C153.587 120.727 153.377 121.028 153.104 121.392C152.832 121.75 152.442 122.071 151.937 122.355C151.431 122.634 150.758 122.773 149.917 122.773ZM150.19 120.966C150.996 120.966 151.678 120.756 152.235 120.335C152.792 119.909 153.215 119.321 153.505 118.571C153.795 117.815 153.94 116.943 153.94 115.955C153.94 114.977 153.798 114.122 153.513 113.389C153.229 112.651 152.809 112.077 152.252 111.668C151.695 111.253 151.008 111.045 150.19 111.045C149.337 111.045 148.627 111.264 148.059 111.702C147.496 112.134 147.073 112.722 146.789 113.466C146.511 114.205 146.371 115.034 146.371 115.955C146.371 116.886 146.513 117.733 146.798 118.494C147.087 119.25 147.513 119.852 148.076 120.301C148.644 120.744 149.349 120.966 150.19 120.966ZM172.289 122.5H166.903V105.045H172.528C174.221 105.045 175.67 105.395 176.874 106.094C178.079 106.787 179.002 107.784 179.644 109.085C180.286 110.381 180.607 111.932 180.607 113.739C180.607 115.557 180.283 117.122 179.636 118.435C178.988 119.741 178.045 120.747 176.806 121.452C175.567 122.151 174.062 122.5 172.289 122.5ZM169.016 120.625H172.153C173.596 120.625 174.792 120.347 175.741 119.79C176.69 119.233 177.397 118.44 177.863 117.412C178.329 116.384 178.562 115.159 178.562 113.739C178.562 112.33 178.332 111.116 177.871 110.099C177.411 109.077 176.724 108.293 175.809 107.747C174.894 107.196 173.755 106.92 172.391 106.92H169.016V120.625ZM189.369 122.773C188.107 122.773 187.019 122.494 186.104 121.938C185.195 121.375 184.494 120.591 183.999 119.585C183.511 118.574 183.266 117.398 183.266 116.057C183.266 114.716 183.511 113.534 183.999 112.511C184.494 111.483 185.181 110.682 186.062 110.108C186.948 109.528 187.982 109.239 189.164 109.239C189.846 109.239 190.519 109.352 191.184 109.58C191.849 109.807 192.454 110.176 192.999 110.688C193.545 111.193 193.979 111.864 194.303 112.699C194.627 113.534 194.789 114.562 194.789 115.784V116.636H184.698V114.898H192.744C192.744 114.159 192.596 113.5 192.3 112.92C192.011 112.341 191.596 111.884 191.056 111.548C190.522 111.213 189.891 111.045 189.164 111.045C188.363 111.045 187.67 111.244 187.085 111.642C186.505 112.034 186.059 112.545 185.746 113.176C185.434 113.807 185.278 114.483 185.278 115.205V116.364C185.278 117.352 185.448 118.19 185.789 118.878C186.136 119.56 186.616 120.08 187.229 120.438C187.843 120.79 188.556 120.966 189.369 120.966C189.897 120.966 190.374 120.892 190.8 120.744C191.232 120.591 191.604 120.364 191.917 120.062C192.229 119.756 192.471 119.375 192.641 118.92L194.585 119.466C194.38 120.125 194.036 120.705 193.553 121.205C193.07 121.699 192.474 122.085 191.763 122.364C191.053 122.636 190.255 122.773 189.369 122.773ZM208.155 109.409L203.314 122.5H201.268L196.428 109.409H198.609L202.223 119.841H202.359L205.973 109.409H208.155ZM215.83 122.773C214.568 122.773 213.48 122.494 212.565 121.938C211.656 121.375 210.955 120.591 210.46 119.585C209.972 118.574 209.727 117.398 209.727 116.057C209.727 114.716 209.972 113.534 210.46 112.511C210.955 111.483 211.642 110.682 212.523 110.108C213.409 109.528 214.443 109.239 215.625 109.239C216.307 109.239 216.98 109.352 217.645 109.58C218.31 109.807 218.915 110.176 219.46 110.688C220.006 111.193 220.44 111.864 220.764 112.699C221.088 113.534 221.25 114.562 221.25 115.784V116.636H211.159V114.898H219.205C219.205 114.159 219.057 113.5 218.761 112.92C218.472 112.341 218.057 111.884 217.517 111.548C216.983 111.213 216.352 111.045 215.625 111.045C214.824 111.045 214.131 111.244 213.545 111.642C212.966 112.034 212.52 112.545 212.207 113.176C211.895 113.807 211.739 114.483 211.739 115.205V116.364C211.739 117.352 211.909 118.19 212.25 118.878C212.597 119.56 213.077 120.08 213.69 120.438C214.304 120.79 215.017 120.966 215.83 120.966C216.358 120.966 216.835 120.892 217.261 120.744C217.693 120.591 218.065 120.364 218.378 120.062C218.69 119.756 218.932 119.375 219.102 118.92L221.045 119.466C220.841 120.125 220.497 120.705 220.014 121.205C219.531 121.699 218.935 122.085 218.224 122.364C217.514 122.636 216.716 122.773 215.83 122.773ZM226.321 105.045V122.5H224.31V105.045H226.321ZM235.323 122.773C234.141 122.773 233.104 122.491 232.212 121.929C231.326 121.366 230.633 120.58 230.133 119.568C229.638 118.557 229.391 117.375 229.391 116.023C229.391 114.659 229.638 113.469 230.133 112.452C230.633 111.435 231.326 110.645 232.212 110.082C233.104 109.52 234.141 109.239 235.323 109.239C236.505 109.239 237.539 109.52 238.425 110.082C239.317 110.645 240.011 111.435 240.505 112.452C241.005 113.469 241.255 114.659 241.255 116.023C241.255 117.375 241.005 118.557 240.505 119.568C240.011 120.58 239.317 121.366 238.425 121.929C237.539 122.491 236.505 122.773 235.323 122.773ZM235.323 120.966C236.221 120.966 236.96 120.736 237.539 120.276C238.119 119.815 238.548 119.21 238.826 118.46C239.104 117.71 239.244 116.898 239.244 116.023C239.244 115.148 239.104 114.332 238.826 113.577C238.548 112.821 238.119 112.21 237.539 111.744C236.96 111.278 236.221 111.045 235.323 111.045C234.425 111.045 233.687 111.278 233.107 111.744C232.528 112.21 232.099 112.821 231.82 113.577C231.542 114.332 231.403 115.148 231.403 116.023C231.403 116.898 231.542 117.71 231.82 118.46C232.099 119.21 232.528 119.815 233.107 120.276C233.687 120.736 234.425 120.966 235.323 120.966ZM244.325 127.409V109.409H246.268V111.489H246.507C246.655 111.261 246.859 110.972 247.121 110.619C247.388 110.261 247.768 109.943 248.263 109.665C248.763 109.381 249.439 109.239 250.291 109.239C251.393 109.239 252.365 109.514 253.206 110.065C254.047 110.616 254.703 111.398 255.175 112.409C255.646 113.42 255.882 114.614 255.882 115.989C255.882 117.375 255.646 118.577 255.175 119.594C254.703 120.605 254.05 121.389 253.214 121.946C252.379 122.497 251.416 122.773 250.325 122.773C249.484 122.773 248.811 122.634 248.305 122.355C247.8 122.071 247.411 121.75 247.138 121.392C246.865 121.028 246.655 120.727 246.507 120.489H246.337V127.409H244.325ZM246.303 115.955C246.303 116.943 246.447 117.815 246.737 118.571C247.027 119.321 247.45 119.909 248.007 120.335C248.564 120.756 249.246 120.966 250.053 120.966C250.893 120.966 251.595 120.744 252.158 120.301C252.726 119.852 253.152 119.25 253.436 118.494C253.726 117.733 253.871 116.886 253.871 115.955C253.871 115.034 253.729 114.205 253.445 113.466C253.166 112.722 252.743 112.134 252.175 111.702C251.612 111.264 250.905 111.045 250.053 111.045C249.234 111.045 248.547 111.253 247.99 111.668C247.433 112.077 247.013 112.651 246.729 113.389C246.445 114.122 246.303 114.977 246.303 115.955ZM264.439 122.773C263.178 122.773 262.089 122.494 261.175 121.938C260.266 121.375 259.564 120.591 259.07 119.585C258.581 118.574 258.337 117.398 258.337 116.057C258.337 114.716 258.581 113.534 259.07 112.511C259.564 111.483 260.251 110.682 261.132 110.108C262.018 109.528 263.053 109.239 264.234 109.239C264.916 109.239 265.589 109.352 266.254 109.58C266.919 109.807 267.524 110.176 268.07 110.688C268.615 111.193 269.05 111.864 269.374 112.699C269.697 113.534 269.859 114.562 269.859 115.784V116.636H259.768V114.898H267.814C267.814 114.159 267.666 113.5 267.371 112.92C267.081 112.341 266.666 111.884 266.126 111.548C265.592 111.213 264.962 111.045 264.234 111.045C263.433 111.045 262.74 111.244 262.155 111.642C261.575 112.034 261.129 112.545 260.817 113.176C260.504 113.807 260.348 114.483 260.348 115.205V116.364C260.348 117.352 260.518 118.19 260.859 118.878C261.206 119.56 261.686 120.08 262.3 120.438C262.913 120.79 263.626 120.966 264.439 120.966C264.967 120.966 265.445 120.892 265.871 120.744C266.303 120.591 266.675 120.364 266.987 120.062C267.3 119.756 267.541 119.375 267.712 118.92L269.655 119.466C269.45 120.125 269.107 120.705 268.624 121.205C268.141 121.699 267.544 122.085 266.834 122.364C266.124 122.636 265.325 122.773 264.439 122.773ZM272.919 122.5V109.409H274.862V111.386H274.999C275.237 110.739 275.669 110.213 276.294 109.81C276.919 109.406 277.624 109.205 278.408 109.205C278.555 109.205 278.74 109.207 278.962 109.213C279.183 109.219 279.351 109.227 279.464 109.239V111.284C279.396 111.267 279.24 111.241 278.996 111.207C278.757 111.168 278.504 111.148 278.237 111.148C277.601 111.148 277.033 111.281 276.533 111.548C276.038 111.81 275.646 112.173 275.357 112.639C275.072 113.099 274.93 113.625 274.93 114.216V122.5H272.919ZM283.349 120.114L283.212 121.034C283.116 121.682 282.968 122.375 282.769 123.114C282.576 123.852 282.374 124.548 282.164 125.202C281.954 125.855 281.781 126.375 281.644 126.761H280.11C280.184 126.398 280.281 125.918 280.4 125.321C280.519 124.724 280.638 124.057 280.758 123.318C280.883 122.585 280.985 121.835 281.065 121.068L281.167 120.114H283.349ZM294.814 122.5H292.598L299.007 105.045H301.189L307.598 122.5H305.382L300.166 107.807H300.03L294.814 122.5ZM295.632 115.682H304.564V117.557H295.632V115.682ZM310.044 122.5V109.409H311.987V111.386H312.124C312.362 110.739 312.794 110.213 313.419 109.81C314.044 109.406 314.749 109.205 315.533 109.205C315.68 109.205 315.865 109.207 316.087 109.213C316.308 109.219 316.476 109.227 316.589 109.239V111.284C316.521 111.267 316.365 111.241 316.121 111.207C315.882 111.168 315.629 111.148 315.362 111.148C314.726 111.148 314.158 111.281 313.658 111.548C313.163 111.81 312.771 112.173 312.482 112.639C312.197 113.099 312.055 113.625 312.055 114.216V122.5H310.044ZM323.893 122.773C322.666 122.773 321.609 122.483 320.723 121.903C319.837 121.324 319.155 120.526 318.678 119.509C318.2 118.491 317.962 117.33 317.962 116.023C317.962 114.693 318.206 113.52 318.695 112.503C319.189 111.48 319.876 110.682 320.757 110.108C321.643 109.528 322.678 109.239 323.859 109.239C324.78 109.239 325.609 109.409 326.348 109.75C327.087 110.091 327.692 110.568 328.163 111.182C328.635 111.795 328.928 112.511 329.041 113.33H327.03C326.876 112.733 326.536 112.205 326.007 111.744C325.484 111.278 324.78 111.045 323.893 111.045C323.109 111.045 322.422 111.25 321.831 111.659C321.246 112.062 320.788 112.634 320.459 113.372C320.135 114.105 319.973 114.966 319.973 115.955C319.973 116.966 320.132 117.847 320.45 118.597C320.774 119.347 321.229 119.929 321.814 120.344C322.405 120.759 323.098 120.966 323.893 120.966C324.416 120.966 324.891 120.875 325.317 120.693C325.743 120.511 326.104 120.25 326.399 119.909C326.695 119.568 326.905 119.159 327.03 118.682H329.041C328.928 119.455 328.646 120.151 328.197 120.77C327.754 121.384 327.166 121.872 326.433 122.236C325.706 122.594 324.859 122.773 323.893 122.773ZM333.993 114.625V122.5H331.982V105.045H333.993V111.455H334.163C334.47 110.778 334.93 110.241 335.544 109.844C336.163 109.44 336.987 109.239 338.016 109.239C338.908 109.239 339.689 109.418 340.359 109.776C341.03 110.128 341.55 110.67 341.919 111.403C342.294 112.131 342.482 113.057 342.482 114.182V122.5H340.47V114.318C340.47 113.278 340.2 112.474 339.661 111.906C339.126 111.332 338.385 111.045 337.436 111.045C336.777 111.045 336.186 111.185 335.663 111.463C335.146 111.741 334.737 112.148 334.436 112.682C334.141 113.216 333.993 113.864 333.993 114.625ZM346.161 122.5V109.409H348.173V122.5H346.161ZM347.184 107.227C346.792 107.227 346.454 107.094 346.17 106.827C345.891 106.56 345.752 106.239 345.752 105.864C345.752 105.489 345.891 105.168 346.17 104.901C346.454 104.634 346.792 104.5 347.184 104.5C347.576 104.5 347.911 104.634 348.19 104.901C348.474 105.168 348.616 105.489 348.616 105.864C348.616 106.239 348.474 106.56 348.19 106.827C347.911 107.094 347.576 107.227 347.184 107.227ZM357.55 109.409V111.114H350.766V109.409H357.55ZM352.743 106.273H354.754V118.75C354.754 119.318 354.837 119.744 355.001 120.028C355.172 120.307 355.388 120.494 355.649 120.591C355.916 120.682 356.197 120.727 356.493 120.727C356.714 120.727 356.896 120.716 357.038 120.693C357.18 120.665 357.294 120.642 357.379 120.625L357.788 122.432C357.652 122.483 357.462 122.534 357.217 122.585C356.973 122.642 356.663 122.67 356.288 122.67C355.72 122.67 355.163 122.548 354.618 122.304C354.078 122.06 353.629 121.688 353.271 121.188C352.919 120.688 352.743 120.057 352.743 119.295V106.273ZM365.923 122.773C364.662 122.773 363.574 122.494 362.659 121.938C361.75 121.375 361.048 120.591 360.554 119.585C360.065 118.574 359.821 117.398 359.821 116.057C359.821 114.716 360.065 113.534 360.554 112.511C361.048 111.483 361.736 110.682 362.616 110.108C363.503 109.528 364.537 109.239 365.719 109.239C366.401 109.239 367.074 109.352 367.739 109.58C368.403 109.807 369.009 110.176 369.554 110.688C370.099 111.193 370.534 111.864 370.858 112.699C371.182 113.534 371.344 114.562 371.344 115.784V116.636H361.253V114.898H369.298C369.298 114.159 369.151 113.5 368.855 112.92C368.565 112.341 368.151 111.884 367.611 111.548C367.077 111.213 366.446 111.045 365.719 111.045C364.918 111.045 364.224 111.244 363.639 111.642C363.06 112.034 362.614 112.545 362.301 113.176C361.989 113.807 361.832 114.483 361.832 115.205V116.364C361.832 117.352 362.003 118.19 362.344 118.878C362.69 119.56 363.17 120.08 363.784 120.438C364.398 120.79 365.111 120.966 365.923 120.966C366.452 120.966 366.929 120.892 367.355 120.744C367.787 120.591 368.159 120.364 368.472 120.062C368.784 119.756 369.026 119.375 369.196 118.92L371.139 119.466C370.935 120.125 370.591 120.705 370.108 121.205C369.625 121.699 369.028 122.085 368.318 122.364C367.608 122.636 366.81 122.773 365.923 122.773ZM379.722 122.773C378.494 122.773 377.438 122.483 376.551 121.903C375.665 121.324 374.983 120.526 374.506 119.509C374.028 118.491 373.79 117.33 373.79 116.023C373.79 114.693 374.034 113.52 374.523 112.503C375.017 111.48 375.705 110.682 376.585 110.108C377.472 109.528 378.506 109.239 379.688 109.239C380.608 109.239 381.438 109.409 382.176 109.75C382.915 110.091 383.52 110.568 383.991 111.182C384.463 111.795 384.756 112.511 384.869 113.33H382.858C382.705 112.733 382.364 112.205 381.835 111.744C381.313 111.278 380.608 111.045 379.722 111.045C378.938 111.045 378.25 111.25 377.659 111.659C377.074 112.062 376.616 112.634 376.287 113.372C375.963 114.105 375.801 114.966 375.801 115.955C375.801 116.966 375.96 117.847 376.278 118.597C376.602 119.347 377.057 119.929 377.642 120.344C378.233 120.759 378.926 120.966 379.722 120.966C380.244 120.966 380.719 120.875 381.145 120.693C381.571 120.511 381.932 120.25 382.227 119.909C382.523 119.568 382.733 119.159 382.858 118.682H384.869C384.756 119.455 384.474 120.151 384.026 120.77C383.582 121.384 382.994 121.872 382.261 122.236C381.534 122.594 380.688 122.773 379.722 122.773ZM393.503 109.409V111.114H386.719V109.409H393.503ZM388.696 106.273H390.707V118.75C390.707 119.318 390.79 119.744 390.955 120.028C391.125 120.307 391.341 120.494 391.602 120.591C391.869 120.682 392.151 120.727 392.446 120.727C392.668 120.727 392.849 120.716 392.991 120.693C393.134 120.665 393.247 120.642 393.332 120.625L393.741 122.432C393.605 122.483 393.415 122.534 393.17 122.585C392.926 122.642 392.616 122.67 392.241 122.67C391.673 122.67 391.116 122.548 390.571 122.304C390.031 122.06 389.582 121.688 389.224 121.188C388.872 120.688 388.696 120.057 388.696 119.295V106.273ZM407.168 101.38H406.184V125.38H407.168V101.38ZM420.494 122.5V120.966L426.256 114.659C426.932 113.92 427.489 113.278 427.926 112.733C428.364 112.182 428.688 111.665 428.898 111.182C429.114 110.693 429.222 110.182 429.222 109.648C429.222 109.034 429.074 108.503 428.778 108.054C428.489 107.605 428.091 107.259 427.585 107.014C427.08 106.77 426.511 106.648 425.881 106.648C425.21 106.648 424.625 106.787 424.125 107.065C423.631 107.338 423.247 107.722 422.974 108.216C422.707 108.71 422.574 109.29 422.574 109.955H420.562C420.562 108.932 420.798 108.034 421.27 107.261C421.741 106.489 422.384 105.886 423.196 105.455C424.014 105.023 424.932 104.807 425.949 104.807C426.972 104.807 427.878 105.023 428.668 105.455C429.457 105.886 430.077 106.469 430.526 107.202C430.974 107.935 431.199 108.75 431.199 109.648C431.199 110.29 431.082 110.918 430.849 111.531C430.622 112.139 430.224 112.818 429.656 113.568C429.094 114.312 428.312 115.222 427.312 116.295L423.392 120.489V120.625H431.506V122.5H420.494ZM440.719 122.739C439.435 122.739 438.341 122.389 437.438 121.69C436.534 120.986 435.844 119.966 435.366 118.631C434.889 117.29 434.651 115.67 434.651 113.773C434.651 111.886 434.889 110.276 435.366 108.94C435.849 107.599 436.543 106.577 437.446 105.872C438.355 105.162 439.446 104.807 440.719 104.807C441.991 104.807 443.08 105.162 443.983 105.872C444.892 106.577 445.585 107.599 446.062 108.94C446.545 110.276 446.787 111.886 446.787 113.773C446.787 115.67 446.548 117.29 446.071 118.631C445.594 119.966 444.903 120.986 444 121.69C443.097 122.389 442.003 122.739 440.719 122.739ZM440.719 120.864C441.991 120.864 442.98 120.25 443.685 119.023C444.389 117.795 444.741 116.045 444.741 113.773C444.741 112.261 444.58 110.974 444.256 109.912C443.938 108.849 443.477 108.04 442.875 107.483C442.278 106.926 441.56 106.648 440.719 106.648C439.457 106.648 438.472 107.27 437.761 108.514C437.051 109.753 436.696 111.506 436.696 113.773C436.696 115.284 436.855 116.568 437.173 117.625C437.491 118.682 437.949 119.486 438.545 120.037C439.148 120.588 439.872 120.864 440.719 120.864ZM450.026 122.5V120.966L455.787 114.659C456.463 113.92 457.02 113.278 457.457 112.733C457.895 112.182 458.219 111.665 458.429 111.182C458.645 110.693 458.753 110.182 458.753 109.648C458.753 109.034 458.605 108.503 458.31 108.054C458.02 107.605 457.622 107.259 457.116 107.014C456.611 106.77 456.043 106.648 455.412 106.648C454.741 106.648 454.156 106.787 453.656 107.065C453.162 107.338 452.778 107.722 452.506 108.216C452.239 108.71 452.105 109.29 452.105 109.955H450.094C450.094 108.932 450.33 108.034 450.801 107.261C451.273 106.489 451.915 105.886 452.727 105.455C453.545 105.023 454.463 104.807 455.48 104.807C456.503 104.807 457.409 105.023 458.199 105.455C458.989 105.886 459.608 106.469 460.057 107.202C460.506 107.935 460.73 108.75 460.73 109.648C460.73 110.29 460.614 110.918 460.381 111.531C460.153 112.139 459.756 112.818 459.188 113.568C458.625 114.312 457.844 115.222 456.844 116.295L452.923 120.489V120.625H461.037V122.5H450.026ZM470.693 105.045V122.5H468.58V107.261H468.477L464.216 110.091V107.943L468.58 105.045H470.693Z" fill="black"/>
<g clip-path="url(#clip0_2_118)">
<path d="M702.5 30H647.5C632.312 30 620 42.3122 620 57.5V112.5C620 127.688 632.312 140 647.5 140H702.5C717.688 140 730 127.688 730 112.5V57.5C730 42.3122 717.688 30 702.5 30Z" fill="url(#paint0_linear_2_118)"/>
<path opacity="0.2" fill-rule="evenodd" clip-rule="evenodd" d="M620 129.494H629.27V120.843H620L620 119.607H629.27V109.719H620L620 108.483H629.27V99.8314H620L620 98.5955H629.27V89.9438H620L620 88.7079H629.27V78.8203H620L620 77.5842H629.27L629.27 68.9327H620L620 67.6965H629.27V59.045H620L620 57.8089H629.27V47.9213H620L620 46.6854H629.27V38.0337H620L620 36.7977H629.27V30H630.506V36.7977H639.157V30H640.393V36.7977H649.045V30H650.281V36.7977H658.933V30H660.169V36.7977H668.82V30H670.056V36.7977H678.708V30L679.944 30V36.7977H688.596V30L689.831 30V36.7977H698.483V30L699.719 30V36.7977H708.371V30L709.607 30V36.7977H718.258V30L719.494 30V36.7977H730V38.0337H719.494V46.6854H730V47.9214H719.494V57.8089H730V59.045H719.494V67.6965H730V68.9327H719.494V77.5842H730V78.8203H719.494V88.7079H730V89.9438H719.494V98.5955H730V99.8314H719.494V108.483H730V109.719H719.494V119.607H730V120.843H719.494V129.494H730V130.73H719.494V140H718.258V130.73H709.607V140H708.371V130.73H699.719V140H698.483V130.73H689.831V140H688.596V130.73H679.944V140H678.708V130.73H670.056V140H668.82V130.73H660.169V140H658.933V130.73H650.281V140H649.045V130.73H640.393V140H639.157V130.73H630.506V140H629.27V130.73H620L620 129.494ZM718.258 38.0337H709.607V46.6854H718.258V38.0337ZM708.371 38.0337H699.719V46.6854H708.371V38.0337ZM698.483 38.0337H689.831V46.6854H698.483V38.0337ZM688.596 38.0337H679.944V46.6854H688.596V38.0337ZM678.708 38.0337H670.056V46.6854H678.708V38.0337ZM668.82 38.0337H660.169V46.6854H668.82V38.0337ZM658.933 38.0337H650.281V46.6854H658.933V38.0337ZM649.045 38.0337H640.393V46.6854H649.045V38.0337ZM639.157 38.0337H630.506V46.6854H639.157V38.0337ZM639.157 129.494H630.506V120.843H639.157V129.494ZM649.045 129.494H640.393V120.843H649.045V129.494ZM658.933 129.494H650.281V120.843H658.933V129.494ZM668.82 129.494H660.169V120.843H668.82V129.494ZM678.708 129.494H670.056V120.843H678.708V129.494ZM688.596 129.494H679.944V120.843H688.596V129.494ZM698.483 129.494H689.831V120.843H698.483V129.494ZM708.371 129.494H699.719V120.843H708.371V129.494ZM718.258 129.494H709.607V120.843H718.258V129.494ZM630.506 119.607H639.157V109.719H630.506V119.607ZM640.393 119.607H649.045V109.719H640.393V119.607ZM650.281 119.607H658.933V109.719H650.281V119.607ZM660.169 119.607H668.82V109.719H660.169V119.607ZM670.056 119.607H678.708V109.719H670.056V119.607ZM679.944 119.607H688.596V109.719H679.944V119.607ZM689.831 119.607H698.483V109.719H689.831V119.607ZM699.719 119.607H708.371V109.719H699.719V119.607ZM709.607 119.607H718.258V109.719H709.607V119.607ZM639.157 108.483H630.506V99.8314H639.157V108.483ZM649.045 108.483H640.393V99.8314H649.045V108.483ZM658.933 108.483H650.281V99.8314H658.933V108.483ZM668.82 108.483H660.169V99.8314H668.82V108.483ZM678.708 108.483H670.056V99.8314H678.708V108.483ZM688.596 108.483H679.944V99.8314H688.596V108.483ZM698.483 108.483H689.831V99.8314H698.483V108.483ZM708.371 108.483H699.719V99.8314H708.371V108.483ZM718.258 108.483H709.607V99.8314H718.258V108.483ZM630.506 98.5955H639.157V89.9438H630.506V98.5955ZM640.393 98.5955H649.045V89.9438H640.393V98.5955ZM650.281 98.5955H658.933V89.9438H650.281V98.5955ZM660.169 98.5955H668.82V89.9438H660.169V98.5955ZM670.056 98.5955H678.708V89.9438H670.056V98.5955ZM679.944 98.5955H688.596V89.9438H679.944V98.5955ZM689.831 98.5955H698.483V89.9438H689.831V98.5955ZM699.719 98.5955H708.371V89.9438H699.719V98.5955ZM709.607 98.5955H718.258V89.9438H709.607V98.5955ZM639.157 88.7079H630.506V78.8203H639.157V88.7079ZM649.045 88.7079H640.393V78.8203H649.045V88.7079ZM658.933 88.7079H650.281V78.8203H658.933V88.7079ZM668.82 88.7079H660.169V78.8203H668.82V88.7079ZM678.708 88.7079H670.056V78.8203H678.708V88.7079ZM688.596 88.7079H679.944V78.8203H688.596V88.7079ZM698.483 88.7079H689.831V78.8203H698.483V88.7079ZM708.371 88.7079H699.719V78.8203H708.371V88.7079ZM718.258 88.7079H709.607V78.8203H718.258V88.7079ZM630.506 77.5842H639.157V68.9327H630.506V77.5842ZM640.393 77.5842H649.045V68.9327H640.393V77.5842ZM650.281 77.5842H658.933V68.9327H650.281V77.5842ZM660.169 77.5842H668.82V68.9327H660.169V77.5842ZM670.056 77.5842H678.708V68.9327H670.056V77.5842ZM679.944 77.5842H688.596V68.9327H679.944V77.5842ZM689.831 77.5842H698.483V68.9327H689.831V77.5842ZM699.719 77.5842H708.371V68.9327H699.719V77.5842ZM709.607 77.5842H718.258V68.9327H709.607V77.5842ZM718.258 59.045V67.6965H709.607V59.045H718.258ZM708.371 59.045V67.6965H699.719V59.045H708.371ZM698.483 59.045V67.6965H689.831V59.045H698.483ZM688.596 59.045V67.6965H679.944V59.045H688.596ZM678.708 59.045V67.6965H670.056V59.045H678.708ZM668.82 59.045V67.6965H660.169V59.045H668.82ZM658.933 59.045V67.6965H650.281V59.045H658.933ZM649.045 59.045V67.6965H640.393V59.045H649.045ZM639.157 59.045V67.6965H630.506V59.045H639.157ZM630.506 57.8089H639.157V47.9213H630.506V57.8089ZM640.393 57.8089H649.045V47.9213H640.393V57.8089ZM650.281 57.8089H658.933V47.9213H650.281V57.8089ZM660.169 57.8089H668.82V47.9213H660.169V57.8089ZM670.056 57.8089H678.708V47.9213H670.056V57.8089ZM679.944 57.8089H688.596V47.9213H679.944V57.8089ZM689.831 57.8089H698.483V47.9214L689.831 47.9213V57.8089ZM699.719 57.8089H708.371V47.9214H699.719V57.8089ZM709.607 57.8089H718.258V47.9214H709.607V57.8089Z" fill="url(#paint1_linear_2_118)"/>
<g filter="url(#filter0_d_2_118)">
<path d="M730 30V140H620L730 30Z" fill="#C4C4C4"/>
<path d="M730 30V140H620L730 30Z" fill="url(#paint2_linear_2_118)"/>
</g>
<path d="M650.25 71.2502C650.25 57.5811 661.331 46.5002 675 46.5002C688.669 46.5002 699.75 57.5811 699.75 71.2502V96.0003H650.25V71.2502Z" fill="#607D8B"/>
<g filter="url(#filter1_dddiii_2_118)">
<path fill-rule="evenodd" clip-rule="evenodd" d="M675 57.5003C667.406 57.5003 661.25 63.6564 661.25 71.2502V85.0002H688.75V71.2502C688.75 63.6564 682.594 57.5003 675 57.5003ZM699.75 71.2502C699.75 57.5811 688.669 46.5002 675 46.5002C661.331 46.5002 650.25 57.5811 650.25 71.2502V96.0003H699.75V71.2502Z" fill="url(#paint3_linear_2_118)"/>
</g>
<g filter="url(#filter2_d_2_118)">
<path d="M699.75 74.0002H650.25V80.8752H699.75V74.0002Z" fill="white"/>
</g>
<g filter="url(#filter3_i_2_118)">
<path d="M661.25 71.2502C661.25 63.6563 667.406 57.5002 675 57.5002C682.594 57.5002 688.75 63.6563 688.75 71.2502V85.0002H661.25V71.2502Z" fill="#212121"/>
</g>
<g filter="url(#filter4_ddddi_2_118)">
<path d="M701.125 74.0002H648.875C645.078 74.0002 642 77.0783 642 80.8752V116.625C642 120.422 645.078 123.5 648.875 123.5H701.125C704.922 123.5 708 120.422 708 116.625V80.8752C708 77.0783 704.922 74.0002 701.125 74.0002Z" fill="url(#paint4_linear_2_118)"/>
<path d="M701.125 74.0002H648.875C645.078 74.0002 642 77.0783 642 80.8752V116.625C642 120.422 645.078 123.5 648.875 123.5H701.125C704.922 123.5 708 120.422 708 116.625V80.8752C708 77.0783 704.922 74.0002 701.125 74.0002Z" fill="url(#paint5_linear_2_118)" fill-opacity="0.35"/>
<path d="M701.125 74.0002H648.875C645.078 74.0002 642 77.0783 642 80.8752V116.625C642 120.422 645.078 123.5 648.875 123.5H701.125C704.922 123.5 708 120.422 708 116.625V80.8752C708 77.0783 704.922 74.0002 701.125 74.0002Z" fill="url(#paint6_linear_2_118)" fill-opacity="0.5"/>
</g>
<g filter="url(#filter5_iiii_2_118)">
<path d="M671.779 100.041L664 97.8283L665.551 93.1826L673.163 96.4027L672.566 87.7502H677.673L677.052 96.5748L684.449 93.4283L686 98.1235L678.126 100.336L683.352 106.85L679.224 109.75L674.857 102.523L670.466 109.504L666.338 106.727L671.779 100.041Z" fill="#212121"/>
</g>
</g>
<defs>
<filter id="filter0_d_2_118" x="618.5" y="29.1" width="113" height="113" filterUnits="userSpaceOnUse" color-interpolation-filters="sRGB">
<feFlood flood-opacity="0" result="BackgroundImageFix"/>
<feColorMatrix in="SourceAlpha" type="matrix" values="0 0 0 0 0 0 0 0 0 0 0 0 0 0 0 0 0 0 127 0" result="hardAlpha"/>
<feOffset dy="0.6"/>
<feGaussianBlur stdDeviation="0.75"/>
<feColorMatrix type="matrix" values="0 0 0 0 0 0 0 0 0 0 0 0 0 0 0 0 0 0 0.4 0"/>
<feBlend mode="normal" in2="BackgroundImageFix" result="effect1_dropShadow_2_118"/>
<feBlend mode="normal" in="SourceGraphic" in2="effect1_dropShadow_2_118" result="shape"/>
</filter>
<filter id="filter1_dddiii_2_118" x="642.562" y="43.2189" width="64.875" height="64.8751" filterUnits="userSpaceOnUse" color-interpolation-filters="sRGB">
<feFlood flood-opacity="0" result="BackgroundImageFix"/>
<feColorMatrix in="SourceAlpha" type="matrix" values="0 0 0 0 0 0 0 0 0 0 0 0 0 0 0 0 0 0 127 0" result="hardAlpha"/>
<feOffset dy="0.65625"/>
<feGaussianBlur stdDeviation="0.5625"/>
<feColorMatrix type="matrix" values="0 0 0 0 0 0 0 0 0 0 0 0 0 0 0 0 0 0 0.37 0"/>
<feBlend mode="normal" in2="BackgroundImageFix" result="effect1_dropShadow_2_118"/>
<feColorMatrix in="SourceAlpha" type="matrix" values="0 0 0 0 0 0 0 0 0 0 0 0 0 0 0 0 0 0 127 0" result="hardAlpha"/>
<feOffset dy="1.6875"/>
<feGaussianBlur stdDeviation="1.26562"/>
<feColorMatrix type="matrix" values="0 0 0 0 0 0 0 0 0 0 0 0 0 0 0 0 0 0 0.3 0"/>
<feBlend mode="normal" in2="effect1_dropShadow_2_118" result="effect2_dropShadow_2_118"/>
<feColorMatrix in="SourceAlpha" type="matrix" values="0 0 0 0 0 0 0 0 0 0 0 0 0 0 0 0 0 0 127 0" result="hardAlpha"/>
<feOffset dy="4.40625"/>
<feGaussianBlur stdDeviation="3.84375"/>
<feColorMatrix type="matrix" values="0 0 0 0 0 0 0 0 0 0 0 0 0 0 0 0 0 0 0.06 0"/>
<feBlend mode="normal" in2="effect2_dropShadow_2_118" result="effect3_dropShadow_2_118"/>
<feBlend mode="normal" in="SourceGraphic" in2="effect3_dropShadow_2_118" result="shape"/>
<feColorMatrix in="SourceAlpha" type="matrix" values="0 0 0 0 0 0 0 0 0 0 0 0 0 0 0 0 0 0 127 0" result="hardAlpha"/>
<feOffset dy="1.8"/>
<feGaussianBlur stdDeviation="1.65"/>
<feComposite in2="hardAlpha" operator="arithmetic" k2="-1" k3="1"/>
<feColorMatrix type="matrix" values="0 0 0 0 1 0 0 0 0 1 0 0 0 0 1 0 0 0 1 0"/>
<feBlend mode="normal" in2="shape" result="effect4_innerShadow_2_118"/>
<feColorMatrix in="SourceAlpha" type="matrix" values="0 0 0 0 0 0 0 0 0 0 0 0 0 0 0 0 0 0 127 0" result="hardAlpha"/>
<feOffset dy="-1.2"/>
<feGaussianBlur stdDeviation="0.6"/>
<feComposite in2="hardAlpha" operator="arithmetic" k2="-1" k3="1"/>
<feColorMatrix type="matrix" values="0 0 0 0 0 0 0 0 0 0 0 0 0 0 0 0 0 0 0.4 0"/>
<feBlend mode="normal" in2="effect4_innerShadow_2_118" result="effect5_innerShadow_2_118"/>
<feColorMatrix in="SourceAlpha" type="matrix" values="0 0 0 0 0 0 0 0 0 0 0 0 0 0 0 0 0 0 127 0" result="hardAlpha"/>
<feOffset dy="0.3"/>
<feGaussianBlur stdDeviation="0.3"/>
<feComposite in2="hardAlpha" operator="arithmetic" k2="-1" k3="1"/>
<feColorMatrix type="matrix" values="0 0 0 0 0 0 0 0 0 0 0 0 0 0 0 0 0 0 0.25 0"/>
<feBlend mode="normal" in2="effect5_innerShadow_2_118" result="effect6_innerShadow_2_118"/>
</filter>
<filter id="filter2_d_2_118" x="649.05" y="71.6002" width="51.9" height="9.275" filterUnits="userSpaceOnUse" color-interpolation-filters="sRGB">
<feFlood flood-opacity="0" result="BackgroundImageFix"/>
<feColorMatrix in="SourceAlpha" type="matrix" values="0 0 0 0 0 0 0 0 0 0 0 0 0 0 0 0 0 0 127 0" result="hardAlpha"/>
<feOffset dy="-1.2"/>
<feGaussianBlur stdDeviation="0.6"/>
<feColorMatrix type="matrix" values="0 0 0 0 0 0 0 0 0 0 0 0 0 0 0 0 0 0 0.25 0"/>
<feBlend mode="normal" in2="BackgroundImageFix" result="effect1_dropShadow_2_118"/>
<feBlend mode="normal" in="SourceGraphic" in2="effect1_dropShadow_2_118" result="shape"/>
</filter>
<filter id="filter3_i_2_118" x="661.25" y="57.5002" width="27.5" height="28.1" filterUnits="userSpaceOnUse" color-interpolation-filters="sRGB">
<feFlood flood-opacity="0" result="BackgroundImageFix"/>
<feBlend mode="normal" in="SourceGraphic" in2="BackgroundImageFix" result="shape"/>
<feColorMatrix in="SourceAlpha" type="matrix" values="0 0 0 0 0 0 0 0 0 0 0 0 0 0 0 0 0 0 127 0" result="hardAlpha"/>
<feOffset dy="0.6"/>
<feGaussianBlur stdDeviation="0.6"/>
<feComposite in2="hardAlpha" operator="arithmetic" k2="-1" k3="1"/>
<feColorMatrix type="matrix" values="0 0 0 0 0 0 0 0 0 0 0 0 0 0 0 0 0 0 1 0"/>
<feBlend mode="normal" in2="shape" result="effect1_innerShadow_2_118"/>
</filter>
<filter id="filter4_ddddi_2_118" x="638.7" y="72.8002" width="72.6" height="56.7" filterUnits="userSpaceOnUse" color-interpolation-filters="sRGB">
<feFlood flood-opacity="0" result="BackgroundImageFix"/>
<feColorMatrix in="SourceAlpha" type="matrix" values="0 0 0 0 0 0 0 0 0 0 0 0 0 0 0 0 0 0 127 0" result="hardAlpha"/>
<feOffset dy="0.6"/>
<feGaussianBlur stdDeviation="0.75"/>
<feColorMatrix type="matrix" values="0 0 0 0 0 0 0 0 0 0 0 0 0 0 0 0 0 0 0.14 0"/>
<feBlend mode="normal" in2="BackgroundImageFix" result="effect1_dropShadow_2_118"/>
<feColorMatrix in="SourceAlpha" type="matrix" values="0 0 0 0 0 0 0 0 0 0 0 0 0 0 0 0 0 0 127 0" result="hardAlpha"/>
<feOffset dy="2.7"/>
<feGaussianBlur stdDeviation="1.65"/>
<feColorMatrix type="matrix" values="0 0 0 0 0 0 0 0 0 0 0 0 0 0 0 0 0 0 0.34 0"/>
<feBlend mode="normal" in2="effect1_dropShadow_2_118" result="effect2_dropShadow_2_118"/>
<feColorMatrix in="SourceAlpha" type="matrix" values="0 0 0 0 0 0 0 0 0 0 0 0 0 0 0 0 0 0 127 0" result="hardAlpha"/>
<feOffset dy="0.6"/>
<feGaussianBlur stdDeviation="0.9"/>
<feColorMatrix type="matrix" values="0 0 0 0 0 0 0 0 0 0 0 0 0 0 0 0 0 0 0.25 0"/>
<feBlend mode="normal" in2="effect2_dropShadow_2_118" result="effect3_dropShadow_2_118"/>
<feColorMatrix in="SourceAlpha" type="matrix" values="0 0 0 0 0 0 0 0 0 0 0 0 0 0 0 0 0 0 127 0" result="hardAlpha"/>
<feOffset dy="0.6"/>
<feGaussianBlur stdDeviation="0.6"/>
<feColorMatrix type="matrix" values="0 0 0 0 0 0 0 0 0 0 0 0 0 0 0 0 0 0 0.15 0"/>
<feBlend mode="normal" in2="effect3_dropShadow_2_118" result="effect4_dropShadow_2_118"/>
<feBlend mode="normal" in="SourceGraphic" in2="effect4_dropShadow_2_118" result="shape"/>
<feColorMatrix in="SourceAlpha" type="matrix" values="0 0 0 0 0 0 0 0 0 0 0 0 0 0 0 0 0 0 127 0" result="hardAlpha"/>
<feOffset dy="-0.3"/>
<feGaussianBlur stdDeviation="0.6"/>
<feComposite in2="hardAlpha" operator="arithmetic" k2="-1" k3="1"/>
<feColorMatrix type="matrix" values="0 0 0 0 0 0 0 0 0 0 0 0 0 0 0 0 0 0 0.35 0"/>
<feBlend mode="normal" in2="shape" result="effect5_innerShadow_2_118"/>
</filter>
<filter id="filter5_iiii_2_118" x="663.7" y="87.4502" width="22.6" height="23.2" filterUnits="userSpaceOnUse" color-interpolation-filters="sRGB">
<feFlood flood-opacity="0" result="BackgroundImageFix"/>
<feBlend mode="normal" in="SourceGraphic" in2="BackgroundImageFix" result="shape"/>
<feColorMatrix in="SourceAlpha" type="matrix" values="0 0 0 0 0 0 0 0 0 0 0 0 0 0 0 0 0 0 127 0" result="hardAlpha"/>
<feOffset dy="-0.6"/>
<feGaussianBlur stdDeviation="0.15"/>
<feComposite in2="hardAlpha" operator="arithmetic" k2="-1" k3="1"/>
<feColorMatrix type="matrix" values="0 0 0 0 1 0 0 0 0 1 0 0 0 0 1 0 0 0 1 0"/>
<feBlend mode="overlay" in2="shape" result="effect1_innerShadow_2_118"/>
<feColorMatrix in="SourceAlpha" type="matrix" values="0 0 0 0 0 0 0 0 0 0 0 0 0 0 0 0 0 0 127 0" result="hardAlpha"/>
<feOffset dy="0.9"/>
<feGaussianBlur stdDeviation="0.525"/>
<feComposite in2="hardAlpha" operator="arithmetic" k2="-1" k3="1"/>
<feColorMatrix type="matrix" values="0 0 0 0 0 0 0 0 0 0 0 0 0 0 0 0 0 0 1 0"/>
<feBlend mode="normal" in2="effect1_innerShadow_2_118" result="effect2_innerShadow_2_118"/>
<feColorMatrix in="SourceAlpha" type="matrix" values="0 0 0 0 0 0 0 0 0 0 0 0 0 0 0 0 0 0 127 0" result="hardAlpha"/>
<feOffset dx="0.3" dy="0.45"/>
<feGaussianBlur stdDeviation="2"/>
<feComposite in2="hardAlpha" operator="arithmetic" k2="-1" k3="1"/>
<feColorMatrix type="matrix" values="0 0 0 0 0 0 0 0 0 0 0 0 0 0 0 0 0 0 0.75 0"/>
<feBlend mode="normal" in2="effect2_innerShadow_2_118" result="effect3_innerShadow_2_118"/>
<feColorMatrix in="SourceAlpha" type="matrix" values="0 0 0 0 0 0 0 0 0 0 0 0 0 0 0 0 0 0 127 0" result="hardAlpha"/>
<feOffset dx="-0.3" dy="0.45"/>
<feGaussianBlur stdDeviation="2"/>
<feComposite in2="hardAlpha" operator="arithmetic" k2="-1" k3="1"/>
<feColorMatrix type="matrix" values="0 0 0 0 0 0 0 0 0 0 0 0 0 0 0 0 0 0 0.75 0"/>
<feBlend mode="normal" in2="effect3_innerShadow_2_118" result="effect4_innerShadow_2_118"/>
</filter>
<linearGradient id="paint0_linear_2_118" x1="675" y1="30" x2="675" y2="140" gradientUnits="userSpaceOnUse">
<stop stop-color="#18CDF8"/>
<stop offset="1" stop-color="#186CF2"/>
</linearGradient>
<linearGradient id="paint1_linear_2_118" x1="675" y1="30" x2="675" y2="140" gradientUnits="userSpaceOnUse">
<stop stop-color="#E9F1E9"/>
<stop offset="1" stop-color="#E9F1E9" stop-opacity="0"/>
</linearGradient>
<linearGradient id="paint2_linear_2_118" x1="691.453" y1="47.7329" x2="707.277" y2="125.997" gradientUnits="userSpaceOnUse">
<stop stop-color="#EAECEB"/>
<stop offset="1" stop-color="#D2DCE5"/>
</linearGradient>
<linearGradient id="paint3_linear_2_118" x1="675" y1="46.5002" x2="675" y2="96.0003" gradientUnits="userSpaceOnUse">
<stop stop-color="#BDBDBD"/>
<stop offset="1" stop-color="#BDBDBD"/>
</linearGradient>
<linearGradient id="paint4_linear_2_118" x1="675.767" y1="84.4211" x2="675.215" y2="123.503" gradientUnits="userSpaceOnUse">
<stop stop-color="#F2F6F7"/>
<stop offset="0.4375" stop-color="#DADADA"/>
<stop offset="1" stop-color="#BCBCBC"/>
</linearGradient>
<linearGradient id="paint5_linear_2_118" x1="675" y1="89.1252" x2="675.214" y2="123.499" gradientUnits="userSpaceOnUse">
<stop stop-color="#18CDF8" stop-opacity="0"/>
<stop offset="1" stop-color="#186CF2"/>
</linearGradient>
<linearGradient id="paint6_linear_2_118" x1="675" y1="105.969" x2="675.214" y2="123.497" gradientUnits="userSpaceOnUse">
<stop offset="0.329728" stop-color="#18CDF8" stop-opacity="0"/>
<stop offset="1" stop-color="#186CF2"/>
</linearGradient>
<clipPath id="clip0_2_118">
<rect width="110" height="110" fill="white" transform="translate(620 30)"/>
</clipPath>
</defs>
</svg>
