<svg width="775" height="170" viewBox="0 0 775 170" fill="none" xmlns="http://www.w3.org/2000/svg">
<rect width="775" height="170" rx="30" fill="#DCDCDC"/>
<path d="M60.9446 76.5H55.8821L65.0994 50.3182H70.9545L80.1847 76.5H75.1222L68.1293 55.6875H67.9247L60.9446 76.5ZM61.1108 66.2344H74.9176V70.044H61.1108V66.2344ZM88.0565 64.9943V76.5H83.4286V56.8636H87.8519V60.2003H88.082C88.5337 59.1009 89.2539 58.2273 90.2425 57.5795C91.2397 56.9318 92.4712 56.608 93.9371 56.608C95.2923 56.608 96.4727 56.8977 97.4783 57.4773C98.4925 58.0568 99.2766 58.8963 99.8306 59.9957C100.393 61.0952 100.67 62.429 100.662 63.9972V76.5H96.0337V64.7131C96.0337 63.4006 95.6928 62.3736 95.011 61.6321C94.3377 60.8906 93.4045 60.5199 92.2113 60.5199C91.4016 60.5199 90.6815 60.6989 90.0508 61.0568C89.4286 61.4062 88.9386 61.9134 88.5806 62.5781C88.2312 63.2429 88.0565 64.0483 88.0565 64.9943ZM112.653 76.8452C111.11 76.8452 109.73 76.4489 108.511 75.6562C107.292 74.8636 106.329 73.7131 105.622 72.2045C104.914 70.696 104.561 68.8636 104.561 66.7074C104.561 64.5256 104.919 62.6847 105.635 61.1847C106.359 59.6761 107.335 58.5384 108.562 57.7713C109.789 56.9957 111.157 56.608 112.666 56.608C113.816 56.608 114.762 56.804 115.504 57.196C116.245 57.5795 116.833 58.044 117.268 58.5895C117.703 59.1264 118.039 59.6335 118.278 60.1108H118.47V50.3182H123.11V76.5H118.559V73.4062H118.278C118.039 73.8835 117.694 74.3906 117.243 74.9276C116.791 75.456 116.194 75.9077 115.453 76.2827C114.711 76.6577 113.778 76.8452 112.653 76.8452ZM113.944 73.0483C114.924 73.0483 115.76 72.7841 116.45 72.2557C117.14 71.7187 117.664 70.973 118.022 70.0185C118.38 69.0639 118.559 67.9517 118.559 66.6818C118.559 65.4119 118.38 64.3082 118.022 63.3707C117.673 62.4332 117.153 61.7045 116.463 61.1847C115.781 60.6648 114.941 60.4048 113.944 60.4048C112.913 60.4048 112.052 60.6733 111.362 61.2102C110.672 61.7472 110.152 62.4886 109.802 63.4347C109.453 64.3807 109.278 65.4631 109.278 66.6818C109.278 67.9091 109.453 69.0043 109.802 69.9673C110.16 70.9219 110.684 71.6761 111.375 72.2301C112.074 72.7756 112.93 73.0483 113.944 73.0483ZM136.972 76.5V56.8636H141.395V60.2003H141.625C142.034 59.0753 142.712 58.1974 143.658 57.5668C144.604 56.9276 145.733 56.608 147.045 56.608C148.375 56.608 149.496 56.9318 150.408 57.5795C151.328 58.2187 151.976 59.0923 152.351 60.2003H152.555C152.99 59.1094 153.723 58.2401 154.754 57.5923C155.794 56.9361 157.026 56.608 158.449 56.608C160.256 56.608 161.73 57.179 162.872 58.321C164.014 59.4631 164.585 61.1293 164.585 63.3196V76.5H159.945V64.0355C159.945 62.8168 159.621 61.9261 158.973 61.3636C158.325 60.7926 157.533 60.5071 156.595 60.5071C155.479 60.5071 154.605 60.8565 153.974 61.5554C153.352 62.2457 153.041 63.1449 153.041 64.2528V76.5H148.503V63.8438C148.503 62.8295 148.196 62.0199 147.582 61.4148C146.977 60.8097 146.185 60.5071 145.205 60.5071C144.54 60.5071 143.935 60.6776 143.389 61.0185C142.844 61.3509 142.409 61.8239 142.085 62.4375C141.761 63.0426 141.599 63.75 141.599 64.5597V76.5H136.972ZM177.846 76.8835C175.928 76.8835 174.266 76.4616 172.86 75.6179C171.453 74.7741 170.363 73.5937 169.587 72.0767C168.82 70.5597 168.436 68.7869 168.436 66.7585C168.436 64.7301 168.82 62.9531 169.587 61.4276C170.363 59.902 171.453 58.7173 172.86 57.8736C174.266 57.0298 175.928 56.608 177.846 56.608C179.763 56.608 181.425 57.0298 182.831 57.8736C184.238 58.7173 185.324 59.902 186.091 61.4276C186.867 62.9531 187.255 64.7301 187.255 66.7585C187.255 68.7869 186.867 70.5597 186.091 72.0767C185.324 73.5937 184.238 74.7741 182.831 75.6179C181.425 76.4616 179.763 76.8835 177.846 76.8835ZM177.871 73.1761C178.911 73.1761 179.78 72.8906 180.479 72.3196C181.178 71.7401 181.698 70.9645 182.039 69.9929C182.388 69.0213 182.563 67.9389 182.563 66.7457C182.563 65.544 182.388 64.4574 182.039 63.4858C181.698 62.5057 181.178 61.7259 180.479 61.1463C179.78 60.5668 178.911 60.277 177.871 60.277C176.806 60.277 175.919 60.5668 175.212 61.1463C174.513 61.7259 173.989 62.5057 173.64 63.4858C173.299 64.4574 173.128 65.544 173.128 66.7457C173.128 67.9389 173.299 69.0213 173.64 69.9929C173.989 70.9645 174.513 71.7401 175.212 72.3196C175.919 72.8906 176.806 73.1761 177.871 73.1761ZM191.183 76.5V56.8636H195.67V60.1364H195.874C196.232 59.0028 196.846 58.1293 197.715 57.5156C198.593 56.8935 199.594 56.5824 200.719 56.5824C200.975 56.5824 201.261 56.5952 201.576 56.6207C201.9 56.6378 202.168 56.6676 202.381 56.7102V60.9673C202.185 60.8991 201.874 60.8395 201.448 60.7884C201.031 60.7287 200.626 60.6989 200.234 60.6989C199.39 60.6989 198.631 60.8821 197.958 61.2486C197.293 61.6065 196.769 62.1051 196.386 62.7443C196.002 63.3835 195.81 64.1207 195.81 64.956V76.5H191.183ZM213.341 76.8835C211.372 76.8835 209.672 76.4744 208.24 75.6562C206.816 74.8295 205.721 73.6619 204.954 72.1534C204.187 70.6364 203.804 68.8509 203.804 66.7969C203.804 64.777 204.187 63.0043 204.954 61.4787C205.73 59.9446 206.812 58.7514 208.201 57.8991C209.591 57.0384 211.223 56.608 213.098 56.608C214.308 56.608 215.45 56.804 216.524 57.196C217.606 57.5795 218.561 58.1761 219.387 58.9858C220.223 59.7955 220.879 60.8267 221.356 62.0795C221.833 63.3239 222.072 64.8068 222.072 66.5284V67.9474H205.977V64.8281H217.636C217.627 63.9418 217.436 63.1534 217.061 62.4631C216.686 61.7642 216.162 61.2145 215.488 60.8139C214.824 60.4134 214.048 60.2131 213.162 60.2131C212.216 60.2131 211.385 60.4432 210.669 60.9034C209.953 61.3551 209.395 61.9517 208.994 62.6932C208.602 63.4261 208.402 64.2315 208.393 65.1094V67.8324C208.393 68.9744 208.602 69.9545 209.02 70.7727C209.437 71.5824 210.021 72.2045 210.771 72.6392C211.521 73.0653 212.399 73.2784 213.404 73.2784C214.078 73.2784 214.687 73.1847 215.233 72.9972C215.778 72.8011 216.251 72.5156 216.652 72.1406C217.052 71.7656 217.355 71.3011 217.559 70.7472L221.88 71.233C221.608 72.375 221.088 73.3722 220.321 74.2244C219.562 75.0682 218.591 75.7244 217.406 76.1932C216.221 76.6534 214.866 76.8835 213.341 76.8835ZM228.838 76.7812C228.063 76.7812 227.398 76.5085 226.844 75.9631C226.29 75.4176 226.017 74.7528 226.026 73.9688C226.017 73.2017 226.29 72.5455 226.844 72C227.398 71.4545 228.063 71.1818 228.838 71.1818C229.588 71.1818 230.24 71.4545 230.794 72C231.357 72.5455 231.642 73.2017 231.651 73.9688C231.642 74.4886 231.506 74.9616 231.241 75.3878C230.986 75.8139 230.645 76.1548 230.219 76.4105C229.801 76.6577 229.341 76.7812 228.838 76.7812ZM239.279 76.7812C238.504 76.7812 237.839 76.5085 237.285 75.9631C236.731 75.4176 236.458 74.7528 236.467 73.9688C236.458 73.2017 236.731 72.5455 237.285 72C237.839 71.4545 238.504 71.1818 239.279 71.1818C240.029 71.1818 240.681 71.4545 241.235 72C241.798 72.5455 242.083 73.2017 242.092 73.9688C242.083 74.4886 241.947 74.9616 241.683 75.3878C241.427 75.8139 241.086 76.1548 240.66 76.4105C240.243 76.6577 239.782 76.7812 239.279 76.7812ZM249.721 76.7812C248.945 76.7812 248.281 76.5085 247.727 75.9631C247.173 75.4176 246.9 74.7528 246.908 73.9688C246.9 73.2017 247.173 72.5455 247.727 72C248.281 71.4545 248.945 71.1818 249.721 71.1818C250.471 71.1818 251.123 71.4545 251.677 72C252.239 72.5455 252.525 73.2017 252.533 73.9688C252.525 74.4886 252.388 74.9616 252.124 75.3878C251.869 75.8139 251.528 76.1548 251.102 76.4105C250.684 76.6577 250.224 76.7812 249.721 76.7812Z" fill="black"/>
<path d="M56.536 103.636V105.268H77.44V103.636H56.536ZM66.208 104.332V113.62C66.208 117.604 65.464 121.132 56.104 122.86C56.488 123.292 56.992 124.06 57.184 124.444C66.808 122.404 68.08 118.276 68.08 113.644V104.332H66.208ZM60.448 112.636H74.128V115.084H60.448V112.636ZM60.448 108.796H74.128V111.196H60.448V108.796ZM58.744 107.284V116.596H75.952V107.284H58.744ZM61.048 116.788L59.512 117.412C62.728 122.86 68.632 123.988 77.464 124.348C77.56 123.772 77.92 123.004 78.232 122.572C69.568 122.356 64.096 121.54 61.048 116.788ZM85.024 107.644C86.824 108.532 89.008 109.948 90.04 110.956L91.312 109.78C90.232 108.772 88.024 107.428 86.224 106.588L85.024 107.644ZM96.112 104.38V104.668C93.496 109.396 86.584 112.636 80.536 113.764C80.872 114.148 81.232 114.892 81.4 115.348C87.736 113.956 94.84 110.596 97.96 105.004L96.784 104.284L96.472 104.38H96.112ZM88.096 104.38V105.892H96.568V104.38H88.096ZM89.872 102.316C88.216 104.332 85.048 106.588 80.728 108.1C81.136 108.412 81.688 109.012 81.952 109.444C86.416 107.668 89.68 105.292 91.888 102.748L89.872 102.316ZM88.096 116.452C89.992 117.484 92.272 119.092 93.352 120.22L94.768 119.068C93.616 117.916 91.312 116.404 89.416 115.42L88.096 116.452ZM99.616 112.78V113.044C97.024 119.092 89.776 121.948 82.36 122.836C82.648 123.244 83.008 123.988 83.128 124.492C90.976 123.34 98.464 120.34 101.488 113.332L100.312 112.684L99.976 112.78H99.616ZM91.816 112.78V114.316H100.096V112.78H91.816ZM93.76 110.524C91.888 112.804 88.24 115.3 83.152 116.884C83.536 117.22 84.064 117.868 84.28 118.276C89.536 116.428 93.328 113.812 95.752 110.98L93.76 110.524ZM105.616 107.716V124.444H107.44V109.492H123.568V107.716H105.616ZM122.68 107.716V122.068C122.68 122.452 122.56 122.572 122.128 122.596C121.672 122.62 120.136 122.62 118.576 122.572C118.84 123.076 119.128 123.892 119.2 124.42C121.216 124.42 122.632 124.396 123.448 124.108C124.264 123.796 124.504 123.22 124.504 122.092V107.716H122.68ZM109.816 103.42V105.028H114.952V103.42H109.816ZM113.728 103.42V104.308H114.112C114.472 111.292 116.32 116.356 121.144 118.756C121.432 118.276 122.032 117.58 122.416 117.196C117.712 115.18 116.008 110.332 115.72 103.42H113.728ZM113.92 108.196C113.296 112.708 111.28 115.708 107.656 117.484C108.04 117.772 108.616 118.468 108.88 118.876C112.744 116.884 114.808 113.428 115.624 108.484L113.92 108.196ZM134.944 107.356C133.576 109.108 131.32 110.788 129.16 111.868C129.544 112.204 130.192 112.924 130.456 113.284C132.64 112.012 135.088 110.02 136.672 107.908L134.944 107.356ZM141.064 108.364C143.296 109.756 145.984 111.796 147.28 113.188L148.624 111.964C147.256 110.596 144.496 108.604 142.288 107.332L141.064 108.364ZM139.024 111.676C141.256 114.388 145.48 117.388 149.056 119.068C149.344 118.564 149.776 117.892 150.184 117.46C146.488 115.948 142.384 113.092 139.816 110.02H138.016C136.12 112.756 132.136 115.948 128.08 117.796C128.44 118.18 128.896 118.852 129.112 119.284C133.12 117.34 137.056 114.268 139.024 111.676ZM132.376 116.38V124.444H134.128V117.988H143.848V124.348H145.672V116.38H132.376ZM133.216 122.02V123.628H144.808V122.02H133.216ZM138.016 102.34V105.484H139.864V102.34H138.016ZM128.968 104.572V108.94H130.744V106.204H147.184V108.94H149.008V104.572H128.968ZM152.032 106.228V107.932H162.712V106.228H152.032ZM155.92 111.124V112.78H160.528V111.124H155.92ZM156.424 102.388V107.044H158.2V102.388H156.424ZM159.904 111.124V111.484C159.76 119.188 159.568 121.852 159.16 122.428C158.968 122.692 158.752 122.764 158.416 122.74C158.032 122.74 157.144 122.74 156.136 122.668C156.4 123.124 156.568 123.82 156.616 124.324C157.624 124.372 158.656 124.372 159.232 124.324C159.88 124.228 160.264 124.06 160.648 123.532C161.296 122.692 161.44 119.956 161.608 111.94C161.632 111.7 161.632 111.124 161.632 111.124H159.904ZM164.968 106.828V108.508H174.088V106.828H164.968ZM165.52 102.34C164.824 106.468 163.576 110.5 161.656 113.044C162.088 113.308 162.88 113.908 163.192 114.22C165.16 111.436 166.552 107.14 167.368 102.604L165.52 102.34ZM170.632 107.74C169.528 115.42 166.984 120.244 161.056 122.908C161.416 123.292 161.944 124.084 162.112 124.492C168.352 121.396 171.088 116.284 172.408 107.932L170.632 107.74ZM165.664 108.364L164.104 108.652C165.424 115.948 167.92 121.732 172.984 124.372C173.248 123.892 173.824 123.196 174.256 122.836C169.384 120.556 166.84 115.012 165.664 108.364ZM154.888 107.068V112.924C154.888 116.308 154.528 120.124 151.576 123.244C152.032 123.556 152.608 124.036 152.92 124.396C156.112 121.012 156.592 116.908 156.592 112.924V107.068H154.888ZM176.488 106.06V107.812H197.512V106.06H176.488ZM183.928 113.668V115.348H196.576V113.668H183.928ZM182.992 122.164V123.868H197.512V122.164H182.992ZM189.352 109.036V123.076H191.152V109.036H189.352ZM184.384 102.34C183.04 107.284 180.232 112.612 175.912 115.66C176.2 116.068 176.656 116.836 176.848 117.316C181.624 113.884 184.552 108.292 186.232 102.796L184.384 102.34ZM179.632 112.228V124.348H181.432V112.228H179.632ZM207.864 122.5V105.045H213.761C215.131 105.045 216.25 105.293 217.119 105.787C217.994 106.276 218.642 106.938 219.062 107.773C219.483 108.608 219.693 109.54 219.693 110.568C219.693 111.597 219.483 112.531 219.062 113.372C218.648 114.213 218.006 114.884 217.136 115.384C216.267 115.878 215.153 116.125 213.795 116.125H209.568V114.25H213.727C214.665 114.25 215.418 114.088 215.986 113.764C216.554 113.44 216.966 113.003 217.222 112.452C217.483 111.895 217.614 111.267 217.614 110.568C217.614 109.869 217.483 109.244 217.222 108.693C216.966 108.142 216.551 107.71 215.977 107.398C215.403 107.08 214.642 106.92 213.693 106.92H209.977V122.5H207.864ZM222.825 122.5V109.409H224.837V122.5H222.825ZM223.848 107.227C223.456 107.227 223.118 107.094 222.834 106.827C222.555 106.56 222.416 106.239 222.416 105.864C222.416 105.489 222.555 105.168 222.834 104.901C223.118 104.634 223.456 104.5 223.848 104.5C224.24 104.5 224.575 104.634 224.854 104.901C225.138 105.168 225.28 105.489 225.28 105.864C225.28 106.239 225.138 106.56 224.854 106.827C224.575 107.094 224.24 107.227 223.848 107.227ZM230.532 114.625V122.5H228.521V109.409H230.464V111.455H230.634C230.941 110.79 231.407 110.256 232.032 109.852C232.657 109.443 233.464 109.239 234.452 109.239C235.339 109.239 236.114 109.42 236.779 109.784C237.444 110.142 237.961 110.688 238.33 111.42C238.7 112.148 238.884 113.068 238.884 114.182V122.5H236.873V114.318C236.873 113.29 236.606 112.489 236.072 111.915C235.538 111.335 234.805 111.045 233.873 111.045C233.231 111.045 232.657 111.185 232.151 111.463C231.651 111.741 231.256 112.148 230.967 112.682C230.677 113.216 230.532 113.864 230.532 114.625ZM244.571 114.625V122.5H242.56V109.409H244.503V111.455H244.673C244.98 110.79 245.446 110.256 246.071 109.852C246.696 109.443 247.503 109.239 248.491 109.239C249.378 109.239 250.153 109.42 250.818 109.784C251.483 110.142 252 110.688 252.369 111.42C252.739 112.148 252.923 113.068 252.923 114.182V122.5H250.912V114.318C250.912 113.29 250.645 112.489 250.111 111.915C249.577 111.335 248.844 111.045 247.912 111.045C247.27 111.045 246.696 111.185 246.19 111.463C245.69 111.741 245.295 112.148 245.006 112.682C244.716 113.216 244.571 113.864 244.571 114.625ZM262.087 122.773C260.826 122.773 259.738 122.494 258.823 121.938C257.914 121.375 257.212 120.591 256.718 119.585C256.229 118.574 255.985 117.398 255.985 116.057C255.985 114.716 256.229 113.534 256.718 112.511C257.212 111.483 257.9 110.682 258.781 110.108C259.667 109.528 260.701 109.239 261.883 109.239C262.565 109.239 263.238 109.352 263.903 109.58C264.567 109.807 265.173 110.176 265.718 110.688C266.263 111.193 266.698 111.864 267.022 112.699C267.346 113.534 267.508 114.562 267.508 115.784V116.636H257.417V114.898H265.462C265.462 114.159 265.315 113.5 265.019 112.92C264.729 112.341 264.315 111.884 263.775 111.548C263.241 111.213 262.61 111.045 261.883 111.045C261.082 111.045 260.388 111.244 259.803 111.642C259.224 112.034 258.778 112.545 258.465 113.176C258.153 113.807 257.996 114.483 257.996 115.205V116.364C257.996 117.352 258.167 118.19 258.508 118.878C258.854 119.56 259.335 120.08 259.948 120.438C260.562 120.79 261.275 120.966 262.087 120.966C262.616 120.966 263.093 120.892 263.519 120.744C263.951 120.591 264.323 120.364 264.636 120.062C264.948 119.756 265.19 119.375 265.36 118.92L267.303 119.466C267.099 120.125 266.755 120.705 266.272 121.205C265.789 121.699 265.192 122.085 264.482 122.364C263.772 122.636 262.974 122.773 262.087 122.773ZM275.511 122.773C274.42 122.773 273.457 122.497 272.621 121.946C271.786 121.389 271.133 120.605 270.661 119.594C270.19 118.577 269.954 117.375 269.954 115.989C269.954 114.614 270.19 113.42 270.661 112.409C271.133 111.398 271.789 110.616 272.63 110.065C273.471 109.514 274.442 109.239 275.545 109.239C276.397 109.239 277.07 109.381 277.565 109.665C278.065 109.943 278.445 110.261 278.707 110.619C278.974 110.972 279.181 111.261 279.329 111.489H279.499V105.045H281.511V122.5H279.567V120.489H279.329C279.181 120.727 278.971 121.028 278.698 121.392C278.425 121.75 278.036 122.071 277.531 122.355C277.025 122.634 276.352 122.773 275.511 122.773ZM275.783 120.966C276.59 120.966 277.272 120.756 277.829 120.335C278.386 119.909 278.809 119.321 279.099 118.571C279.388 117.815 279.533 116.943 279.533 115.955C279.533 114.977 279.391 114.122 279.107 113.389C278.823 112.651 278.403 112.077 277.846 111.668C277.289 111.253 276.602 111.045 275.783 111.045C274.931 111.045 274.221 111.264 273.653 111.702C273.09 112.134 272.667 112.722 272.383 113.466C272.104 114.205 271.965 115.034 271.965 115.955C271.965 116.886 272.107 117.733 272.391 118.494C272.681 119.25 273.107 119.852 273.67 120.301C274.238 120.744 274.942 120.966 275.783 120.966ZM292.496 122.5V105.045H298.394C299.763 105.045 300.883 105.293 301.752 105.787C302.627 106.276 303.275 106.938 303.695 107.773C304.116 108.608 304.326 109.54 304.326 110.568C304.326 111.597 304.116 112.531 303.695 113.372C303.281 114.213 302.638 114.884 301.769 115.384C300.9 115.878 299.786 116.125 298.428 116.125H294.201V114.25H298.36C299.298 114.25 300.05 114.088 300.619 113.764C301.187 113.44 301.599 113.003 301.854 112.452C302.116 111.895 302.246 111.267 302.246 110.568C302.246 109.869 302.116 109.244 301.854 108.693C301.599 108.142 301.184 107.71 300.61 107.398C300.036 107.08 299.275 106.92 298.326 106.92H294.61V122.5H292.496ZM307.458 122.5V109.409H309.401V111.386H309.538C309.776 110.739 310.208 110.213 310.833 109.81C311.458 109.406 312.163 109.205 312.947 109.205C313.094 109.205 313.279 109.207 313.501 109.213C313.722 109.219 313.89 109.227 314.004 109.239V111.284C313.935 111.267 313.779 111.241 313.535 111.207C313.296 111.168 313.043 111.148 312.776 111.148C312.14 111.148 311.572 111.281 311.072 111.548C310.577 111.81 310.185 112.173 309.896 112.639C309.612 113.099 309.469 113.625 309.469 114.216V122.5H307.458ZM321.308 122.773C320.126 122.773 319.089 122.491 318.197 121.929C317.31 121.366 316.617 120.58 316.117 119.568C315.623 118.557 315.376 117.375 315.376 116.023C315.376 114.659 315.623 113.469 316.117 112.452C316.617 111.435 317.31 110.645 318.197 110.082C319.089 109.52 320.126 109.239 321.308 109.239C322.489 109.239 323.523 109.52 324.41 110.082C325.302 110.645 325.995 111.435 326.489 112.452C326.989 113.469 327.239 114.659 327.239 116.023C327.239 117.375 326.989 118.557 326.489 119.568C325.995 120.58 325.302 121.366 324.41 121.929C323.523 122.491 322.489 122.773 321.308 122.773ZM321.308 120.966C322.205 120.966 322.944 120.736 323.523 120.276C324.103 119.815 324.532 119.21 324.81 118.46C325.089 117.71 325.228 116.898 325.228 116.023C325.228 115.148 325.089 114.332 324.81 113.577C324.532 112.821 324.103 112.21 323.523 111.744C322.944 111.278 322.205 111.045 321.308 111.045C320.41 111.045 319.671 111.278 319.092 111.744C318.512 112.21 318.083 112.821 317.805 113.577C317.526 114.332 317.387 115.148 317.387 116.023C317.387 116.898 317.526 117.71 317.805 118.46C318.083 119.21 318.512 119.815 319.092 120.276C319.671 120.736 320.41 120.966 321.308 120.966ZM330.31 109.409H332.321V123.455C332.321 124.261 332.182 124.96 331.903 125.551C331.631 126.142 331.216 126.599 330.659 126.923C330.108 127.247 329.412 127.409 328.571 127.409C328.503 127.409 328.435 127.409 328.366 127.409C328.298 127.409 328.23 127.409 328.162 127.409V125.534C328.23 125.534 328.293 125.534 328.349 125.534C328.406 125.534 328.469 125.534 328.537 125.534C329.151 125.534 329.599 125.352 329.884 124.989C330.168 124.631 330.31 124.119 330.31 123.455V109.409ZM331.298 107.227C330.906 107.227 330.568 107.094 330.284 106.827C330.006 106.56 329.866 106.239 329.866 105.864C329.866 105.489 330.006 105.168 330.284 104.901C330.568 104.634 330.906 104.5 331.298 104.5C331.69 104.5 332.026 104.634 332.304 104.901C332.588 105.168 332.73 105.489 332.73 105.864C332.73 106.239 332.588 106.56 332.304 106.827C332.026 107.094 331.69 107.227 331.298 107.227ZM341.494 122.773C340.232 122.773 339.144 122.494 338.229 121.938C337.32 121.375 336.619 120.591 336.124 119.585C335.636 118.574 335.391 117.398 335.391 116.057C335.391 114.716 335.636 113.534 336.124 112.511C336.619 111.483 337.306 110.682 338.187 110.108C339.073 109.528 340.107 109.239 341.289 109.239C341.971 109.239 342.644 109.352 343.309 109.58C343.974 109.807 344.579 110.176 345.124 110.688C345.67 111.193 346.104 111.864 346.428 112.699C346.752 113.534 346.914 114.562 346.914 115.784V116.636H336.823V114.898H344.869C344.869 114.159 344.721 113.5 344.425 112.92C344.136 112.341 343.721 111.884 343.181 111.548C342.647 111.213 342.016 111.045 341.289 111.045C340.488 111.045 339.795 111.244 339.21 111.642C338.63 112.034 338.184 112.545 337.871 113.176C337.559 113.807 337.403 114.483 337.403 115.205V116.364C337.403 117.352 337.573 118.19 337.914 118.878C338.261 119.56 338.741 120.08 339.354 120.438C339.968 120.79 340.681 120.966 341.494 120.966C342.022 120.966 342.499 120.892 342.925 120.744C343.357 120.591 343.729 120.364 344.042 120.062C344.354 119.756 344.596 119.375 344.766 118.92L346.71 119.466C346.505 120.125 346.161 120.705 345.678 121.205C345.195 121.699 344.599 122.085 343.888 122.364C343.178 122.636 342.38 122.773 341.494 122.773ZM355.292 122.773C354.065 122.773 353.008 122.483 352.121 121.903C351.235 121.324 350.553 120.526 350.076 119.509C349.599 118.491 349.36 117.33 349.36 116.023C349.36 114.693 349.604 113.52 350.093 112.503C350.587 111.48 351.275 110.682 352.156 110.108C353.042 109.528 354.076 109.239 355.258 109.239C356.178 109.239 357.008 109.409 357.746 109.75C358.485 110.091 359.09 110.568 359.562 111.182C360.033 111.795 360.326 112.511 360.44 113.33H358.428C358.275 112.733 357.934 112.205 357.406 111.744C356.883 111.278 356.178 111.045 355.292 111.045C354.508 111.045 353.82 111.25 353.229 111.659C352.644 112.062 352.187 112.634 351.857 113.372C351.533 114.105 351.371 114.966 351.371 115.955C351.371 116.966 351.531 117.847 351.849 118.597C352.173 119.347 352.627 119.929 353.212 120.344C353.803 120.759 354.496 120.966 355.292 120.966C355.815 120.966 356.289 120.875 356.715 120.693C357.141 120.511 357.502 120.25 357.798 119.909C358.093 119.568 358.303 119.159 358.428 118.682H360.44C360.326 119.455 360.045 120.151 359.596 120.77C359.153 121.384 358.565 121.872 357.832 122.236C357.104 122.594 356.258 122.773 355.292 122.773ZM369.073 109.409V111.114H362.289V109.409H369.073ZM364.266 106.273H366.278V118.75C366.278 119.318 366.36 119.744 366.525 120.028C366.695 120.307 366.911 120.494 367.173 120.591C367.44 120.682 367.721 120.727 368.016 120.727C368.238 120.727 368.42 120.716 368.562 120.693C368.704 120.665 368.817 120.642 368.903 120.625L369.312 122.432C369.175 122.483 368.985 122.534 368.741 122.585C368.496 122.642 368.187 122.67 367.812 122.67C367.244 122.67 366.687 122.548 366.141 122.304C365.602 122.06 365.153 121.688 364.795 121.188C364.442 120.688 364.266 120.057 364.266 119.295V106.273ZM381.137 112.341L379.33 112.852C379.217 112.551 379.049 112.259 378.827 111.974C378.612 111.685 378.316 111.446 377.941 111.259C377.566 111.071 377.086 110.977 376.501 110.977C375.7 110.977 375.032 111.162 374.498 111.531C373.969 111.895 373.705 112.358 373.705 112.92C373.705 113.42 373.887 113.815 374.251 114.105C374.614 114.395 375.183 114.636 375.955 114.83L377.898 115.307C379.069 115.591 379.941 116.026 380.515 116.611C381.089 117.19 381.376 117.937 381.376 118.852C381.376 119.602 381.16 120.273 380.728 120.864C380.302 121.455 379.705 121.92 378.938 122.261C378.171 122.602 377.279 122.773 376.262 122.773C374.927 122.773 373.822 122.483 372.947 121.903C372.072 121.324 371.518 120.477 371.285 119.364L373.194 118.886C373.376 119.591 373.719 120.119 374.225 120.472C374.737 120.824 375.404 121 376.228 121C377.165 121 377.91 120.801 378.461 120.403C379.018 120 379.296 119.517 379.296 118.955C379.296 118.5 379.137 118.119 378.819 117.812C378.501 117.5 378.012 117.267 377.353 117.114L375.171 116.602C373.972 116.318 373.092 115.878 372.529 115.281C371.972 114.679 371.694 113.926 371.694 113.023C371.694 112.284 371.901 111.631 372.316 111.062C372.737 110.494 373.308 110.048 374.029 109.724C374.756 109.401 375.58 109.239 376.501 109.239C377.796 109.239 378.813 109.523 379.552 110.091C380.296 110.659 380.825 111.409 381.137 112.341ZM391.617 106.636V118.06H393.417V108.412H409.089V117.94H410.961V106.636H391.617ZM392.577 114.796V116.548H410.169V114.796H392.577ZM400.305 102.34V124.396H402.177V102.34H400.305ZM417.969 116.668C415.953 116.668 414.297 118.3 414.297 120.316C414.297 122.332 415.953 123.964 417.969 123.964C419.985 123.964 421.617 122.332 421.617 120.316C421.617 118.3 419.985 116.668 417.969 116.668ZM417.969 122.74C416.625 122.74 415.521 121.66 415.521 120.316C415.521 118.972 416.625 117.892 417.969 117.892C419.312 117.892 420.393 118.972 420.393 120.316C420.393 121.66 419.312 122.74 417.969 122.74Z" fill="black"/>
</svg>
