<svg width="500" height="160" viewBox="0 0 500 160" fill="none" xmlns="http://www.w3.org/2000/svg">
<rect width="500" height="160" rx="30" fill="white"/>
<rect width="500" height="160" rx="30" fill="#5865F2" fill-opacity="0.2"/>
<g opacity="0.9">
<path d="M56.4545 73H47.5824V46.8182H56.6335C59.233 46.8182 61.4659 47.3423 63.3324 48.3906C65.2074 49.4304 66.6477 50.9261 67.6534 52.8778C68.6591 54.8295 69.1619 57.1648 69.1619 59.8835C69.1619 62.6108 68.6548 64.9545 67.6406 66.9148C66.6349 68.875 65.1818 70.3793 63.2812 71.4276C61.3892 72.4759 59.1136 73 56.4545 73ZM52.3253 68.8963H56.2244C58.0483 68.8963 59.5696 68.5639 60.7884 67.8991C62.0071 67.2259 62.9233 66.2244 63.5369 64.8949C64.1506 63.5568 64.4574 61.8864 64.4574 59.8835C64.4574 57.8807 64.1506 56.2187 63.5369 54.8977C62.9233 53.5682 62.0156 52.5753 60.8139 51.919C59.6207 51.2543 58.1378 50.9219 56.3651 50.9219H52.3253V68.8963ZM73.4638 73V53.3636H78.0916V73H73.4638ZM75.7905 50.5767C75.0575 50.5767 74.4268 50.3338 73.8984 49.848C73.37 49.3537 73.1058 48.7614 73.1058 48.071C73.1058 47.3722 73.37 46.7798 73.8984 46.294C74.4268 45.7997 75.0575 45.5526 75.7905 45.5526C76.532 45.5526 77.1626 45.7997 77.6825 46.294C78.2109 46.7798 78.4751 47.3722 78.4751 48.071C78.4751 48.7614 78.2109 49.3537 77.6825 49.848C77.1626 50.3338 76.532 50.5767 75.7905 50.5767ZM98.3704 58.554L94.1516 59.0142C94.0323 58.5881 93.8235 58.1875 93.5252 57.8125C93.2354 57.4375 92.8434 57.1349 92.3491 56.9048C91.8548 56.6747 91.2496 56.5597 90.5337 56.5597C89.5707 56.5597 88.761 56.7685 88.1048 57.1861C87.457 57.6037 87.1374 58.1449 87.146 58.8097C87.1374 59.3807 87.3462 59.8452 87.7724 60.2031C88.207 60.5611 88.9229 60.8551 89.9201 61.0852L93.2695 61.8011C95.1275 62.2017 96.5082 62.8366 97.4116 63.706C98.3235 64.5753 98.7837 65.7131 98.7923 67.1193C98.7837 68.3551 98.4215 69.446 97.7056 70.392C96.9982 71.3295 96.0138 72.0625 94.7525 72.5909C93.4911 73.1193 92.0423 73.3835 90.4059 73.3835C88.0025 73.3835 86.0678 72.8807 84.6019 71.875C83.136 70.8608 82.2624 69.4503 81.9812 67.6435L86.494 67.2088C86.6985 68.0952 87.1332 68.7642 87.7979 69.2159C88.4627 69.6676 89.3278 69.8935 90.3931 69.8935C91.4925 69.8935 92.3746 69.6676 93.0394 69.2159C93.7127 68.7642 94.0494 68.206 94.0494 67.5412C94.0494 66.9787 93.832 66.5142 93.3974 66.1477C92.9712 65.7812 92.3065 65.5 91.4031 65.304L88.0536 64.6009C86.1701 64.2088 84.7766 63.5483 83.8732 62.6193C82.9698 61.6818 82.5224 60.4972 82.5309 59.0653C82.5224 57.8551 82.8505 56.8068 83.5153 55.9205C84.1886 55.0256 85.1218 54.3352 86.315 53.8494C87.5167 53.3551 88.9016 53.108 90.4698 53.108C92.771 53.108 94.582 53.598 95.9031 54.5781C97.2326 55.5582 98.055 56.8835 98.3704 58.554ZM111.174 73.3835C109.213 73.3835 107.53 72.9531 106.124 72.0923C104.726 71.2315 103.648 70.0426 102.89 68.5256C102.14 67 101.765 65.2443 101.765 63.2585C101.765 61.2642 102.148 59.5043 102.915 57.9787C103.682 56.4446 104.765 55.2514 106.162 54.3991C107.569 53.5384 109.23 53.108 111.148 53.108C112.742 53.108 114.152 53.402 115.38 53.9901C116.615 54.5696 117.6 55.392 118.333 56.4574C119.066 57.5142 119.483 58.75 119.586 60.1648H115.162C114.983 59.2187 114.557 58.4304 113.884 57.7997C113.219 57.1605 112.328 56.8409 111.212 56.8409C110.266 56.8409 109.435 57.0966 108.719 57.608C108.003 58.1108 107.445 58.8352 107.044 59.7812C106.652 60.7273 106.456 61.8608 106.456 63.1818C106.456 64.5199 106.652 65.6705 107.044 66.6335C107.436 67.5881 107.986 68.3253 108.694 68.8452C109.409 69.3565 110.249 69.6122 111.212 69.6122C111.894 69.6122 112.503 69.4844 113.04 69.2287C113.586 68.9645 114.042 68.5852 114.408 68.0909C114.775 67.5966 115.026 66.9957 115.162 66.2884H119.586C119.475 67.6776 119.066 68.9091 118.358 69.983C117.651 71.0483 116.688 71.8835 115.469 72.4886C114.25 73.0852 112.819 73.3835 111.174 73.3835ZM131.951 73.3835C130.033 73.3835 128.371 72.9616 126.965 72.1179C125.559 71.2741 124.468 70.0937 123.692 68.5767C122.925 67.0597 122.542 65.2869 122.542 63.2585C122.542 61.2301 122.925 59.4531 123.692 57.9276C124.468 56.402 125.559 55.2173 126.965 54.3736C128.371 53.5298 130.033 53.108 131.951 53.108C133.869 53.108 135.531 53.5298 136.937 54.3736C138.343 55.2173 139.43 56.402 140.197 57.9276C140.972 59.4531 141.36 61.2301 141.36 63.2585C141.36 65.2869 140.972 67.0597 140.197 68.5767C139.43 70.0937 138.343 71.2741 136.937 72.1179C135.531 72.9616 133.869 73.3835 131.951 73.3835ZM131.977 69.6761C133.016 69.6761 133.886 69.3906 134.585 68.8196C135.283 68.2401 135.803 67.4645 136.144 66.4929C136.494 65.5213 136.668 64.4389 136.668 63.2457C136.668 62.044 136.494 60.9574 136.144 59.9858C135.803 59.0057 135.283 58.2259 134.585 57.6463C133.886 57.0668 133.016 56.777 131.977 56.777C130.911 56.777 130.025 57.0668 129.317 57.6463C128.619 58.2259 128.094 59.0057 127.745 59.9858C127.404 60.9574 127.234 62.044 127.234 63.2457C127.234 64.4389 127.404 65.5213 127.745 66.4929C128.094 67.4645 128.619 68.2401 129.317 68.8196C130.025 69.3906 130.911 69.6761 131.977 69.6761ZM145.288 73V53.3636H149.775V56.6364H149.98C150.338 55.5028 150.951 54.6293 151.821 54.0156C152.699 53.3935 153.7 53.0824 154.825 53.0824C155.081 53.0824 155.366 53.0952 155.681 53.1207C156.005 53.1378 156.274 53.1676 156.487 53.2102V57.4673C156.291 57.3991 155.98 57.3395 155.554 57.2884C155.136 57.2287 154.731 57.1989 154.339 57.1989C153.495 57.1989 152.737 57.3821 152.064 57.7486C151.399 58.1065 150.875 58.6051 150.491 59.2443C150.108 59.8835 149.916 60.6207 149.916 61.456V73H145.288ZM166.04 73.3452C164.497 73.3452 163.116 72.9489 161.898 72.1562C160.679 71.3636 159.716 70.2131 159.009 68.7045C158.301 67.196 157.947 65.3636 157.947 63.2074C157.947 61.0256 158.305 59.1847 159.021 57.6847C159.746 56.1761 160.722 55.0384 161.949 54.2713C163.176 53.4957 164.544 53.108 166.053 53.108C167.203 53.108 168.149 53.304 168.891 53.696C169.632 54.0795 170.22 54.544 170.655 55.0895C171.089 55.6264 171.426 56.1335 171.665 56.6108H171.857V46.8182H176.497V73H171.946V69.9062H171.665C171.426 70.3835 171.081 70.8906 170.629 71.4276C170.178 71.956 169.581 72.4077 168.839 72.7827C168.098 73.1577 167.165 73.3452 166.04 73.3452ZM167.331 69.5483C168.311 69.5483 169.146 69.2841 169.837 68.7557C170.527 68.2187 171.051 67.473 171.409 66.5185C171.767 65.5639 171.946 64.4517 171.946 63.1818C171.946 61.9119 171.767 60.8082 171.409 59.8707C171.06 58.9332 170.54 58.2045 169.849 57.6847C169.168 57.1648 168.328 56.9048 167.331 56.9048C166.3 56.9048 165.439 57.1733 164.749 57.7102C164.058 58.2472 163.538 58.9886 163.189 59.9347C162.839 60.8807 162.665 61.9631 162.665 63.1818C162.665 64.4091 162.839 65.5043 163.189 66.4673C163.547 67.4219 164.071 68.1761 164.761 68.7301C165.46 69.2756 166.317 69.5483 167.331 69.5483Z" fill="#5865F2"/>
<path d="M56.4545 73H47.5824V46.8182H56.6335C59.233 46.8182 61.4659 47.3423 63.3324 48.3906C65.2074 49.4304 66.6477 50.9261 67.6534 52.8778C68.6591 54.8295 69.1619 57.1648 69.1619 59.8835C69.1619 62.6108 68.6548 64.9545 67.6406 66.9148C66.6349 68.875 65.1818 70.3793 63.2812 71.4276C61.3892 72.4759 59.1136 73 56.4545 73ZM52.3253 68.8963H56.2244C58.0483 68.8963 59.5696 68.5639 60.7884 67.8991C62.0071 67.2259 62.9233 66.2244 63.5369 64.8949C64.1506 63.5568 64.4574 61.8864 64.4574 59.8835C64.4574 57.8807 64.1506 56.2187 63.5369 54.8977C62.9233 53.5682 62.0156 52.5753 60.8139 51.919C59.6207 51.2543 58.1378 50.9219 56.3651 50.9219H52.3253V68.8963ZM73.4638 73V53.3636H78.0916V73H73.4638ZM75.7905 50.5767C75.0575 50.5767 74.4268 50.3338 73.8984 49.848C73.37 49.3537 73.1058 48.7614 73.1058 48.071C73.1058 47.3722 73.37 46.7798 73.8984 46.294C74.4268 45.7997 75.0575 45.5526 75.7905 45.5526C76.532 45.5526 77.1626 45.7997 77.6825 46.294C78.2109 46.7798 78.4751 47.3722 78.4751 48.071C78.4751 48.7614 78.2109 49.3537 77.6825 49.848C77.1626 50.3338 76.532 50.5767 75.7905 50.5767ZM98.3704 58.554L94.1516 59.0142C94.0323 58.5881 93.8235 58.1875 93.5252 57.8125C93.2354 57.4375 92.8434 57.1349 92.3491 56.9048C91.8548 56.6747 91.2496 56.5597 90.5337 56.5597C89.5707 56.5597 88.761 56.7685 88.1048 57.1861C87.457 57.6037 87.1374 58.1449 87.146 58.8097C87.1374 59.3807 87.3462 59.8452 87.7724 60.2031C88.207 60.5611 88.9229 60.8551 89.9201 61.0852L93.2695 61.8011C95.1275 62.2017 96.5082 62.8366 97.4116 63.706C98.3235 64.5753 98.7837 65.7131 98.7923 67.1193C98.7837 68.3551 98.4215 69.446 97.7056 70.392C96.9982 71.3295 96.0138 72.0625 94.7525 72.5909C93.4911 73.1193 92.0423 73.3835 90.4059 73.3835C88.0025 73.3835 86.0678 72.8807 84.6019 71.875C83.136 70.8608 82.2624 69.4503 81.9812 67.6435L86.494 67.2088C86.6985 68.0952 87.1332 68.7642 87.7979 69.2159C88.4627 69.6676 89.3278 69.8935 90.3931 69.8935C91.4925 69.8935 92.3746 69.6676 93.0394 69.2159C93.7127 68.7642 94.0494 68.206 94.0494 67.5412C94.0494 66.9787 93.832 66.5142 93.3974 66.1477C92.9712 65.7812 92.3065 65.5 91.4031 65.304L88.0536 64.6009C86.1701 64.2088 84.7766 63.5483 83.8732 62.6193C82.9698 61.6818 82.5224 60.4972 82.5309 59.0653C82.5224 57.8551 82.8505 56.8068 83.5153 55.9205C84.1886 55.0256 85.1218 54.3352 86.315 53.8494C87.5167 53.3551 88.9016 53.108 90.4698 53.108C92.771 53.108 94.582 53.598 95.9031 54.5781C97.2326 55.5582 98.055 56.8835 98.3704 58.554ZM111.174 73.3835C109.213 73.3835 107.53 72.9531 106.124 72.0923C104.726 71.2315 103.648 70.0426 102.89 68.5256C102.14 67 101.765 65.2443 101.765 63.2585C101.765 61.2642 102.148 59.5043 102.915 57.9787C103.682 56.4446 104.765 55.2514 106.162 54.3991C107.569 53.5384 109.23 53.108 111.148 53.108C112.742 53.108 114.152 53.402 115.38 53.9901C116.615 54.5696 117.6 55.392 118.333 56.4574C119.066 57.5142 119.483 58.75 119.586 60.1648H115.162C114.983 59.2187 114.557 58.4304 113.884 57.7997C113.219 57.1605 112.328 56.8409 111.212 56.8409C110.266 56.8409 109.435 57.0966 108.719 57.608C108.003 58.1108 107.445 58.8352 107.044 59.7812C106.652 60.7273 106.456 61.8608 106.456 63.1818C106.456 64.5199 106.652 65.6705 107.044 66.6335C107.436 67.5881 107.986 68.3253 108.694 68.8452C109.409 69.3565 110.249 69.6122 111.212 69.6122C111.894 69.6122 112.503 69.4844 113.04 69.2287C113.586 68.9645 114.042 68.5852 114.408 68.0909C114.775 67.5966 115.026 66.9957 115.162 66.2884H119.586C119.475 67.6776 119.066 68.9091 118.358 69.983C117.651 71.0483 116.688 71.8835 115.469 72.4886C114.25 73.0852 112.819 73.3835 111.174 73.3835ZM131.951 73.3835C130.033 73.3835 128.371 72.9616 126.965 72.1179C125.559 71.2741 124.468 70.0937 123.692 68.5767C122.925 67.0597 122.542 65.2869 122.542 63.2585C122.542 61.2301 122.925 59.4531 123.692 57.9276C124.468 56.402 125.559 55.2173 126.965 54.3736C128.371 53.5298 130.033 53.108 131.951 53.108C133.869 53.108 135.531 53.5298 136.937 54.3736C138.343 55.2173 139.43 56.402 140.197 57.9276C140.972 59.4531 141.36 61.2301 141.36 63.2585C141.36 65.2869 140.972 67.0597 140.197 68.5767C139.43 70.0937 138.343 71.2741 136.937 72.1179C135.531 72.9616 133.869 73.3835 131.951 73.3835ZM131.977 69.6761C133.016 69.6761 133.886 69.3906 134.585 68.8196C135.283 68.2401 135.803 67.4645 136.144 66.4929C136.494 65.5213 136.668 64.4389 136.668 63.2457C136.668 62.044 136.494 60.9574 136.144 59.9858C135.803 59.0057 135.283 58.2259 134.585 57.6463C133.886 57.0668 133.016 56.777 131.977 56.777C130.911 56.777 130.025 57.0668 129.317 57.6463C128.619 58.2259 128.094 59.0057 127.745 59.9858C127.404 60.9574 127.234 62.044 127.234 63.2457C127.234 64.4389 127.404 65.5213 127.745 66.4929C128.094 67.4645 128.619 68.2401 129.317 68.8196C130.025 69.3906 130.911 69.6761 131.977 69.6761ZM145.288 73V53.3636H149.775V56.6364H149.98C150.338 55.5028 150.951 54.6293 151.821 54.0156C152.699 53.3935 153.7 53.0824 154.825 53.0824C155.081 53.0824 155.366 53.0952 155.681 53.1207C156.005 53.1378 156.274 53.1676 156.487 53.2102V57.4673C156.291 57.3991 155.98 57.3395 155.554 57.2884C155.136 57.2287 154.731 57.1989 154.339 57.1989C153.495 57.1989 152.737 57.3821 152.064 57.7486C151.399 58.1065 150.875 58.6051 150.491 59.2443C150.108 59.8835 149.916 60.6207 149.916 61.456V73H145.288ZM166.04 73.3452C164.497 73.3452 163.116 72.9489 161.898 72.1562C160.679 71.3636 159.716 70.2131 159.009 68.7045C158.301 67.196 157.947 65.3636 157.947 63.2074C157.947 61.0256 158.305 59.1847 159.021 57.6847C159.746 56.1761 160.722 55.0384 161.949 54.2713C163.176 53.4957 164.544 53.108 166.053 53.108C167.203 53.108 168.149 53.304 168.891 53.696C169.632 54.0795 170.22 54.544 170.655 55.0895C171.089 55.6264 171.426 56.1335 171.665 56.6108H171.857V46.8182H176.497V73H171.946V69.9062H171.665C171.426 70.3835 171.081 70.8906 170.629 71.4276C170.178 71.956 169.581 72.4077 168.839 72.7827C168.098 73.1577 167.165 73.3452 166.04 73.3452ZM167.331 69.5483C168.311 69.5483 169.146 69.2841 169.837 68.7557C170.527 68.2187 171.051 67.473 171.409 66.5185C171.767 65.5639 171.946 64.4517 171.946 63.1818C171.946 61.9119 171.767 60.8082 171.409 59.8707C171.06 58.9332 170.54 58.2045 169.849 57.6847C169.168 57.1648 168.328 56.9048 167.331 56.9048C166.3 56.9048 165.439 57.1733 164.749 57.7102C164.058 58.2472 163.538 58.9886 163.189 59.9347C162.839 60.8807 162.665 61.9631 162.665 63.1818C162.665 64.4091 162.839 65.5043 163.189 66.4673C163.547 67.4219 164.071 68.1761 164.761 68.7301C165.46 69.2756 166.317 69.5483 167.331 69.5483Z" fill="black" fill-opacity="0.5"/>
</g>
<path d="M46.8409 123.909V105.909H48.7841V107.989H49.0227C49.1705 107.761 49.375 107.472 49.6364 107.119C49.9034 106.761 50.2841 106.443 50.7784 106.165C51.2784 105.881 51.9545 105.739 52.8068 105.739C53.9091 105.739 54.8807 106.014 55.7216 106.565C56.5625 107.116 57.2188 107.898 57.6903 108.909C58.1619 109.92 58.3977 111.114 58.3977 112.489C58.3977 113.875 58.1619 115.077 57.6903 116.094C57.2188 117.105 56.5653 117.889 55.7301 118.446C54.8949 118.997 53.9318 119.273 52.8409 119.273C52 119.273 51.3267 119.134 50.821 118.855C50.3153 118.571 49.9261 118.25 49.6534 117.892C49.3807 117.528 49.1705 117.227 49.0227 116.989H48.8523V123.909H46.8409ZM48.8182 112.455C48.8182 113.443 48.9631 114.315 49.2528 115.071C49.5426 115.821 49.9659 116.409 50.5227 116.835C51.0795 117.256 51.7614 117.466 52.5682 117.466C53.4091 117.466 54.1108 117.244 54.6733 116.801C55.2415 116.352 55.6676 115.75 55.9517 114.994C56.2415 114.233 56.3864 113.386 56.3864 112.455C56.3864 111.534 56.2443 110.705 55.9602 109.966C55.6818 109.222 55.2585 108.634 54.6903 108.202C54.1278 107.764 53.4205 107.545 52.5682 107.545C51.75 107.545 51.0625 107.753 50.5057 108.168C49.9489 108.577 49.5284 109.151 49.2443 109.889C48.9602 110.622 48.8182 111.477 48.8182 112.455ZM65.3182 119.307C64.4886 119.307 63.7358 119.151 63.0597 118.838C62.3835 118.52 61.8466 118.062 61.4489 117.466C61.0511 116.864 60.8523 116.136 60.8523 115.284C60.8523 114.534 61 113.926 61.2955 113.46C61.5909 112.989 61.9858 112.619 62.4801 112.352C62.9744 112.085 63.5199 111.886 64.1165 111.756C64.7188 111.619 65.3239 111.511 65.9318 111.432C66.7273 111.33 67.3722 111.253 67.8665 111.202C68.3665 111.145 68.7301 111.051 68.9574 110.92C69.1903 110.79 69.3068 110.562 69.3068 110.239V110.17C69.3068 109.33 69.0767 108.676 68.6165 108.21C68.1619 107.744 67.4716 107.511 66.5455 107.511C65.5852 107.511 64.8324 107.722 64.2869 108.142C63.7415 108.562 63.358 109.011 63.1364 109.489L61.2273 108.807C61.5682 108.011 62.0227 107.392 62.5909 106.949C63.1648 106.5 63.7898 106.187 64.4659 106.011C65.1477 105.83 65.8182 105.739 66.4773 105.739C66.8977 105.739 67.3807 105.79 67.9261 105.892C68.4773 105.989 69.0085 106.19 69.5199 106.497C70.0369 106.804 70.4659 107.267 70.8068 107.886C71.1477 108.506 71.3182 109.335 71.3182 110.375V119H69.3068V117.227H69.2045C69.0682 117.511 68.8409 117.815 68.5227 118.139C68.2045 118.463 67.7813 118.739 67.2528 118.966C66.7244 119.193 66.0795 119.307 65.3182 119.307ZM65.625 117.5C66.4205 117.5 67.0909 117.344 67.6364 117.031C68.1875 116.719 68.6023 116.315 68.8807 115.821C69.1648 115.327 69.3068 114.807 69.3068 114.261V112.42C69.2216 112.523 69.0341 112.616 68.7443 112.702C68.4602 112.781 68.1307 112.852 67.7557 112.915C67.3864 112.972 67.0256 113.023 66.6733 113.068C66.3267 113.108 66.0455 113.142 65.8295 113.17C65.3068 113.239 64.8182 113.349 64.3636 113.503C63.9148 113.651 63.5511 113.875 63.2727 114.176C63 114.472 62.8636 114.875 62.8636 115.386C62.8636 116.085 63.1222 116.614 63.6392 116.972C64.1619 117.324 64.8239 117.5 65.625 117.5ZM77.0007 111.125V119H74.9893V105.909H76.9325V107.955H77.103C77.4098 107.29 77.8757 106.756 78.5007 106.352C79.1257 105.943 79.9325 105.739 80.9212 105.739C81.8075 105.739 82.5831 105.92 83.2479 106.284C83.9126 106.642 84.4297 107.188 84.799 107.92C85.1683 108.648 85.353 109.568 85.353 110.682V119H83.3416V110.818C83.3416 109.79 83.0746 108.989 82.5405 108.415C82.0064 107.835 81.2734 107.545 80.3416 107.545C79.6996 107.545 79.1257 107.685 78.62 107.963C78.12 108.241 77.7251 108.648 77.4354 109.182C77.1456 109.716 77.0007 110.364 77.0007 111.125ZM94.5511 101.307C95.267 101.312 95.983 101.449 96.6989 101.716C97.4148 101.983 98.0682 102.426 98.6591 103.045C99.25 103.659 99.7244 104.497 100.082 105.56C100.44 106.622 100.619 107.955 100.619 109.557C100.619 111.108 100.472 112.486 100.176 113.69C99.8864 114.889 99.4659 115.901 98.9148 116.724C98.3693 117.548 97.7045 118.173 96.9205 118.599C96.142 119.026 95.2614 119.239 94.2784 119.239C93.3011 119.239 92.429 119.045 91.6619 118.659C90.9006 118.267 90.2756 117.724 89.7869 117.031C89.304 116.332 88.9943 115.523 88.858 114.602H90.9375C91.125 115.403 91.4972 116.065 92.054 116.588C92.6165 117.105 93.358 117.364 94.2784 117.364C95.625 117.364 96.6875 116.776 97.4659 115.599C98.25 114.423 98.642 112.761 98.642 110.614H98.5057C98.1875 111.091 97.8097 111.503 97.3722 111.849C96.9347 112.196 96.4489 112.463 95.9148 112.651C95.3807 112.838 94.8125 112.932 94.2102 112.932C93.2102 112.932 92.2926 112.685 91.4574 112.19C90.6278 111.69 89.9631 111.006 89.4631 110.136C88.9688 109.261 88.7216 108.261 88.7216 107.136C88.7216 106.068 88.9602 105.091 89.4375 104.205C89.9205 103.312 90.5966 102.602 91.4659 102.074C92.3409 101.545 93.3693 101.29 94.5511 101.307ZM94.5511 103.182C93.8352 103.182 93.1903 103.361 92.6165 103.719C92.0483 104.071 91.5966 104.548 91.2614 105.151C90.9318 105.747 90.767 106.409 90.767 107.136C90.767 107.864 90.9261 108.526 91.2443 109.122C91.5682 109.713 92.0085 110.185 92.5653 110.537C93.1278 110.884 93.767 111.057 94.483 111.057C95.0227 111.057 95.5256 110.952 95.9915 110.741C96.4574 110.526 96.8636 110.233 97.2102 109.864C97.5625 109.489 97.8381 109.065 98.0369 108.594C98.2358 108.116 98.3352 107.619 98.3352 107.102C98.3352 106.42 98.1705 105.781 97.8409 105.185C97.517 104.588 97.0682 104.105 96.4943 103.736C95.9261 103.366 95.2784 103.182 94.5511 103.182ZM109.869 119.239C108.744 119.239 107.741 119.045 106.86 118.659C105.985 118.273 105.289 117.736 104.772 117.048C104.261 116.355 103.982 115.551 103.937 114.636H106.085C106.13 115.199 106.323 115.685 106.664 116.094C107.005 116.497 107.451 116.81 108.002 117.031C108.553 117.253 109.164 117.364 109.835 117.364C110.585 117.364 111.249 117.233 111.829 116.972C112.408 116.71 112.863 116.347 113.192 115.881C113.522 115.415 113.687 114.875 113.687 114.261C113.687 113.619 113.528 113.054 113.21 112.565C112.891 112.071 112.425 111.685 111.812 111.406C111.198 111.128 110.448 110.989 109.562 110.989H108.164V109.114H109.562C110.255 109.114 110.863 108.989 111.386 108.739C111.914 108.489 112.326 108.136 112.621 107.682C112.923 107.227 113.073 106.693 113.073 106.08C113.073 105.489 112.942 104.974 112.681 104.537C112.42 104.099 112.05 103.759 111.573 103.514C111.102 103.27 110.545 103.148 109.903 103.148C109.3 103.148 108.732 103.259 108.198 103.48C107.67 103.696 107.238 104.011 106.903 104.426C106.567 104.835 106.386 105.33 106.357 105.909H104.312C104.346 104.994 104.621 104.193 105.138 103.506C105.656 102.812 106.332 102.273 107.167 101.886C108.008 101.5 108.931 101.307 109.937 101.307C111.016 101.307 111.942 101.526 112.715 101.963C113.488 102.395 114.082 102.966 114.496 103.676C114.911 104.386 115.119 105.153 115.119 105.977C115.119 106.96 114.86 107.798 114.343 108.491C113.832 109.185 113.136 109.665 112.255 109.932V110.068C113.357 110.25 114.218 110.719 114.837 111.474C115.457 112.224 115.766 113.153 115.766 114.261C115.766 115.21 115.508 116.062 114.991 116.818C114.479 117.568 113.781 118.159 112.894 118.591C112.008 119.023 110.999 119.239 109.869 119.239ZM118.843 115.42V113.682L126.513 101.545H127.775V104.239H126.923L121.127 113.409V113.545H131.457V115.42H118.843ZM127.059 119V114.892V114.082V101.545H129.07V119H127.059ZM140.553 101.545V119H138.439V103.761H138.337L134.075 106.591V104.443L138.439 101.545H140.553ZM145.572 119V117.466L151.334 111.159C152.01 110.42 152.567 109.778 153.004 109.233C153.442 108.682 153.766 108.165 153.976 107.682C154.192 107.193 154.3 106.682 154.3 106.148C154.3 105.534 154.152 105.003 153.857 104.554C153.567 104.105 153.169 103.759 152.663 103.514C152.158 103.27 151.589 103.148 150.959 103.148C150.288 103.148 149.703 103.287 149.203 103.565C148.709 103.838 148.325 104.222 148.053 104.716C147.786 105.21 147.652 105.79 147.652 106.455H145.641C145.641 105.432 145.876 104.534 146.348 103.761C146.82 102.989 147.462 102.386 148.274 101.955C149.092 101.523 150.01 101.307 151.027 101.307C152.05 101.307 152.956 101.523 153.746 101.955C154.536 102.386 155.155 102.969 155.604 103.702C156.053 104.435 156.277 105.25 156.277 106.148C156.277 106.79 156.161 107.418 155.928 108.031C155.7 108.639 155.303 109.318 154.734 110.068C154.172 110.812 153.391 111.722 152.391 112.795L148.47 116.989V117.125H156.584V119H145.572ZM166.649 119L169.513 101.545H171.217L168.354 119H166.649ZM158.706 114.159L158.979 112.455H172.001L171.729 114.159H158.706ZM160.513 119L163.376 101.545H165.081L162.217 119H160.513ZM159.729 108.091L160.001 106.386H173.024L172.751 108.091H159.729ZM175.79 119L183.597 103.557V103.42H174.597V101.545H185.778V103.523L178.006 119H175.79ZM194.195 119.239C193.024 119.239 191.99 119.031 191.092 118.616C190.2 118.196 189.504 117.619 189.004 116.886C188.504 116.148 188.257 115.307 188.263 114.364C188.257 113.625 188.402 112.943 188.697 112.318C188.993 111.687 189.396 111.162 189.908 110.741C190.425 110.315 191.001 110.045 191.638 109.932V109.83C190.803 109.614 190.138 109.145 189.643 108.423C189.149 107.696 188.905 106.869 188.911 105.943C188.905 105.057 189.129 104.264 189.584 103.565C190.038 102.866 190.663 102.315 191.459 101.912C192.26 101.509 193.172 101.307 194.195 101.307C195.206 101.307 196.109 101.509 196.905 101.912C197.7 102.315 198.325 102.866 198.78 103.565C199.24 104.264 199.473 105.057 199.479 105.943C199.473 106.869 199.22 107.696 198.72 108.423C198.226 109.145 197.57 109.614 196.751 109.83V109.932C197.382 110.045 197.95 110.315 198.456 110.741C198.962 111.162 199.365 111.687 199.666 112.318C199.967 112.943 200.121 113.625 200.126 114.364C200.121 115.307 199.865 116.148 199.359 116.886C198.859 117.619 198.163 118.196 197.271 118.616C196.385 119.031 195.359 119.239 194.195 119.239ZM194.195 117.364C194.984 117.364 195.666 117.236 196.24 116.98C196.814 116.724 197.257 116.364 197.57 115.898C197.882 115.432 198.041 114.886 198.047 114.261C198.041 113.602 197.871 113.02 197.536 112.514C197.2 112.009 196.743 111.611 196.163 111.321C195.589 111.031 194.933 110.886 194.195 110.886C193.45 110.886 192.786 111.031 192.2 111.321C191.621 111.611 191.163 112.009 190.828 112.514C190.499 113.02 190.337 113.602 190.342 114.261C190.337 114.886 190.487 115.432 190.794 115.898C191.107 116.364 191.553 116.724 192.132 116.98C192.712 117.236 193.399 117.364 194.195 117.364ZM194.195 109.08C194.82 109.08 195.374 108.955 195.857 108.705C196.345 108.455 196.729 108.105 197.007 107.656C197.286 107.207 197.428 106.682 197.433 106.08C197.428 105.489 197.288 104.974 197.016 104.537C196.743 104.094 196.365 103.753 195.882 103.514C195.399 103.27 194.837 103.148 194.195 103.148C193.541 103.148 192.97 103.27 192.482 103.514C191.993 103.753 191.615 104.094 191.348 104.537C191.081 104.974 190.95 105.489 190.956 106.08C190.95 106.682 191.084 107.207 191.357 107.656C191.635 108.105 192.018 108.455 192.507 108.705C192.996 108.955 193.558 109.08 194.195 109.08ZM203.393 119V117.466L209.154 111.159C209.83 110.42 210.387 109.778 210.825 109.233C211.262 108.682 211.586 108.165 211.796 107.682C212.012 107.193 212.12 106.682 212.12 106.148C212.12 105.534 211.972 105.003 211.677 104.554C211.387 104.105 210.989 103.759 210.484 103.514C209.978 103.27 209.41 103.148 208.779 103.148C208.109 103.148 207.523 103.287 207.023 103.565C206.529 103.838 206.146 104.222 205.873 104.716C205.606 105.21 205.472 105.79 205.472 106.455H203.461C203.461 105.432 203.697 104.534 204.168 103.761C204.64 102.989 205.282 102.386 206.094 101.955C206.913 101.523 207.83 101.307 208.847 101.307C209.87 101.307 210.776 101.523 211.566 101.955C212.356 102.386 212.975 102.969 213.424 103.702C213.873 104.435 214.097 105.25 214.097 106.148C214.097 106.79 213.981 107.418 213.748 108.031C213.521 108.639 213.123 109.318 212.555 110.068C211.992 110.812 211.211 111.722 210.211 112.795L206.29 116.989V117.125H214.404V119H203.393ZM223.719 119.239C223.004 119.227 222.288 119.091 221.572 118.83C220.856 118.568 220.202 118.128 219.612 117.509C219.021 116.884 218.546 116.04 218.188 114.977C217.83 113.909 217.651 112.568 217.651 110.955C217.651 109.409 217.796 108.04 218.086 106.847C218.376 105.648 218.796 104.639 219.347 103.821C219.898 102.997 220.563 102.372 221.342 101.946C222.126 101.52 223.009 101.307 223.992 101.307C224.969 101.307 225.839 101.503 226.6 101.895C227.367 102.281 227.992 102.821 228.475 103.514C228.958 104.207 229.271 105.006 229.413 105.909H227.333C227.14 105.125 226.765 104.474 226.208 103.957C225.651 103.44 224.913 103.182 223.992 103.182C222.64 103.182 221.575 103.77 220.796 104.946C220.023 106.122 219.634 107.773 219.629 109.898H219.765C220.083 109.415 220.461 109.003 220.898 108.662C221.342 108.315 221.83 108.048 222.364 107.861C222.898 107.673 223.464 107.58 224.06 107.58C225.06 107.58 225.975 107.83 226.805 108.33C227.634 108.824 228.299 109.509 228.799 110.384C229.299 111.253 229.549 112.25 229.549 113.375C229.549 114.455 229.308 115.443 228.825 116.341C228.342 117.233 227.663 117.943 226.788 118.472C225.918 118.994 224.896 119.25 223.719 119.239ZM223.719 117.364C224.435 117.364 225.077 117.185 225.646 116.827C226.219 116.469 226.671 115.989 227.001 115.386C227.336 114.784 227.504 114.114 227.504 113.375C227.504 112.653 227.342 111.997 227.018 111.406C226.7 110.81 226.259 110.335 225.697 109.983C225.14 109.631 224.504 109.455 223.788 109.455C223.248 109.455 222.745 109.562 222.279 109.778C221.813 109.989 221.404 110.278 221.052 110.648C220.705 111.017 220.433 111.44 220.234 111.918C220.035 112.389 219.935 112.886 219.935 113.409C219.935 114.102 220.097 114.75 220.421 115.352C220.751 115.955 221.2 116.44 221.768 116.81C222.342 117.179 222.992 117.364 223.719 117.364Z" fill="black"/>
</svg>
