<svg width="500" height="160" viewBox="0 0 500 160" fill="none" xmlns="http://www.w3.org/2000/svg">
<rect width="500" height="160" rx="30" fill="#DCDCDC"/>
<path opacity="0.9" d="M47.5824 73V46.8182H64.6108V50.794H52.3253V57.902H63.7287V61.8778H52.3253V69.0241H64.7131V73H47.5824ZM81.147 58.0043V61.8139H69.3601V58.0043H81.147ZM86.2191 46.8182H92.0231L99.7958 65.7898H100.103L107.875 46.8182H113.679V73H109.128V55.0128H108.885L101.65 72.9233H98.2489L91.0131 54.9744H90.7702V73H86.2191V46.8182ZM124.29 73.3963C123.046 73.3963 121.925 73.1747 120.928 72.7315C119.939 72.2798 119.155 71.6151 118.576 70.7372C118.005 69.8594 117.719 68.777 117.719 67.4901C117.719 66.3821 117.924 65.4659 118.333 64.7415C118.742 64.017 119.3 63.4375 120.007 63.0028C120.715 62.5682 121.512 62.2401 122.398 62.0185C123.293 61.7884 124.218 61.6222 125.172 61.5199C126.323 61.4006 127.256 61.294 127.972 61.2003C128.688 61.098 129.208 60.9446 129.532 60.7401C129.864 60.527 130.03 60.1989 130.03 59.7557V59.679C130.03 58.7159 129.745 57.9702 129.174 57.4418C128.603 56.9134 127.78 56.6491 126.706 56.6491C125.573 56.6491 124.674 56.8963 124.009 57.3906C123.353 57.8849 122.909 58.4687 122.679 59.142L118.358 58.5284C118.699 57.3352 119.262 56.3381 120.046 55.5369C120.83 54.7273 121.789 54.1222 122.922 53.7216C124.056 53.3125 125.309 53.108 126.681 53.108C127.627 53.108 128.569 53.2188 129.506 53.4403C130.444 53.6619 131.3 54.0284 132.076 54.5398C132.851 55.0426 133.473 55.7287 133.942 56.598C134.419 57.4673 134.658 58.554 134.658 59.858V73H130.209V70.3026H130.056C129.775 70.848 129.378 71.3594 128.867 71.8366C128.364 72.3054 127.729 72.6847 126.962 72.9744C126.203 73.2557 125.313 73.3963 124.29 73.3963ZM125.492 69.9957C126.421 69.9957 127.226 69.8125 127.908 69.446C128.59 69.071 129.114 68.5767 129.48 67.9631C129.855 67.3494 130.043 66.6804 130.043 65.956V63.642C129.898 63.7614 129.651 63.8722 129.301 63.9744C128.961 64.0767 128.577 64.1662 128.151 64.2429C127.725 64.3196 127.303 64.3878 126.885 64.4474C126.468 64.5071 126.105 64.5582 125.799 64.6009C125.108 64.6946 124.49 64.848 123.945 65.0611C123.4 65.2741 122.969 65.5724 122.654 65.956C122.338 66.331 122.181 66.8168 122.181 67.4134C122.181 68.2656 122.492 68.9091 123.114 69.3438C123.736 69.7784 124.529 69.9957 125.492 69.9957ZM139.311 73V53.3636H143.939V73H139.311ZM141.638 50.5767C140.905 50.5767 140.275 50.3338 139.746 49.848C139.218 49.3537 138.953 48.7614 138.953 48.071C138.953 47.3722 139.218 46.7798 139.746 46.294C140.275 45.7997 140.905 45.5526 141.638 45.5526C142.38 45.5526 143.01 45.7997 143.53 46.294C144.059 46.7798 144.323 47.3722 144.323 48.071C144.323 48.7614 144.059 49.3537 143.53 49.848C143.01 50.3338 142.38 50.5767 141.638 50.5767ZM153.326 46.8182V73H148.698V46.8182H153.326Z" fill="#2D2D2D"/>
<path d="M46.8409 123.909V105.909H48.7841V107.989H49.0227C49.1705 107.761 49.375 107.472 49.6364 107.119C49.9034 106.761 50.2841 106.443 50.7784 106.165C51.2784 105.881 51.9545 105.739 52.8068 105.739C53.9091 105.739 54.8807 106.014 55.7216 106.565C56.5625 107.116 57.2188 107.898 57.6903 108.909C58.1619 109.92 58.3977 111.114 58.3977 112.489C58.3977 113.875 58.1619 115.077 57.6903 116.094C57.2188 117.105 56.5653 117.889 55.7301 118.446C54.8949 118.997 53.9318 119.273 52.8409 119.273C52 119.273 51.3267 119.134 50.821 118.855C50.3153 118.571 49.9261 118.25 49.6534 117.892C49.3807 117.528 49.1705 117.227 49.0227 116.989H48.8523V123.909H46.8409ZM48.8182 112.455C48.8182 113.443 48.9631 114.315 49.2528 115.071C49.5426 115.821 49.9659 116.409 50.5227 116.835C51.0795 117.256 51.7614 117.466 52.5682 117.466C53.4091 117.466 54.1108 117.244 54.6733 116.801C55.2415 116.352 55.6676 115.75 55.9517 114.994C56.2415 114.233 56.3864 113.386 56.3864 112.455C56.3864 111.534 56.2443 110.705 55.9602 109.966C55.6818 109.222 55.2585 108.634 54.6903 108.202C54.1278 107.764 53.4205 107.545 52.5682 107.545C51.75 107.545 51.0625 107.753 50.5057 108.168C49.9489 108.577 49.5284 109.151 49.2443 109.889C48.9602 110.622 48.8182 111.477 48.8182 112.455ZM65.3182 119.307C64.4886 119.307 63.7358 119.151 63.0597 118.838C62.3835 118.52 61.8466 118.062 61.4489 117.466C61.0511 116.864 60.8523 116.136 60.8523 115.284C60.8523 114.534 61 113.926 61.2955 113.46C61.5909 112.989 61.9858 112.619 62.4801 112.352C62.9744 112.085 63.5199 111.886 64.1165 111.756C64.7188 111.619 65.3239 111.511 65.9318 111.432C66.7273 111.33 67.3722 111.253 67.8665 111.202C68.3665 111.145 68.7301 111.051 68.9574 110.92C69.1903 110.79 69.3068 110.562 69.3068 110.239V110.17C69.3068 109.33 69.0767 108.676 68.6165 108.21C68.1619 107.744 67.4716 107.511 66.5455 107.511C65.5852 107.511 64.8324 107.722 64.2869 108.142C63.7415 108.562 63.358 109.011 63.1364 109.489L61.2273 108.807C61.5682 108.011 62.0227 107.392 62.5909 106.949C63.1648 106.5 63.7898 106.187 64.4659 106.011C65.1477 105.83 65.8182 105.739 66.4773 105.739C66.8977 105.739 67.3807 105.79 67.9261 105.892C68.4773 105.989 69.0085 106.19 69.5199 106.497C70.0369 106.804 70.4659 107.267 70.8068 107.886C71.1477 108.506 71.3182 109.335 71.3182 110.375V119H69.3068V117.227H69.2045C69.0682 117.511 68.8409 117.815 68.5227 118.139C68.2045 118.463 67.7813 118.739 67.2528 118.966C66.7244 119.193 66.0795 119.307 65.3182 119.307ZM65.625 117.5C66.4205 117.5 67.0909 117.344 67.6364 117.031C68.1875 116.719 68.6023 116.315 68.8807 115.821C69.1648 115.327 69.3068 114.807 69.3068 114.261V112.42C69.2216 112.523 69.0341 112.616 68.7443 112.702C68.4602 112.781 68.1307 112.852 67.7557 112.915C67.3864 112.972 67.0256 113.023 66.6733 113.068C66.3267 113.108 66.0455 113.142 65.8295 113.17C65.3068 113.239 64.8182 113.349 64.3636 113.503C63.9148 113.651 63.5511 113.875 63.2727 114.176C63 114.472 62.8636 114.875 62.8636 115.386C62.8636 116.085 63.1222 116.614 63.6392 116.972C64.1619 117.324 64.8239 117.5 65.625 117.5ZM77.0007 111.125V119H74.9893V105.909H76.9325V107.955H77.103C77.4098 107.29 77.8757 106.756 78.5007 106.352C79.1257 105.943 79.9325 105.739 80.9212 105.739C81.8075 105.739 82.5831 105.92 83.2479 106.284C83.9126 106.642 84.4297 107.188 84.799 107.92C85.1683 108.648 85.353 109.568 85.353 110.682V119H83.3416V110.818C83.3416 109.79 83.0746 108.989 82.5405 108.415C82.0064 107.835 81.2734 107.545 80.3416 107.545C79.6996 107.545 79.1257 107.685 78.62 107.963C78.12 108.241 77.7251 108.648 77.4354 109.182C77.1456 109.716 77.0007 110.364 77.0007 111.125ZM94.5511 101.307C95.267 101.312 95.983 101.449 96.6989 101.716C97.4148 101.983 98.0682 102.426 98.6591 103.045C99.25 103.659 99.7244 104.497 100.082 105.56C100.44 106.622 100.619 107.955 100.619 109.557C100.619 111.108 100.472 112.486 100.176 113.69C99.8864 114.889 99.4659 115.901 98.9148 116.724C98.3693 117.548 97.7045 118.173 96.9205 118.599C96.142 119.026 95.2614 119.239 94.2784 119.239C93.3011 119.239 92.429 119.045 91.6619 118.659C90.9006 118.267 90.2756 117.724 89.7869 117.031C89.304 116.332 88.9943 115.523 88.858 114.602H90.9375C91.125 115.403 91.4972 116.065 92.054 116.588C92.6165 117.105 93.358 117.364 94.2784 117.364C95.625 117.364 96.6875 116.776 97.4659 115.599C98.25 114.423 98.642 112.761 98.642 110.614H98.5057C98.1875 111.091 97.8097 111.503 97.3722 111.849C96.9347 112.196 96.4489 112.463 95.9148 112.651C95.3807 112.838 94.8125 112.932 94.2102 112.932C93.2102 112.932 92.2926 112.685 91.4574 112.19C90.6278 111.69 89.9631 111.006 89.4631 110.136C88.9688 109.261 88.7216 108.261 88.7216 107.136C88.7216 106.068 88.9602 105.091 89.4375 104.205C89.9205 103.312 90.5966 102.602 91.4659 102.074C92.3409 101.545 93.3693 101.29 94.5511 101.307ZM94.5511 103.182C93.8352 103.182 93.1903 103.361 92.6165 103.719C92.0483 104.071 91.5966 104.548 91.2614 105.151C90.9318 105.747 90.767 106.409 90.767 107.136C90.767 107.864 90.9261 108.526 91.2443 109.122C91.5682 109.713 92.0085 110.185 92.5653 110.537C93.1278 110.884 93.767 111.057 94.483 111.057C95.0227 111.057 95.5256 110.952 95.9915 110.741C96.4574 110.526 96.8636 110.233 97.2102 109.864C97.5625 109.489 97.8381 109.065 98.0369 108.594C98.2358 108.116 98.3352 107.619 98.3352 107.102C98.3352 106.42 98.1705 105.781 97.8409 105.185C97.517 104.588 97.0682 104.105 96.4943 103.736C95.9261 103.366 95.2784 103.182 94.5511 103.182ZM109.869 119.239C108.744 119.239 107.741 119.045 106.86 118.659C105.985 118.273 105.289 117.736 104.772 117.048C104.261 116.355 103.982 115.551 103.937 114.636H106.085C106.13 115.199 106.323 115.685 106.664 116.094C107.005 116.497 107.451 116.81 108.002 117.031C108.553 117.253 109.164 117.364 109.835 117.364C110.585 117.364 111.249 117.233 111.829 116.972C112.408 116.71 112.863 116.347 113.192 115.881C113.522 115.415 113.687 114.875 113.687 114.261C113.687 113.619 113.528 113.054 113.21 112.565C112.891 112.071 112.425 111.685 111.812 111.406C111.198 111.128 110.448 110.989 109.562 110.989H108.164V109.114H109.562C110.255 109.114 110.863 108.989 111.386 108.739C111.914 108.489 112.326 108.136 112.621 107.682C112.923 107.227 113.073 106.693 113.073 106.08C113.073 105.489 112.942 104.974 112.681 104.537C112.42 104.099 112.05 103.759 111.573 103.514C111.102 103.27 110.545 103.148 109.903 103.148C109.3 103.148 108.732 103.259 108.198 103.48C107.67 103.696 107.238 104.011 106.903 104.426C106.567 104.835 106.386 105.33 106.357 105.909H104.312C104.346 104.994 104.621 104.193 105.138 103.506C105.656 102.812 106.332 102.273 107.167 101.886C108.008 101.5 108.931 101.307 109.937 101.307C111.016 101.307 111.942 101.526 112.715 101.963C113.488 102.395 114.082 102.966 114.496 103.676C114.911 104.386 115.119 105.153 115.119 105.977C115.119 106.96 114.86 107.798 114.343 108.491C113.832 109.185 113.136 109.665 112.255 109.932V110.068C113.357 110.25 114.218 110.719 114.837 111.474C115.457 112.224 115.766 113.153 115.766 114.261C115.766 115.21 115.508 116.062 114.991 116.818C114.479 117.568 113.781 118.159 112.894 118.591C112.008 119.023 110.999 119.239 109.869 119.239ZM118.843 115.42V113.682L126.513 101.545H127.775V104.239H126.923L121.127 113.409V113.545H131.457V115.42H118.843ZM127.059 119V114.892V114.082V101.545H129.07V119H127.059ZM140.553 101.545V119H138.439V103.761H138.337L134.075 106.591V104.443L138.439 101.545H140.553ZM145.572 119V117.466L151.334 111.159C152.01 110.42 152.567 109.778 153.004 109.233C153.442 108.682 153.766 108.165 153.976 107.682C154.192 107.193 154.3 106.682 154.3 106.148C154.3 105.534 154.152 105.003 153.857 104.554C153.567 104.105 153.169 103.759 152.663 103.514C152.158 103.27 151.589 103.148 150.959 103.148C150.288 103.148 149.703 103.287 149.203 103.565C148.709 103.838 148.325 104.222 148.053 104.716C147.786 105.21 147.652 105.79 147.652 106.455H145.641C145.641 105.432 145.876 104.534 146.348 103.761C146.82 102.989 147.462 102.386 148.274 101.955C149.092 101.523 150.01 101.307 151.027 101.307C152.05 101.307 152.956 101.523 153.746 101.955C154.536 102.386 155.155 102.969 155.604 103.702C156.053 104.435 156.277 105.25 156.277 106.148C156.277 106.79 156.161 107.418 155.928 108.031C155.7 108.639 155.303 109.318 154.734 110.068C154.172 110.812 153.391 111.722 152.391 112.795L148.47 116.989V117.125H156.584V119H145.572ZM170.195 123.602C168.456 123.602 166.919 123.364 165.584 122.886C164.249 122.415 163.126 121.719 162.217 120.798C161.308 119.878 160.621 118.75 160.155 117.415C159.689 116.08 159.456 114.551 159.456 112.83C159.456 111.165 159.692 109.676 160.163 108.364C160.641 107.051 161.331 105.938 162.234 105.023C163.143 104.102 164.246 103.401 165.541 102.918C166.842 102.435 168.314 102.193 169.956 102.193C171.553 102.193 172.95 102.455 174.149 102.977C175.354 103.494 176.359 104.196 177.166 105.082C177.979 105.963 178.587 106.955 178.99 108.057C179.399 109.159 179.604 110.295 179.604 111.466C179.604 112.29 179.564 113.125 179.484 113.972C179.405 114.818 179.237 115.597 178.982 116.307C178.726 117.011 178.331 117.58 177.797 118.011C177.268 118.443 176.553 118.659 175.649 118.659C175.251 118.659 174.814 118.597 174.337 118.472C173.859 118.347 173.436 118.139 173.067 117.849C172.697 117.56 172.479 117.17 172.411 116.682H172.308C172.172 117.011 171.962 117.324 171.678 117.619C171.399 117.915 171.033 118.151 170.578 118.327C170.129 118.503 169.581 118.58 168.933 118.557C168.195 118.528 167.544 118.364 166.982 118.062C166.419 117.756 165.947 117.341 165.567 116.818C165.192 116.29 164.908 115.679 164.714 114.986C164.527 114.287 164.433 113.534 164.433 112.727C164.433 111.96 164.547 111.259 164.774 110.622C165.001 109.986 165.317 109.429 165.72 108.952C166.129 108.474 166.607 108.094 167.152 107.81C167.703 107.52 168.297 107.341 168.933 107.273C169.501 107.216 170.018 107.241 170.484 107.349C170.95 107.452 171.334 107.608 171.635 107.818C171.936 108.023 172.126 108.25 172.206 108.5H172.308V107.545H174.115V115.25C174.115 115.727 174.249 116.148 174.516 116.511C174.783 116.875 175.172 117.057 175.683 117.057C176.263 117.057 176.706 116.858 177.013 116.46C177.325 116.062 177.538 115.449 177.652 114.619C177.771 113.79 177.831 112.727 177.831 111.432C177.831 110.67 177.726 109.92 177.516 109.182C177.311 108.437 176.999 107.741 176.578 107.094C176.163 106.446 175.638 105.875 175.001 105.381C174.365 104.886 173.618 104.5 172.76 104.222C171.908 103.937 170.939 103.795 169.854 103.795C168.518 103.795 167.322 104.003 166.266 104.418C165.214 104.827 164.32 105.426 163.581 106.216C162.848 107 162.288 107.955 161.902 109.08C161.521 110.199 161.331 111.472 161.331 112.898C161.331 114.347 161.521 115.634 161.902 116.759C162.288 117.884 162.857 118.832 163.607 119.605C164.362 120.378 165.297 120.963 166.411 121.361C167.524 121.764 168.808 121.966 170.263 121.966C170.888 121.966 171.504 121.906 172.112 121.787C172.72 121.668 173.257 121.537 173.723 121.395C174.189 121.253 174.524 121.148 174.729 121.08L175.206 122.648C174.854 122.795 174.393 122.943 173.825 123.091C173.263 123.239 172.661 123.361 172.018 123.457C171.382 123.554 170.774 123.602 170.195 123.602ZM169.206 116.818C169.967 116.818 170.584 116.665 171.055 116.358C171.527 116.051 171.871 115.588 172.087 114.969C172.303 114.349 172.411 113.568 172.411 112.625C172.411 111.67 172.291 110.926 172.053 110.392C171.814 109.858 171.462 109.483 170.996 109.267C170.53 109.051 169.956 108.943 169.274 108.943C168.626 108.943 168.072 109.114 167.612 109.455C167.158 109.79 166.808 110.239 166.564 110.801C166.325 111.358 166.206 111.966 166.206 112.625C166.206 113.352 166.303 114.037 166.496 114.679C166.689 115.315 167.004 115.832 167.442 116.23C167.879 116.622 168.467 116.818 169.206 116.818ZM187.898 124.182C186.927 124.182 186.092 124.057 185.393 123.807C184.694 123.562 184.112 123.239 183.646 122.835C183.185 122.438 182.819 122.011 182.546 121.557L184.148 120.432C184.33 120.67 184.56 120.943 184.839 121.25C185.117 121.562 185.498 121.832 185.981 122.06C186.469 122.293 187.109 122.409 187.898 122.409C188.955 122.409 189.827 122.153 190.515 121.642C191.202 121.131 191.546 120.33 191.546 119.239V116.58H191.376C191.228 116.818 191.018 117.114 190.745 117.466C190.478 117.812 190.092 118.122 189.586 118.395C189.086 118.662 188.41 118.795 187.558 118.795C186.501 118.795 185.552 118.545 184.711 118.045C183.876 117.545 183.214 116.818 182.725 115.864C182.242 114.909 182.001 113.75 182.001 112.386C182.001 111.045 182.237 109.878 182.708 108.884C183.18 107.884 183.836 107.111 184.677 106.565C185.518 106.014 186.489 105.739 187.592 105.739C188.444 105.739 189.12 105.881 189.62 106.165C190.126 106.443 190.512 106.761 190.779 107.119C191.052 107.472 191.262 107.761 191.41 107.989H191.614V105.909H193.558V119.375C193.558 120.5 193.302 121.415 192.79 122.119C192.285 122.83 191.603 123.349 190.745 123.679C189.893 124.014 188.944 124.182 187.898 124.182ZM187.83 116.989C188.637 116.989 189.319 116.804 189.876 116.435C190.433 116.065 190.856 115.534 191.146 114.841C191.435 114.148 191.58 113.318 191.58 112.352C191.58 111.409 191.438 110.577 191.154 109.855C190.87 109.134 190.45 108.568 189.893 108.159C189.336 107.75 188.648 107.545 187.83 107.545C186.978 107.545 186.268 107.761 185.7 108.193C185.137 108.625 184.714 109.205 184.43 109.932C184.151 110.659 184.012 111.466 184.012 112.352C184.012 113.261 184.154 114.065 184.438 114.764C184.728 115.457 185.154 116.003 185.717 116.401C186.285 116.793 186.989 116.989 187.83 116.989ZM197.239 119V105.909H199.183V107.955H199.353C199.626 107.256 200.066 106.713 200.674 106.327C201.282 105.935 202.012 105.739 202.864 105.739C203.728 105.739 204.447 105.935 205.021 106.327C205.6 106.713 206.052 107.256 206.376 107.955H206.512C206.847 107.278 207.35 106.741 208.021 106.344C208.691 105.94 209.495 105.739 210.433 105.739C211.603 105.739 212.56 106.105 213.305 106.838C214.049 107.565 214.421 108.699 214.421 110.239V119H212.41V110.239C212.41 109.273 212.146 108.582 211.617 108.168C211.089 107.753 210.467 107.545 209.751 107.545C208.83 107.545 208.117 107.824 207.612 108.381C207.106 108.932 206.853 109.631 206.853 110.477V119H204.808V110.034C204.808 109.29 204.566 108.69 204.083 108.236C203.6 107.776 202.978 107.545 202.217 107.545C201.694 107.545 201.205 107.685 200.751 107.963C200.302 108.241 199.938 108.628 199.66 109.122C199.387 109.611 199.251 110.176 199.251 110.818V119H197.239ZM221.951 119.307C221.121 119.307 220.369 119.151 219.692 118.838C219.016 118.52 218.479 118.062 218.082 117.466C217.684 116.864 217.485 116.136 217.485 115.284C217.485 114.534 217.633 113.926 217.928 113.46C218.224 112.989 218.619 112.619 219.113 112.352C219.607 112.085 220.153 111.886 220.749 111.756C221.352 111.619 221.957 111.511 222.565 111.432C223.36 111.33 224.005 111.253 224.499 111.202C224.999 111.145 225.363 111.051 225.59 110.92C225.823 110.79 225.94 110.562 225.94 110.239V110.17C225.94 109.33 225.71 108.676 225.249 108.21C224.795 107.744 224.104 107.511 223.178 107.511C222.218 107.511 221.465 107.722 220.92 108.142C220.374 108.562 219.991 109.011 219.769 109.489L217.86 108.807C218.201 108.011 218.656 107.392 219.224 106.949C219.798 106.5 220.423 106.187 221.099 106.011C221.781 105.83 222.451 105.739 223.11 105.739C223.531 105.739 224.013 105.79 224.559 105.892C225.11 105.989 225.641 106.19 226.153 106.497C226.67 106.804 227.099 107.267 227.44 107.886C227.781 108.506 227.951 109.335 227.951 110.375V119H225.94V117.227H225.837C225.701 117.511 225.474 117.815 225.156 118.139C224.837 118.463 224.414 118.739 223.886 118.966C223.357 119.193 222.712 119.307 221.951 119.307ZM222.258 117.5C223.053 117.5 223.724 117.344 224.269 117.031C224.82 116.719 225.235 116.315 225.513 115.821C225.798 115.327 225.94 114.807 225.94 114.261V112.42C225.854 112.523 225.667 112.616 225.377 112.702C225.093 112.781 224.763 112.852 224.388 112.915C224.019 112.972 223.658 113.023 223.306 113.068C222.96 113.108 222.678 113.142 222.462 113.17C221.94 113.239 221.451 113.349 220.996 113.503C220.548 113.651 220.184 113.875 219.906 114.176C219.633 114.472 219.496 114.875 219.496 115.386C219.496 116.085 219.755 116.614 220.272 116.972C220.795 117.324 221.457 117.5 222.258 117.5ZM231.622 119V105.909H233.634V119H231.622ZM232.645 103.727C232.253 103.727 231.915 103.594 231.631 103.327C231.352 103.06 231.213 102.739 231.213 102.364C231.213 101.989 231.352 101.668 231.631 101.401C231.915 101.134 232.253 101 232.645 101C233.037 101 233.372 101.134 233.651 101.401C233.935 101.668 234.077 101.989 234.077 102.364C234.077 102.739 233.935 103.06 233.651 103.327C233.372 103.594 233.037 103.727 232.645 103.727ZM239.329 101.545V119H237.317V101.545H239.329ZM244.479 119.136C244.058 119.136 243.697 118.986 243.396 118.685C243.095 118.384 242.945 118.023 242.945 117.602C242.945 117.182 243.095 116.821 243.396 116.52C243.697 116.219 244.058 116.068 244.479 116.068C244.899 116.068 245.26 116.219 245.561 116.52C245.862 116.821 246.013 117.182 246.013 117.602C246.013 117.881 245.942 118.136 245.8 118.369C245.663 118.602 245.479 118.79 245.246 118.932C245.018 119.068 244.763 119.136 244.479 119.136ZM254.94 119.273C253.713 119.273 252.656 118.983 251.77 118.403C250.884 117.824 250.202 117.026 249.724 116.009C249.247 114.991 249.009 113.83 249.009 112.523C249.009 111.193 249.253 110.02 249.741 109.003C250.236 107.98 250.923 107.182 251.804 106.608C252.69 106.028 253.724 105.739 254.906 105.739C255.827 105.739 256.656 105.909 257.395 106.25C258.134 106.591 258.739 107.068 259.21 107.682C259.682 108.295 259.974 109.011 260.088 109.83H258.077C257.923 109.233 257.582 108.705 257.054 108.244C256.531 107.778 255.827 107.545 254.94 107.545C254.156 107.545 253.469 107.75 252.878 108.159C252.293 108.562 251.835 109.134 251.506 109.872C251.182 110.605 251.02 111.466 251.02 112.455C251.02 113.466 251.179 114.347 251.497 115.097C251.821 115.847 252.276 116.429 252.861 116.844C253.452 117.259 254.145 117.466 254.94 117.466C255.463 117.466 255.938 117.375 256.364 117.193C256.79 117.011 257.151 116.75 257.446 116.409C257.741 116.068 257.952 115.659 258.077 115.182H260.088C259.974 115.955 259.693 116.651 259.244 117.27C258.801 117.884 258.213 118.372 257.48 118.736C256.753 119.094 255.906 119.273 254.94 119.273ZM268.347 119.273C267.165 119.273 266.128 118.991 265.236 118.429C264.349 117.866 263.656 117.08 263.156 116.068C262.662 115.057 262.415 113.875 262.415 112.523C262.415 111.159 262.662 109.969 263.156 108.952C263.656 107.935 264.349 107.145 265.236 106.582C266.128 106.02 267.165 105.739 268.347 105.739C269.528 105.739 270.563 106.02 271.449 106.582C272.341 107.145 273.034 107.935 273.528 108.952C274.028 109.969 274.278 111.159 274.278 112.523C274.278 113.875 274.028 115.057 273.528 116.068C273.034 117.08 272.341 117.866 271.449 118.429C270.563 118.991 269.528 119.273 268.347 119.273ZM268.347 117.466C269.244 117.466 269.983 117.236 270.562 116.776C271.142 116.315 271.571 115.71 271.849 114.96C272.128 114.21 272.267 113.398 272.267 112.523C272.267 111.648 272.128 110.832 271.849 110.077C271.571 109.321 271.142 108.71 270.562 108.244C269.983 107.778 269.244 107.545 268.347 107.545C267.449 107.545 266.71 107.778 266.131 108.244C265.551 108.71 265.122 109.321 264.844 110.077C264.565 110.832 264.426 111.648 264.426 112.523C264.426 113.398 264.565 114.21 264.844 114.96C265.122 115.71 265.551 116.315 266.131 116.776C266.71 117.236 267.449 117.466 268.347 117.466ZM277.349 119V105.909H279.292V107.955H279.462C279.735 107.256 280.175 106.713 280.783 106.327C281.391 105.935 282.121 105.739 282.974 105.739C283.837 105.739 284.556 105.935 285.13 106.327C285.71 106.713 286.161 107.256 286.485 107.955H286.621C286.957 107.278 287.46 106.741 288.13 106.344C288.8 105.94 289.604 105.739 290.542 105.739C291.712 105.739 292.67 106.105 293.414 106.838C294.158 107.565 294.531 108.699 294.531 110.239V119H292.519V110.239C292.519 109.273 292.255 108.582 291.727 108.168C291.198 107.753 290.576 107.545 289.86 107.545C288.94 107.545 288.227 107.824 287.721 108.381C287.215 108.932 286.962 109.631 286.962 110.477V119H284.917V110.034C284.917 109.29 284.675 108.69 284.192 108.236C283.71 107.776 283.087 107.545 282.326 107.545C281.803 107.545 281.315 107.685 280.86 107.963C280.411 108.241 280.048 108.628 279.769 109.122C279.496 109.611 279.36 110.176 279.36 110.818V119H277.349Z" fill="black"/>
</svg>
