<svg width="500" height="160" viewBox="0 0 500 160" fill="none" xmlns="http://www.w3.org/2000/svg">
<rect width="500" height="160" rx="30" fill="white"/>
<rect width="500" height="160" rx="30" fill="#1877F2" fill-opacity="0.2"/>
<g opacity="0.9">
<path d="M47.5824 73V46.8182H64.3551V50.794H52.3253V57.902H63.2045V61.8778H52.3253V73H47.5824ZM73.9464 73.3963C72.7021 73.3963 71.5813 73.1747 70.5842 72.7315C69.5955 72.2798 68.8114 71.6151 68.2319 70.7372C67.6609 69.8594 67.3754 68.777 67.3754 67.4901C67.3754 66.3821 67.5799 65.4659 67.989 64.7415C68.3981 64.017 68.9563 63.4375 69.6637 63.0028C70.3711 62.5682 71.168 62.2401 72.0543 62.0185C72.9492 61.7884 73.8739 61.6222 74.8285 61.5199C75.979 61.4006 76.9123 61.294 77.6282 61.2003C78.3441 61.098 78.864 60.9446 79.1879 60.7401C79.5202 60.527 79.6864 60.1989 79.6864 59.7557V59.679C79.6864 58.7159 79.4009 57.9702 78.8299 57.4418C78.2589 56.9134 77.4364 56.6491 76.3626 56.6491C75.229 56.6491 74.3299 56.8963 73.6651 57.3906C73.0089 57.8849 72.5657 58.4687 72.3356 59.142L68.0146 58.5284C68.3555 57.3352 68.918 56.3381 69.7021 55.5369C70.4862 54.7273 71.445 54.1222 72.5785 53.7216C73.712 53.3125 74.9648 53.108 76.337 53.108C77.283 53.108 78.2248 53.2188 79.1623 53.4403C80.0998 53.6619 80.9563 54.0284 81.7319 54.5398C82.5075 55.0426 83.1296 55.7287 83.5984 56.598C84.0756 57.4673 84.3143 58.554 84.3143 59.858V73H79.8654V70.3026H79.712C79.4308 70.848 79.0344 71.3594 78.5231 71.8366C78.0202 72.3054 77.3853 72.6847 76.6183 72.9744C75.8597 73.2557 74.9691 73.3963 73.9464 73.3963ZM75.1481 69.9957C76.0771 69.9957 76.8825 69.8125 77.5643 69.446C78.2461 69.071 78.7702 68.5767 79.1367 67.9631C79.5117 67.3494 79.6992 66.6804 79.6992 65.956V63.642C79.5543 63.7614 79.3072 63.8722 78.9577 63.9744C78.6168 64.0767 78.2333 64.1662 77.8072 64.2429C77.381 64.3196 76.9592 64.3878 76.5415 64.4474C76.1239 64.5071 75.7617 64.5582 75.4549 64.6009C74.7646 64.6946 74.1467 64.848 73.6012 65.0611C73.0558 65.2741 72.6254 65.5724 72.31 65.956C71.9947 66.331 71.837 66.8168 71.837 67.4134C71.837 68.2656 72.1481 68.9091 72.7702 69.3438C73.3924 69.7784 74.185 69.9957 75.1481 69.9957ZM97.533 73.3835C95.5728 73.3835 93.8896 72.9531 92.4833 72.0923C91.0856 71.2315 90.0075 70.0426 89.2489 68.5256C88.4989 67 88.1239 65.2443 88.1239 63.2585C88.1239 61.2642 88.5075 59.5043 89.2745 57.9787C90.0415 56.4446 91.1239 55.2514 92.5217 54.3991C93.9279 53.5384 95.5898 53.108 97.5075 53.108C99.1012 53.108 100.512 53.402 101.739 53.9901C102.975 54.5696 103.959 55.392 104.692 56.4574C105.425 57.5142 105.843 58.75 105.945 60.1648H101.522C101.343 59.2187 100.917 58.4304 100.243 57.7997C99.5785 57.1605 98.6879 56.8409 97.5714 56.8409C96.6254 56.8409 95.7944 57.0966 95.0785 57.608C94.3626 58.1108 93.8043 58.8352 93.4038 59.7812C93.0117 60.7273 92.8157 61.8608 92.8157 63.1818C92.8157 64.5199 93.0117 65.6705 93.4038 66.6335C93.7958 67.5881 94.3455 68.3253 95.0529 68.8452C95.7688 69.3565 96.6083 69.6122 97.5714 69.6122C98.2532 69.6122 98.8626 69.4844 99.3995 69.2287C99.945 68.9645 100.401 68.5852 100.767 68.0909C101.134 67.5966 101.385 66.9957 101.522 66.2884H105.945C105.834 67.6776 105.425 68.9091 104.718 69.983C104.01 71.0483 103.047 71.8835 101.828 72.4886C100.61 73.0852 99.1779 73.3835 97.533 73.3835ZM118.438 73.3835C116.469 73.3835 114.769 72.9744 113.337 72.1562C111.914 71.3295 110.819 70.1619 110.052 68.6534C109.285 67.1364 108.901 65.3509 108.901 63.2969C108.901 61.277 109.285 59.5043 110.052 57.9787C110.827 56.4446 111.91 55.2514 113.299 54.3991C114.688 53.5384 116.32 53.108 118.195 53.108C119.406 53.108 120.548 53.304 121.621 53.696C122.704 54.0795 123.658 54.6761 124.485 55.4858C125.32 56.2955 125.977 57.3267 126.454 58.5795C126.931 59.8239 127.17 61.3068 127.17 63.0284V64.4474H111.075V61.3281H122.734C122.725 60.4418 122.533 59.6534 122.158 58.9631C121.783 58.2642 121.259 57.7145 120.586 57.3139C119.921 56.9134 119.146 56.7131 118.259 56.7131C117.313 56.7131 116.482 56.9432 115.766 57.4034C115.05 57.8551 114.492 58.4517 114.092 59.1932C113.7 59.9261 113.499 60.7315 113.491 61.6094V64.3324C113.491 65.4744 113.7 66.4545 114.117 67.2727C114.535 68.0824 115.119 68.7045 115.869 69.1392C116.619 69.5653 117.496 69.7784 118.502 69.7784C119.175 69.7784 119.785 69.6847 120.33 69.4972C120.876 69.3011 121.349 69.0156 121.749 68.6406C122.15 68.2656 122.452 67.8011 122.657 67.2472L126.978 67.733C126.705 68.875 126.185 69.8722 125.418 70.7244C124.66 71.5682 123.688 72.2244 122.504 72.6932C121.319 73.1534 119.964 73.3835 118.438 73.3835ZM131.289 73V46.8182H135.917V56.6108H136.109C136.348 56.1335 136.684 55.6264 137.119 55.0895C137.554 54.544 138.142 54.0795 138.883 53.696C139.625 53.304 140.571 53.108 141.721 53.108C143.238 53.108 144.606 53.4957 145.825 54.2713C147.052 55.0384 148.024 56.1761 148.74 57.6847C149.464 59.1847 149.826 61.0256 149.826 63.2074C149.826 65.3636 149.473 67.196 148.765 68.7045C148.058 70.2131 147.095 71.3636 145.876 72.1562C144.657 72.9489 143.277 73.3452 141.734 73.3452C140.609 73.3452 139.676 73.1577 138.934 72.7827C138.193 72.4077 137.596 71.956 137.145 71.4276C136.701 70.8906 136.356 70.3835 136.109 69.9062H135.841V73H131.289ZM135.828 63.1818C135.828 64.4517 136.007 65.5639 136.365 66.5185C136.731 67.473 137.255 68.2187 137.937 68.7557C138.627 69.2841 139.463 69.5483 140.443 69.5483C141.466 69.5483 142.322 69.2756 143.012 68.7301C143.703 68.1761 144.223 67.4219 144.572 66.4673C144.93 65.5043 145.109 64.4091 145.109 63.1818C145.109 61.9631 144.934 60.8807 144.585 59.9347C144.235 58.9886 143.716 58.2472 143.025 57.7102C142.335 57.1733 141.474 56.9048 140.443 56.9048C139.454 56.9048 138.615 57.1648 137.924 57.6847C137.234 58.2045 136.71 58.9332 136.352 59.8707C136.002 60.8082 135.828 61.9119 135.828 63.1818ZM162.326 73.3835C160.408 73.3835 158.746 72.9616 157.34 72.1179C155.934 71.2741 154.843 70.0937 154.067 68.5767C153.3 67.0597 152.917 65.2869 152.917 63.2585C152.917 61.2301 153.3 59.4531 154.067 57.9276C154.843 56.402 155.934 55.2173 157.34 54.3736C158.746 53.5298 160.408 53.108 162.326 53.108C164.244 53.108 165.906 53.5298 167.312 54.3736C168.718 55.2173 169.805 56.402 170.572 57.9276C171.347 59.4531 171.735 61.2301 171.735 63.2585C171.735 65.2869 171.347 67.0597 170.572 68.5767C169.805 70.0937 168.718 71.2741 167.312 72.1179C165.906 72.9616 164.244 73.3835 162.326 73.3835ZM162.352 69.6761C163.391 69.6761 164.261 69.3906 164.96 68.8196C165.658 68.2401 166.178 67.4645 166.519 66.4929C166.869 65.5213 167.043 64.4389 167.043 63.2457C167.043 62.044 166.869 60.9574 166.519 59.9858C166.178 59.0057 165.658 58.2259 164.96 57.6463C164.261 57.0668 163.391 56.777 162.352 56.777C161.286 56.777 160.4 57.0668 159.692 57.6463C158.994 58.2259 158.469 59.0057 158.12 59.9858C157.779 60.9574 157.609 62.044 157.609 63.2457C157.609 64.4389 157.779 65.5213 158.12 66.4929C158.469 67.4645 158.994 68.2401 159.692 68.8196C160.4 69.3906 161.286 69.6761 162.352 69.6761ZM184.228 73.3835C182.311 73.3835 180.649 72.9616 179.243 72.1179C177.836 71.2741 176.745 70.0937 175.97 68.5767C175.203 67.0597 174.819 65.2869 174.819 63.2585C174.819 61.2301 175.203 59.4531 175.97 57.9276C176.745 56.402 177.836 55.2173 179.243 54.3736C180.649 53.5298 182.311 53.108 184.228 53.108C186.146 53.108 187.808 53.5298 189.214 54.3736C190.62 55.2173 191.707 56.402 192.474 57.9276C193.25 59.4531 193.637 61.2301 193.637 63.2585C193.637 65.2869 193.25 67.0597 192.474 68.5767C191.707 70.0937 190.62 71.2741 189.214 72.1179C187.808 72.9616 186.146 73.3835 184.228 73.3835ZM184.254 69.6761C185.294 69.6761 186.163 69.3906 186.862 68.8196C187.561 68.2401 188.081 67.4645 188.422 66.4929C188.771 65.5213 188.946 64.4389 188.946 63.2457C188.946 62.044 188.771 60.9574 188.422 59.9858C188.081 59.0057 187.561 58.2259 186.862 57.6463C186.163 57.0668 185.294 56.777 184.254 56.777C183.189 56.777 182.302 57.0668 181.595 57.6463C180.896 58.2259 180.372 59.0057 180.022 59.9858C179.681 60.9574 179.511 62.044 179.511 63.2457C179.511 64.4389 179.681 65.5213 180.022 66.4929C180.372 67.4645 180.896 68.2401 181.595 68.8196C182.302 69.3906 183.189 69.6761 184.254 69.6761ZM201.784 66.8381L201.771 61.2514H202.513L209.57 53.3636H214.977L206.297 63.0284H205.338L201.784 66.8381ZM197.565 73V46.8182H202.193V73H197.565ZM209.889 73L203.497 64.0639L206.616 60.804L215.425 73H209.889Z" fill="#1877F2"/>
<path d="M47.5824 73V46.8182H64.3551V50.794H52.3253V57.902H63.2045V61.8778H52.3253V73H47.5824ZM73.9464 73.3963C72.7021 73.3963 71.5813 73.1747 70.5842 72.7315C69.5955 72.2798 68.8114 71.6151 68.2319 70.7372C67.6609 69.8594 67.3754 68.777 67.3754 67.4901C67.3754 66.3821 67.5799 65.4659 67.989 64.7415C68.3981 64.017 68.9563 63.4375 69.6637 63.0028C70.3711 62.5682 71.168 62.2401 72.0543 62.0185C72.9492 61.7884 73.8739 61.6222 74.8285 61.5199C75.979 61.4006 76.9123 61.294 77.6282 61.2003C78.3441 61.098 78.864 60.9446 79.1879 60.7401C79.5202 60.527 79.6864 60.1989 79.6864 59.7557V59.679C79.6864 58.7159 79.4009 57.9702 78.8299 57.4418C78.2589 56.9134 77.4364 56.6491 76.3626 56.6491C75.229 56.6491 74.3299 56.8963 73.6651 57.3906C73.0089 57.8849 72.5657 58.4687 72.3356 59.142L68.0146 58.5284C68.3555 57.3352 68.918 56.3381 69.7021 55.5369C70.4862 54.7273 71.445 54.1222 72.5785 53.7216C73.712 53.3125 74.9648 53.108 76.337 53.108C77.283 53.108 78.2248 53.2188 79.1623 53.4403C80.0998 53.6619 80.9563 54.0284 81.7319 54.5398C82.5075 55.0426 83.1296 55.7287 83.5984 56.598C84.0756 57.4673 84.3143 58.554 84.3143 59.858V73H79.8654V70.3026H79.712C79.4308 70.848 79.0344 71.3594 78.5231 71.8366C78.0202 72.3054 77.3853 72.6847 76.6183 72.9744C75.8597 73.2557 74.9691 73.3963 73.9464 73.3963ZM75.1481 69.9957C76.0771 69.9957 76.8825 69.8125 77.5643 69.446C78.2461 69.071 78.7702 68.5767 79.1367 67.9631C79.5117 67.3494 79.6992 66.6804 79.6992 65.956V63.642C79.5543 63.7614 79.3072 63.8722 78.9577 63.9744C78.6168 64.0767 78.2333 64.1662 77.8072 64.2429C77.381 64.3196 76.9592 64.3878 76.5415 64.4474C76.1239 64.5071 75.7617 64.5582 75.4549 64.6009C74.7646 64.6946 74.1467 64.848 73.6012 65.0611C73.0558 65.2741 72.6254 65.5724 72.31 65.956C71.9947 66.331 71.837 66.8168 71.837 67.4134C71.837 68.2656 72.1481 68.9091 72.7702 69.3438C73.3924 69.7784 74.185 69.9957 75.1481 69.9957ZM97.533 73.3835C95.5728 73.3835 93.8896 72.9531 92.4833 72.0923C91.0856 71.2315 90.0075 70.0426 89.2489 68.5256C88.4989 67 88.1239 65.2443 88.1239 63.2585C88.1239 61.2642 88.5075 59.5043 89.2745 57.9787C90.0415 56.4446 91.1239 55.2514 92.5217 54.3991C93.9279 53.5384 95.5898 53.108 97.5075 53.108C99.1012 53.108 100.512 53.402 101.739 53.9901C102.975 54.5696 103.959 55.392 104.692 56.4574C105.425 57.5142 105.843 58.75 105.945 60.1648H101.522C101.343 59.2187 100.917 58.4304 100.243 57.7997C99.5785 57.1605 98.6879 56.8409 97.5714 56.8409C96.6254 56.8409 95.7944 57.0966 95.0785 57.608C94.3626 58.1108 93.8043 58.8352 93.4038 59.7812C93.0117 60.7273 92.8157 61.8608 92.8157 63.1818C92.8157 64.5199 93.0117 65.6705 93.4038 66.6335C93.7958 67.5881 94.3455 68.3253 95.0529 68.8452C95.7688 69.3565 96.6083 69.6122 97.5714 69.6122C98.2532 69.6122 98.8626 69.4844 99.3995 69.2287C99.945 68.9645 100.401 68.5852 100.767 68.0909C101.134 67.5966 101.385 66.9957 101.522 66.2884H105.945C105.834 67.6776 105.425 68.9091 104.718 69.983C104.01 71.0483 103.047 71.8835 101.828 72.4886C100.61 73.0852 99.1779 73.3835 97.533 73.3835ZM118.438 73.3835C116.469 73.3835 114.769 72.9744 113.337 72.1562C111.914 71.3295 110.819 70.1619 110.052 68.6534C109.285 67.1364 108.901 65.3509 108.901 63.2969C108.901 61.277 109.285 59.5043 110.052 57.9787C110.827 56.4446 111.91 55.2514 113.299 54.3991C114.688 53.5384 116.32 53.108 118.195 53.108C119.406 53.108 120.548 53.304 121.621 53.696C122.704 54.0795 123.658 54.6761 124.485 55.4858C125.32 56.2955 125.977 57.3267 126.454 58.5795C126.931 59.8239 127.17 61.3068 127.17 63.0284V64.4474H111.075V61.3281H122.734C122.725 60.4418 122.533 59.6534 122.158 58.9631C121.783 58.2642 121.259 57.7145 120.586 57.3139C119.921 56.9134 119.146 56.7131 118.259 56.7131C117.313 56.7131 116.482 56.9432 115.766 57.4034C115.05 57.8551 114.492 58.4517 114.092 59.1932C113.7 59.9261 113.499 60.7315 113.491 61.6094V64.3324C113.491 65.4744 113.7 66.4545 114.117 67.2727C114.535 68.0824 115.119 68.7045 115.869 69.1392C116.619 69.5653 117.496 69.7784 118.502 69.7784C119.175 69.7784 119.785 69.6847 120.33 69.4972C120.876 69.3011 121.349 69.0156 121.749 68.6406C122.15 68.2656 122.452 67.8011 122.657 67.2472L126.978 67.733C126.705 68.875 126.185 69.8722 125.418 70.7244C124.66 71.5682 123.688 72.2244 122.504 72.6932C121.319 73.1534 119.964 73.3835 118.438 73.3835ZM131.289 73V46.8182H135.917V56.6108H136.109C136.348 56.1335 136.684 55.6264 137.119 55.0895C137.554 54.544 138.142 54.0795 138.883 53.696C139.625 53.304 140.571 53.108 141.721 53.108C143.238 53.108 144.606 53.4957 145.825 54.2713C147.052 55.0384 148.024 56.1761 148.74 57.6847C149.464 59.1847 149.826 61.0256 149.826 63.2074C149.826 65.3636 149.473 67.196 148.765 68.7045C148.058 70.2131 147.095 71.3636 145.876 72.1562C144.657 72.9489 143.277 73.3452 141.734 73.3452C140.609 73.3452 139.676 73.1577 138.934 72.7827C138.193 72.4077 137.596 71.956 137.145 71.4276C136.701 70.8906 136.356 70.3835 136.109 69.9062H135.841V73H131.289ZM135.828 63.1818C135.828 64.4517 136.007 65.5639 136.365 66.5185C136.731 67.473 137.255 68.2187 137.937 68.7557C138.627 69.2841 139.463 69.5483 140.443 69.5483C141.466 69.5483 142.322 69.2756 143.012 68.7301C143.703 68.1761 144.223 67.4219 144.572 66.4673C144.93 65.5043 145.109 64.4091 145.109 63.1818C145.109 61.9631 144.934 60.8807 144.585 59.9347C144.235 58.9886 143.716 58.2472 143.025 57.7102C142.335 57.1733 141.474 56.9048 140.443 56.9048C139.454 56.9048 138.615 57.1648 137.924 57.6847C137.234 58.2045 136.71 58.9332 136.352 59.8707C136.002 60.8082 135.828 61.9119 135.828 63.1818ZM162.326 73.3835C160.408 73.3835 158.746 72.9616 157.34 72.1179C155.934 71.2741 154.843 70.0937 154.067 68.5767C153.3 67.0597 152.917 65.2869 152.917 63.2585C152.917 61.2301 153.3 59.4531 154.067 57.9276C154.843 56.402 155.934 55.2173 157.34 54.3736C158.746 53.5298 160.408 53.108 162.326 53.108C164.244 53.108 165.906 53.5298 167.312 54.3736C168.718 55.2173 169.805 56.402 170.572 57.9276C171.347 59.4531 171.735 61.2301 171.735 63.2585C171.735 65.2869 171.347 67.0597 170.572 68.5767C169.805 70.0937 168.718 71.2741 167.312 72.1179C165.906 72.9616 164.244 73.3835 162.326 73.3835ZM162.352 69.6761C163.391 69.6761 164.261 69.3906 164.96 68.8196C165.658 68.2401 166.178 67.4645 166.519 66.4929C166.869 65.5213 167.043 64.4389 167.043 63.2457C167.043 62.044 166.869 60.9574 166.519 59.9858C166.178 59.0057 165.658 58.2259 164.96 57.6463C164.261 57.0668 163.391 56.777 162.352 56.777C161.286 56.777 160.4 57.0668 159.692 57.6463C158.994 58.2259 158.469 59.0057 158.12 59.9858C157.779 60.9574 157.609 62.044 157.609 63.2457C157.609 64.4389 157.779 65.5213 158.12 66.4929C158.469 67.4645 158.994 68.2401 159.692 68.8196C160.4 69.3906 161.286 69.6761 162.352 69.6761ZM184.228 73.3835C182.311 73.3835 180.649 72.9616 179.243 72.1179C177.836 71.2741 176.745 70.0937 175.97 68.5767C175.203 67.0597 174.819 65.2869 174.819 63.2585C174.819 61.2301 175.203 59.4531 175.97 57.9276C176.745 56.402 177.836 55.2173 179.243 54.3736C180.649 53.5298 182.311 53.108 184.228 53.108C186.146 53.108 187.808 53.5298 189.214 54.3736C190.62 55.2173 191.707 56.402 192.474 57.9276C193.25 59.4531 193.637 61.2301 193.637 63.2585C193.637 65.2869 193.25 67.0597 192.474 68.5767C191.707 70.0937 190.62 71.2741 189.214 72.1179C187.808 72.9616 186.146 73.3835 184.228 73.3835ZM184.254 69.6761C185.294 69.6761 186.163 69.3906 186.862 68.8196C187.561 68.2401 188.081 67.4645 188.422 66.4929C188.771 65.5213 188.946 64.4389 188.946 63.2457C188.946 62.044 188.771 60.9574 188.422 59.9858C188.081 59.0057 187.561 58.2259 186.862 57.6463C186.163 57.0668 185.294 56.777 184.254 56.777C183.189 56.777 182.302 57.0668 181.595 57.6463C180.896 58.2259 180.372 59.0057 180.022 59.9858C179.681 60.9574 179.511 62.044 179.511 63.2457C179.511 64.4389 179.681 65.5213 180.022 66.4929C180.372 67.4645 180.896 68.2401 181.595 68.8196C182.302 69.3906 183.189 69.6761 184.254 69.6761ZM201.784 66.8381L201.771 61.2514H202.513L209.57 53.3636H214.977L206.297 63.0284H205.338L201.784 66.8381ZM197.565 73V46.8182H202.193V73H197.565ZM209.889 73L203.497 64.0639L206.616 60.804L215.425 73H209.889Z" fill="black" fill-opacity="0.5"/>
</g>
<path d="M45.6136 101.545H48.0341L52.875 109.693H53.0795L57.9205 101.545H60.3409L54.0341 111.807V119H51.9205V111.807L45.6136 101.545ZM62.8018 119V105.909H64.8132V119H62.8018ZM63.8246 103.727C63.4325 103.727 63.0945 103.594 62.8104 103.327C62.532 103.06 62.3928 102.739 62.3928 102.364C62.3928 101.989 62.532 101.668 62.8104 101.401C63.0945 101.134 63.4325 101 63.8246 101C64.2166 101 64.5518 101.134 64.8303 101.401C65.1143 101.668 65.2564 101.989 65.2564 102.364C65.2564 102.739 65.1143 103.06 64.8303 103.327C64.5518 103.594 64.2166 103.727 63.8246 103.727ZM75.9972 110.58V112.455H68.3608V110.58H75.9972ZM86.4908 101.545H88.6044V114.023C88.6044 115.136 88.3999 116.082 87.9908 116.861C87.5817 117.639 87.005 118.23 86.2607 118.634C85.5163 119.037 84.6385 119.239 83.6271 119.239C82.6726 119.239 81.8232 119.065 81.0788 118.719C80.3345 118.366 79.7493 117.866 79.3232 117.219C78.897 116.571 78.6839 115.801 78.6839 114.909H80.7635C80.7635 115.403 80.8857 115.835 81.13 116.205C81.38 116.568 81.7209 116.852 82.1527 117.057C82.5845 117.261 83.076 117.364 83.6271 117.364C84.2351 117.364 84.7521 117.236 85.1783 116.98C85.6044 116.724 85.9283 116.349 86.1499 115.855C86.3771 115.355 86.4908 114.744 86.4908 114.023V101.545ZM93.8629 123.909C93.522 123.909 93.218 123.881 92.951 123.824C92.6839 123.773 92.4993 123.722 92.397 123.67L92.9084 121.898C93.397 122.023 93.8288 122.068 94.2038 122.034C94.5788 122 94.9112 121.832 95.201 121.531C95.4964 121.236 95.7663 120.756 96.0107 120.091L96.3857 119.068L91.5447 105.909H93.7266L97.3402 116.341H97.4766L101.09 105.909H103.272L97.7152 120.909C97.4652 121.585 97.1555 122.145 96.7862 122.588C96.4169 123.037 95.9879 123.369 95.4993 123.585C95.0163 123.801 94.4709 123.909 93.8629 123.909ZM114.177 113.648V105.909H116.188V119H114.177V116.784H114.04C113.734 117.449 113.256 118.014 112.609 118.48C111.961 118.94 111.143 119.17 110.154 119.17C109.336 119.17 108.609 118.991 107.972 118.634C107.336 118.27 106.836 117.724 106.472 116.997C106.109 116.264 105.927 115.341 105.927 114.227V105.909H107.938V114.091C107.938 115.045 108.205 115.807 108.739 116.375C109.279 116.943 109.967 117.227 110.802 117.227C111.302 117.227 111.81 117.099 112.327 116.844C112.85 116.588 113.288 116.196 113.64 115.668C113.998 115.139 114.177 114.466 114.177 113.648ZM121.884 111.125V119H119.872V105.909H121.815V107.955H121.986C122.293 107.29 122.759 106.756 123.384 106.352C124.009 105.943 124.815 105.739 125.804 105.739C126.69 105.739 127.466 105.92 128.131 106.284C128.795 106.642 129.313 107.188 129.682 107.92C130.051 108.648 130.236 109.568 130.236 110.682V119H128.224V110.818C128.224 109.79 127.957 108.989 127.423 108.415C126.889 107.835 126.156 107.545 125.224 107.545C124.582 107.545 124.009 107.685 123.503 107.963C123.003 108.241 122.608 108.648 122.318 109.182C122.028 109.716 121.884 110.364 121.884 111.125ZM140.934 119V101.545H146.832C148.201 101.545 149.32 101.793 150.19 102.287C151.065 102.776 151.712 103.438 152.133 104.273C152.553 105.108 152.763 106.04 152.763 107.068C152.763 108.097 152.553 109.031 152.133 109.872C151.718 110.713 151.076 111.384 150.207 111.884C149.337 112.378 148.224 112.625 146.866 112.625H142.638V110.75H146.798C147.735 110.75 148.488 110.588 149.056 110.264C149.624 109.94 150.036 109.503 150.292 108.952C150.553 108.395 150.684 107.767 150.684 107.068C150.684 106.369 150.553 105.744 150.292 105.193C150.036 104.642 149.621 104.21 149.048 103.898C148.474 103.58 147.712 103.42 146.763 103.42H143.048V119H140.934ZM159.748 119.307C158.918 119.307 158.165 119.151 157.489 118.838C156.813 118.52 156.276 118.062 155.879 117.466C155.481 116.864 155.282 116.136 155.282 115.284C155.282 114.534 155.43 113.926 155.725 113.46C156.021 112.989 156.415 112.619 156.91 112.352C157.404 112.085 157.95 111.886 158.546 111.756C159.148 111.619 159.754 111.511 160.362 111.432C161.157 111.33 161.802 111.253 162.296 111.202C162.796 111.145 163.16 111.051 163.387 110.92C163.62 110.79 163.737 110.562 163.737 110.239V110.17C163.737 109.33 163.506 108.676 163.046 108.21C162.592 107.744 161.901 107.511 160.975 107.511C160.015 107.511 159.262 107.722 158.717 108.142C158.171 108.562 157.788 109.011 157.566 109.489L155.657 108.807C155.998 108.011 156.452 107.392 157.021 106.949C157.594 106.5 158.219 106.187 158.896 106.011C159.577 105.83 160.248 105.739 160.907 105.739C161.327 105.739 161.81 105.79 162.356 105.892C162.907 105.989 163.438 106.19 163.95 106.497C164.467 106.804 164.896 107.267 165.237 107.886C165.577 108.506 165.748 109.335 165.748 110.375V119H163.737V117.227H163.634C163.498 117.511 163.271 117.815 162.952 118.139C162.634 118.463 162.211 118.739 161.683 118.966C161.154 119.193 160.509 119.307 159.748 119.307ZM160.055 117.5C160.85 117.5 161.521 117.344 162.066 117.031C162.617 116.719 163.032 116.315 163.31 115.821C163.594 115.327 163.737 114.807 163.737 114.261V112.42C163.651 112.523 163.464 112.616 163.174 112.702C162.89 112.781 162.56 112.852 162.185 112.915C161.816 112.972 161.455 113.023 161.103 113.068C160.756 113.108 160.475 113.142 160.259 113.17C159.737 113.239 159.248 113.349 158.793 113.503C158.344 113.651 157.981 113.875 157.702 114.176C157.43 114.472 157.293 114.875 157.293 115.386C157.293 116.085 157.552 116.614 158.069 116.972C158.592 117.324 159.254 117.5 160.055 117.5ZM171.43 111.125V119H169.419V105.909H171.362V107.955H171.533C171.839 107.29 172.305 106.756 172.93 106.352C173.555 105.943 174.362 105.739 175.351 105.739C176.237 105.739 177.013 105.92 177.678 106.284C178.342 106.642 178.859 107.188 179.229 107.92C179.598 108.648 179.783 109.568 179.783 110.682V119H177.771V110.818C177.771 109.79 177.504 108.989 176.97 108.415C176.436 107.835 175.703 107.545 174.771 107.545C174.129 107.545 173.555 107.685 173.05 107.963C172.55 108.241 172.155 108.648 171.865 109.182C171.575 109.716 171.43 110.364 171.43 111.125Z" fill="black"/>
</svg>
