<svg width="500" height="160" viewBox="0 0 500 160" fill="none" xmlns="http://www.w3.org/2000/svg">
<rect width="500" height="160" rx="30" fill="white"/>
<rect width="500" height="160" rx="30" fill="#559EF8" fill-opacity="0.2"/>
<g opacity="0.9">
<path d="M47.5824 73V46.8182H52.3253V58.848H52.6449L62.8594 46.8182H68.6506L58.5256 58.5668L68.7401 73H63.0384L55.2273 61.7756L52.3253 65.2017V73H47.5824ZM78.9929 73.3835C77.0241 73.3835 75.3239 72.9744 73.892 72.1562C72.4688 71.3295 71.3736 70.1619 70.6065 68.6534C69.8395 67.1364 69.456 65.3509 69.456 63.2969C69.456 61.277 69.8395 59.5043 70.6065 57.9787C71.3821 56.4446 72.4645 55.2514 73.8537 54.3991C75.2429 53.5384 76.875 53.108 78.75 53.108C79.9602 53.108 81.1023 53.304 82.1761 53.696C83.2585 54.0795 84.2131 54.6761 85.0398 55.4858C85.875 56.2955 86.5313 57.3267 87.0085 58.5795C87.4858 59.8239 87.7244 61.3068 87.7244 63.0284V64.4474H71.6293V61.3281H83.2884C83.2798 60.4418 83.0881 59.6534 82.7131 58.9631C82.3381 58.2642 81.8139 57.7145 81.1406 57.3139C80.4759 56.9134 79.7003 56.7131 78.8139 56.7131C77.8679 56.7131 77.0369 56.9432 76.321 57.4034C75.6051 57.8551 75.0469 58.4517 74.6463 59.1932C74.2543 59.9261 74.054 60.7315 74.0455 61.6094V64.3324C74.0455 65.4744 74.2543 66.4545 74.6719 67.2727C75.0895 68.0824 75.6733 68.7045 76.4233 69.1392C77.1733 69.5653 78.0511 69.7784 79.0568 69.7784C79.7301 69.7784 80.3395 69.6847 80.8849 69.4972C81.4304 69.3011 81.9034 69.0156 82.304 68.6406C82.7045 68.2656 83.0071 67.8011 83.2116 67.2472L87.5327 67.733C87.2599 68.875 86.7401 69.8722 85.973 70.7244C85.2145 71.5682 84.2429 72.2244 83.0582 72.6932C81.8736 73.1534 80.5185 73.3835 78.9929 73.3835ZM93.9535 80.3636C93.3228 80.3636 92.739 80.3125 92.2021 80.2102C91.6737 80.1165 91.2518 80.0057 90.9364 79.8778L92.0103 76.2727C92.6836 76.4688 93.2844 76.5625 93.8129 76.554C94.3413 76.5455 94.8058 76.3793 95.2063 76.0554C95.6154 75.7401 95.9606 75.2116 96.2418 74.4702L96.6381 73.4091L89.5174 53.3636H94.4265L98.9521 68.1932H99.1566L103.695 53.3636H108.617L100.755 75.3778C100.388 76.4176 99.9023 77.3082 99.2972 78.0497C98.6921 78.7997 97.9506 79.3707 97.0728 79.7628C96.2035 80.1634 95.1637 80.3636 93.9535 80.3636ZM112.024 73V46.8182H116.652V56.6108H116.843C117.082 56.1335 117.419 55.6264 117.853 55.0895C118.288 54.544 118.876 54.0795 119.618 53.696C120.359 53.304 121.305 53.108 122.456 53.108C123.973 53.108 125.341 53.4957 126.559 54.2713C127.787 55.0384 128.758 56.1761 129.474 57.6847C130.199 59.1847 130.561 61.0256 130.561 63.2074C130.561 65.3636 130.207 67.196 129.5 68.7045C128.792 70.2131 127.829 71.3636 126.61 72.1562C125.392 72.9489 124.011 73.3452 122.468 73.3452C121.343 73.3452 120.41 73.1577 119.669 72.7827C118.927 72.4077 118.331 71.956 117.879 71.4276C117.436 70.8906 117.091 70.3835 116.843 69.9062H116.575V73H112.024ZM116.562 63.1818C116.562 64.4517 116.741 65.5639 117.099 66.5185C117.466 67.473 117.99 68.2187 118.672 68.7557C119.362 69.2841 120.197 69.5483 121.177 69.5483C122.2 69.5483 123.056 69.2756 123.747 68.7301C124.437 68.1761 124.957 67.4219 125.306 66.4673C125.664 65.5043 125.843 64.4091 125.843 63.1818C125.843 61.9631 125.669 60.8807 125.319 59.9347C124.97 58.9886 124.45 58.2472 123.76 57.7102C123.069 57.1733 122.208 56.9048 121.177 56.9048C120.189 56.9048 119.349 57.1648 118.659 57.6847C117.968 58.2045 117.444 58.9332 117.086 59.8707C116.737 60.8082 116.562 61.9119 116.562 63.1818ZM140.146 73.3963C138.901 73.3963 137.781 73.1747 136.783 72.7315C135.795 72.2798 135.011 71.6151 134.431 70.7372C133.86 69.8594 133.575 68.777 133.575 67.4901C133.575 66.3821 133.779 65.4659 134.188 64.7415C134.597 64.017 135.156 63.4375 135.863 63.0028C136.57 62.5682 137.367 62.2401 138.254 62.0185C139.148 61.7884 140.073 61.6222 141.028 61.5199C142.178 61.4006 143.112 61.294 143.827 61.2003C144.543 61.098 145.063 60.9446 145.387 60.7401C145.719 60.527 145.886 60.1989 145.886 59.7557V59.679C145.886 58.7159 145.6 57.9702 145.029 57.4418C144.458 56.9134 143.636 56.6491 142.562 56.6491C141.428 56.6491 140.529 56.8963 139.864 57.3906C139.208 57.8849 138.765 58.4687 138.535 59.142L134.214 58.5284C134.555 57.3352 135.117 56.3381 135.901 55.5369C136.685 54.7273 137.644 54.1222 138.778 53.7216C139.911 53.3125 141.164 53.108 142.536 53.108C143.482 53.108 144.424 53.2188 145.362 53.4403C146.299 53.6619 147.156 54.0284 147.931 54.5398C148.707 55.0426 149.329 55.7287 149.798 56.598C150.275 57.4673 150.513 58.554 150.513 59.858V73H146.065V70.3026H145.911C145.63 70.848 145.234 71.3594 144.722 71.8366C144.219 72.3054 143.585 72.6847 142.817 72.9744C142.059 73.2557 141.168 73.3963 140.146 73.3963ZM141.347 69.9957C142.276 69.9957 143.082 69.8125 143.763 69.446C144.445 69.071 144.969 68.5767 145.336 67.9631C145.711 67.3494 145.898 66.6804 145.898 65.956V63.642C145.754 63.7614 145.506 63.8722 145.157 63.9744C144.816 64.0767 144.433 64.1662 144.006 64.2429C143.58 64.3196 143.158 64.3878 142.741 64.4474C142.323 64.5071 141.961 64.5582 141.654 64.6009C140.964 64.6946 140.346 64.848 139.8 65.0611C139.255 65.2741 138.825 65.5724 138.509 65.956C138.194 66.331 138.036 66.8168 138.036 67.4134C138.036 68.2656 138.347 68.9091 138.969 69.3438C139.592 69.7784 140.384 69.9957 141.347 69.9957ZM170.687 58.554L166.468 59.0142C166.349 58.5881 166.14 58.1875 165.842 57.8125C165.552 57.4375 165.16 57.1349 164.665 56.9048C164.171 56.6747 163.566 56.5597 162.85 56.5597C161.887 56.5597 161.077 56.7685 160.421 57.1861C159.773 57.6037 159.454 58.1449 159.462 58.8097C159.454 59.3807 159.663 59.8452 160.089 60.2031C160.523 60.5611 161.239 60.8551 162.237 61.0852L165.586 61.8011C167.444 62.2017 168.825 62.8366 169.728 63.706C170.64 64.5753 171.1 65.7131 171.109 67.1193C171.1 68.3551 170.738 69.446 170.022 70.392C169.315 71.3295 168.33 72.0625 167.069 72.5909C165.808 73.1193 164.359 73.3835 162.722 73.3835C160.319 73.3835 158.384 72.8807 156.918 71.875C155.452 70.8608 154.579 69.4503 154.298 67.6435L158.81 67.2088C159.015 68.0952 159.45 68.7642 160.114 69.2159C160.779 69.6676 161.644 69.8935 162.71 69.8935C163.809 69.8935 164.691 69.6676 165.356 69.2159C166.029 68.7642 166.366 68.206 166.366 67.5412C166.366 66.9787 166.148 66.5142 165.714 66.1477C165.288 65.7812 164.623 65.5 163.719 65.304L160.37 64.6009C158.487 64.2088 157.093 63.5483 156.19 62.6193C155.286 61.6818 154.839 60.4972 154.847 59.0653C154.839 57.8551 155.167 56.8068 155.832 55.9205C156.505 55.0256 157.438 54.3352 158.631 53.8494C159.833 53.3551 161.218 53.108 162.786 53.108C165.087 53.108 166.898 53.598 168.219 54.5781C169.549 55.5582 170.371 56.8835 170.687 58.554ZM183.618 73.3835C181.649 73.3835 179.949 72.9744 178.517 72.1562C177.094 71.3295 175.999 70.1619 175.232 68.6534C174.464 67.1364 174.081 65.3509 174.081 63.2969C174.081 61.277 174.464 59.5043 175.232 57.9787C176.007 56.4446 177.089 55.2514 178.479 54.3991C179.868 53.5384 181.5 53.108 183.375 53.108C184.585 53.108 185.727 53.304 186.801 53.696C187.884 54.0795 188.838 54.6761 189.665 55.4858C190.5 56.2955 191.156 57.3267 191.634 58.5795C192.111 59.8239 192.349 61.3068 192.349 63.0284V64.4474H176.254V61.3281H187.913C187.905 60.4418 187.713 59.6534 187.338 58.9631C186.963 58.2642 186.439 57.7145 185.766 57.3139C185.101 56.9134 184.325 56.7131 183.439 56.7131C182.493 56.7131 181.662 56.9432 180.946 57.4034C180.23 57.8551 179.672 58.4517 179.271 59.1932C178.879 59.9261 178.679 60.7315 178.67 61.6094V64.3324C178.67 65.4744 178.879 66.4545 179.297 67.2727C179.714 68.0824 180.298 68.7045 181.048 69.1392C181.798 69.5653 182.676 69.7784 183.682 69.7784C184.355 69.7784 184.964 69.6847 185.51 69.4972C186.055 69.3011 186.528 69.0156 186.929 68.6406C187.33 68.2656 187.632 67.8011 187.837 67.2472L192.158 67.733C191.885 68.875 191.365 69.8722 190.598 70.7244C189.839 71.5682 188.868 72.2244 187.683 72.6932C186.499 73.1534 185.143 73.3835 183.618 73.3835Z" fill="#559EF8"/>
<path d="M47.5824 73V46.8182H52.3253V58.848H52.6449L62.8594 46.8182H68.6506L58.5256 58.5668L68.7401 73H63.0384L55.2273 61.7756L52.3253 65.2017V73H47.5824ZM78.9929 73.3835C77.0241 73.3835 75.3239 72.9744 73.892 72.1562C72.4688 71.3295 71.3736 70.1619 70.6065 68.6534C69.8395 67.1364 69.456 65.3509 69.456 63.2969C69.456 61.277 69.8395 59.5043 70.6065 57.9787C71.3821 56.4446 72.4645 55.2514 73.8537 54.3991C75.2429 53.5384 76.875 53.108 78.75 53.108C79.9602 53.108 81.1023 53.304 82.1761 53.696C83.2585 54.0795 84.2131 54.6761 85.0398 55.4858C85.875 56.2955 86.5313 57.3267 87.0085 58.5795C87.4858 59.8239 87.7244 61.3068 87.7244 63.0284V64.4474H71.6293V61.3281H83.2884C83.2798 60.4418 83.0881 59.6534 82.7131 58.9631C82.3381 58.2642 81.8139 57.7145 81.1406 57.3139C80.4759 56.9134 79.7003 56.7131 78.8139 56.7131C77.8679 56.7131 77.0369 56.9432 76.321 57.4034C75.6051 57.8551 75.0469 58.4517 74.6463 59.1932C74.2543 59.9261 74.054 60.7315 74.0455 61.6094V64.3324C74.0455 65.4744 74.2543 66.4545 74.6719 67.2727C75.0895 68.0824 75.6733 68.7045 76.4233 69.1392C77.1733 69.5653 78.0511 69.7784 79.0568 69.7784C79.7301 69.7784 80.3395 69.6847 80.8849 69.4972C81.4304 69.3011 81.9034 69.0156 82.304 68.6406C82.7045 68.2656 83.0071 67.8011 83.2116 67.2472L87.5327 67.733C87.2599 68.875 86.7401 69.8722 85.973 70.7244C85.2145 71.5682 84.2429 72.2244 83.0582 72.6932C81.8736 73.1534 80.5185 73.3835 78.9929 73.3835ZM93.9535 80.3636C93.3228 80.3636 92.739 80.3125 92.2021 80.2102C91.6737 80.1165 91.2518 80.0057 90.9364 79.8778L92.0103 76.2727C92.6836 76.4688 93.2844 76.5625 93.8129 76.554C94.3413 76.5455 94.8058 76.3793 95.2063 76.0554C95.6154 75.7401 95.9606 75.2116 96.2418 74.4702L96.6381 73.4091L89.5174 53.3636H94.4265L98.9521 68.1932H99.1566L103.695 53.3636H108.617L100.755 75.3778C100.388 76.4176 99.9023 77.3082 99.2972 78.0497C98.6921 78.7997 97.9506 79.3707 97.0728 79.7628C96.2035 80.1634 95.1637 80.3636 93.9535 80.3636ZM112.024 73V46.8182H116.652V56.6108H116.843C117.082 56.1335 117.419 55.6264 117.853 55.0895C118.288 54.544 118.876 54.0795 119.618 53.696C120.359 53.304 121.305 53.108 122.456 53.108C123.973 53.108 125.341 53.4957 126.559 54.2713C127.787 55.0384 128.758 56.1761 129.474 57.6847C130.199 59.1847 130.561 61.0256 130.561 63.2074C130.561 65.3636 130.207 67.196 129.5 68.7045C128.792 70.2131 127.829 71.3636 126.61 72.1562C125.392 72.9489 124.011 73.3452 122.468 73.3452C121.343 73.3452 120.41 73.1577 119.669 72.7827C118.927 72.4077 118.331 71.956 117.879 71.4276C117.436 70.8906 117.091 70.3835 116.843 69.9062H116.575V73H112.024ZM116.562 63.1818C116.562 64.4517 116.741 65.5639 117.099 66.5185C117.466 67.473 117.99 68.2187 118.672 68.7557C119.362 69.2841 120.197 69.5483 121.177 69.5483C122.2 69.5483 123.056 69.2756 123.747 68.7301C124.437 68.1761 124.957 67.4219 125.306 66.4673C125.664 65.5043 125.843 64.4091 125.843 63.1818C125.843 61.9631 125.669 60.8807 125.319 59.9347C124.97 58.9886 124.45 58.2472 123.76 57.7102C123.069 57.1733 122.208 56.9048 121.177 56.9048C120.189 56.9048 119.349 57.1648 118.659 57.6847C117.968 58.2045 117.444 58.9332 117.086 59.8707C116.737 60.8082 116.562 61.9119 116.562 63.1818ZM140.146 73.3963C138.901 73.3963 137.781 73.1747 136.783 72.7315C135.795 72.2798 135.011 71.6151 134.431 70.7372C133.86 69.8594 133.575 68.777 133.575 67.4901C133.575 66.3821 133.779 65.4659 134.188 64.7415C134.597 64.017 135.156 63.4375 135.863 63.0028C136.57 62.5682 137.367 62.2401 138.254 62.0185C139.148 61.7884 140.073 61.6222 141.028 61.5199C142.178 61.4006 143.112 61.294 143.827 61.2003C144.543 61.098 145.063 60.9446 145.387 60.7401C145.719 60.527 145.886 60.1989 145.886 59.7557V59.679C145.886 58.7159 145.6 57.9702 145.029 57.4418C144.458 56.9134 143.636 56.6491 142.562 56.6491C141.428 56.6491 140.529 56.8963 139.864 57.3906C139.208 57.8849 138.765 58.4687 138.535 59.142L134.214 58.5284C134.555 57.3352 135.117 56.3381 135.901 55.5369C136.685 54.7273 137.644 54.1222 138.778 53.7216C139.911 53.3125 141.164 53.108 142.536 53.108C143.482 53.108 144.424 53.2188 145.362 53.4403C146.299 53.6619 147.156 54.0284 147.931 54.5398C148.707 55.0426 149.329 55.7287 149.798 56.598C150.275 57.4673 150.513 58.554 150.513 59.858V73H146.065V70.3026H145.911C145.63 70.848 145.234 71.3594 144.722 71.8366C144.219 72.3054 143.585 72.6847 142.817 72.9744C142.059 73.2557 141.168 73.3963 140.146 73.3963ZM141.347 69.9957C142.276 69.9957 143.082 69.8125 143.763 69.446C144.445 69.071 144.969 68.5767 145.336 67.9631C145.711 67.3494 145.898 66.6804 145.898 65.956V63.642C145.754 63.7614 145.506 63.8722 145.157 63.9744C144.816 64.0767 144.433 64.1662 144.006 64.2429C143.58 64.3196 143.158 64.3878 142.741 64.4474C142.323 64.5071 141.961 64.5582 141.654 64.6009C140.964 64.6946 140.346 64.848 139.8 65.0611C139.255 65.2741 138.825 65.5724 138.509 65.956C138.194 66.331 138.036 66.8168 138.036 67.4134C138.036 68.2656 138.347 68.9091 138.969 69.3438C139.592 69.7784 140.384 69.9957 141.347 69.9957ZM170.687 58.554L166.468 59.0142C166.349 58.5881 166.14 58.1875 165.842 57.8125C165.552 57.4375 165.16 57.1349 164.665 56.9048C164.171 56.6747 163.566 56.5597 162.85 56.5597C161.887 56.5597 161.077 56.7685 160.421 57.1861C159.773 57.6037 159.454 58.1449 159.462 58.8097C159.454 59.3807 159.663 59.8452 160.089 60.2031C160.523 60.5611 161.239 60.8551 162.237 61.0852L165.586 61.8011C167.444 62.2017 168.825 62.8366 169.728 63.706C170.64 64.5753 171.1 65.7131 171.109 67.1193C171.1 68.3551 170.738 69.446 170.022 70.392C169.315 71.3295 168.33 72.0625 167.069 72.5909C165.808 73.1193 164.359 73.3835 162.722 73.3835C160.319 73.3835 158.384 72.8807 156.918 71.875C155.452 70.8608 154.579 69.4503 154.298 67.6435L158.81 67.2088C159.015 68.0952 159.45 68.7642 160.114 69.2159C160.779 69.6676 161.644 69.8935 162.71 69.8935C163.809 69.8935 164.691 69.6676 165.356 69.2159C166.029 68.7642 166.366 68.206 166.366 67.5412C166.366 66.9787 166.148 66.5142 165.714 66.1477C165.288 65.7812 164.623 65.5 163.719 65.304L160.37 64.6009C158.487 64.2088 157.093 63.5483 156.19 62.6193C155.286 61.6818 154.839 60.4972 154.847 59.0653C154.839 57.8551 155.167 56.8068 155.832 55.9205C156.505 55.0256 157.438 54.3352 158.631 53.8494C159.833 53.3551 161.218 53.108 162.786 53.108C165.087 53.108 166.898 53.598 168.219 54.5781C169.549 55.5582 170.371 56.8835 170.687 58.554ZM183.618 73.3835C181.649 73.3835 179.949 72.9744 178.517 72.1562C177.094 71.3295 175.999 70.1619 175.232 68.6534C174.464 67.1364 174.081 65.3509 174.081 63.2969C174.081 61.277 174.464 59.5043 175.232 57.9787C176.007 56.4446 177.089 55.2514 178.479 54.3991C179.868 53.5384 181.5 53.108 183.375 53.108C184.585 53.108 185.727 53.304 186.801 53.696C187.884 54.0795 188.838 54.6761 189.665 55.4858C190.5 56.2955 191.156 57.3267 191.634 58.5795C192.111 59.8239 192.349 61.3068 192.349 63.0284V64.4474H176.254V61.3281H187.913C187.905 60.4418 187.713 59.6534 187.338 58.9631C186.963 58.2642 186.439 57.7145 185.766 57.3139C185.101 56.9134 184.325 56.7131 183.439 56.7131C182.493 56.7131 181.662 56.9432 180.946 57.4034C180.23 57.8551 179.672 58.4517 179.271 59.1932C178.879 59.9261 178.679 60.7315 178.67 61.6094V64.3324C178.67 65.4744 178.879 66.4545 179.297 67.2727C179.714 68.0824 180.298 68.7045 181.048 69.1392C181.798 69.5653 182.676 69.7784 183.682 69.7784C184.355 69.7784 184.964 69.6847 185.51 69.4972C186.055 69.3011 186.528 69.0156 186.929 68.6406C187.33 68.2656 187.632 67.8011 187.837 67.2472L192.158 67.733C191.885 68.875 191.365 69.8722 190.598 70.7244C189.839 71.5682 188.868 72.2244 187.683 72.6932C186.499 73.1534 185.143 73.3835 183.618 73.3835Z" fill="black" fill-opacity="0.5"/>
</g>
<path d="M46.8409 123.909V105.909H48.7841V107.989H49.0227C49.1705 107.761 49.375 107.472 49.6364 107.119C49.9034 106.761 50.2841 106.443 50.7784 106.165C51.2784 105.881 51.9545 105.739 52.8068 105.739C53.9091 105.739 54.8807 106.014 55.7216 106.565C56.5625 107.116 57.2188 107.898 57.6903 108.909C58.1619 109.92 58.3977 111.114 58.3977 112.489C58.3977 113.875 58.1619 115.077 57.6903 116.094C57.2188 117.105 56.5653 117.889 55.7301 118.446C54.8949 118.997 53.9318 119.273 52.8409 119.273C52 119.273 51.3267 119.134 50.821 118.855C50.3153 118.571 49.9261 118.25 49.6534 117.892C49.3807 117.528 49.1705 117.227 49.0227 116.989H48.8523V123.909H46.8409ZM48.8182 112.455C48.8182 113.443 48.9631 114.315 49.2528 115.071C49.5426 115.821 49.9659 116.409 50.5227 116.835C51.0795 117.256 51.7614 117.466 52.5682 117.466C53.4091 117.466 54.1108 117.244 54.6733 116.801C55.2415 116.352 55.6676 115.75 55.9517 114.994C56.2415 114.233 56.3864 113.386 56.3864 112.455C56.3864 111.534 56.2443 110.705 55.9602 109.966C55.6818 109.222 55.2585 108.634 54.6903 108.202C54.1278 107.764 53.4205 107.545 52.5682 107.545C51.75 107.545 51.0625 107.753 50.5057 108.168C49.9489 108.577 49.5284 109.151 49.2443 109.889C48.9602 110.622 48.8182 111.477 48.8182 112.455ZM65.3182 119.307C64.4886 119.307 63.7358 119.151 63.0597 118.838C62.3835 118.52 61.8466 118.062 61.4489 117.466C61.0511 116.864 60.8523 116.136 60.8523 115.284C60.8523 114.534 61 113.926 61.2955 113.46C61.5909 112.989 61.9858 112.619 62.4801 112.352C62.9744 112.085 63.5199 111.886 64.1165 111.756C64.7188 111.619 65.3239 111.511 65.9318 111.432C66.7273 111.33 67.3722 111.253 67.8665 111.202C68.3665 111.145 68.7301 111.051 68.9574 110.92C69.1903 110.79 69.3068 110.562 69.3068 110.239V110.17C69.3068 109.33 69.0767 108.676 68.6165 108.21C68.1619 107.744 67.4716 107.511 66.5455 107.511C65.5852 107.511 64.8324 107.722 64.2869 108.142C63.7415 108.562 63.358 109.011 63.1364 109.489L61.2273 108.807C61.5682 108.011 62.0227 107.392 62.5909 106.949C63.1648 106.5 63.7898 106.187 64.4659 106.011C65.1477 105.83 65.8182 105.739 66.4773 105.739C66.8977 105.739 67.3807 105.79 67.9261 105.892C68.4773 105.989 69.0085 106.19 69.5199 106.497C70.0369 106.804 70.4659 107.267 70.8068 107.886C71.1477 108.506 71.3182 109.335 71.3182 110.375V119H69.3068V117.227H69.2045C69.0682 117.511 68.8409 117.815 68.5227 118.139C68.2045 118.463 67.7813 118.739 67.2528 118.966C66.7244 119.193 66.0795 119.307 65.3182 119.307ZM65.625 117.5C66.4205 117.5 67.0909 117.344 67.6364 117.031C68.1875 116.719 68.6023 116.315 68.8807 115.821C69.1648 115.327 69.3068 114.807 69.3068 114.261V112.42C69.2216 112.523 69.0341 112.616 68.7443 112.702C68.4602 112.781 68.1307 112.852 67.7557 112.915C67.3864 112.972 67.0256 113.023 66.6733 113.068C66.3267 113.108 66.0455 113.142 65.8295 113.17C65.3068 113.239 64.8182 113.349 64.3636 113.503C63.9148 113.651 63.5511 113.875 63.2727 114.176C63 114.472 62.8636 114.875 62.8636 115.386C62.8636 116.085 63.1222 116.614 63.6392 116.972C64.1619 117.324 64.8239 117.5 65.625 117.5ZM77.0007 111.125V119H74.9893V105.909H76.9325V107.955H77.103C77.4098 107.29 77.8757 106.756 78.5007 106.352C79.1257 105.943 79.9325 105.739 80.9212 105.739C81.8075 105.739 82.5831 105.92 83.2479 106.284C83.9126 106.642 84.4297 107.188 84.799 107.92C85.1683 108.648 85.353 109.568 85.353 110.682V119H83.3416V110.818C83.3416 109.79 83.0746 108.989 82.5405 108.415C82.0064 107.835 81.2734 107.545 80.3416 107.545C79.6996 107.545 79.1257 107.685 78.62 107.963C78.12 108.241 77.7251 108.648 77.4354 109.182C77.1456 109.716 77.0007 110.364 77.0007 111.125ZM94.5511 101.307C95.267 101.312 95.983 101.449 96.6989 101.716C97.4148 101.983 98.0682 102.426 98.6591 103.045C99.25 103.659 99.7244 104.497 100.082 105.56C100.44 106.622 100.619 107.955 100.619 109.557C100.619 111.108 100.472 112.486 100.176 113.69C99.8864 114.889 99.4659 115.901 98.9148 116.724C98.3693 117.548 97.7045 118.173 96.9205 118.599C96.142 119.026 95.2614 119.239 94.2784 119.239C93.3011 119.239 92.429 119.045 91.6619 118.659C90.9006 118.267 90.2756 117.724 89.7869 117.031C89.304 116.332 88.9943 115.523 88.858 114.602H90.9375C91.125 115.403 91.4972 116.065 92.054 116.588C92.6165 117.105 93.358 117.364 94.2784 117.364C95.625 117.364 96.6875 116.776 97.4659 115.599C98.25 114.423 98.642 112.761 98.642 110.614H98.5057C98.1875 111.091 97.8097 111.503 97.3722 111.849C96.9347 112.196 96.4489 112.463 95.9148 112.651C95.3807 112.838 94.8125 112.932 94.2102 112.932C93.2102 112.932 92.2926 112.685 91.4574 112.19C90.6278 111.69 89.9631 111.006 89.4631 110.136C88.9688 109.261 88.7216 108.261 88.7216 107.136C88.7216 106.068 88.9602 105.091 89.4375 104.205C89.9205 103.312 90.5966 102.602 91.4659 102.074C92.3409 101.545 93.3693 101.29 94.5511 101.307ZM94.5511 103.182C93.8352 103.182 93.1903 103.361 92.6165 103.719C92.0483 104.071 91.5966 104.548 91.2614 105.151C90.9318 105.747 90.767 106.409 90.767 107.136C90.767 107.864 90.9261 108.526 91.2443 109.122C91.5682 109.713 92.0085 110.185 92.5653 110.537C93.1278 110.884 93.767 111.057 94.483 111.057C95.0227 111.057 95.5256 110.952 95.9915 110.741C96.4574 110.526 96.8636 110.233 97.2102 109.864C97.5625 109.489 97.8381 109.065 98.0369 108.594C98.2358 108.116 98.3352 107.619 98.3352 107.102C98.3352 106.42 98.1705 105.781 97.8409 105.185C97.517 104.588 97.0682 104.105 96.4943 103.736C95.9261 103.366 95.2784 103.182 94.5511 103.182ZM109.869 119.239C108.744 119.239 107.741 119.045 106.86 118.659C105.985 118.273 105.289 117.736 104.772 117.048C104.261 116.355 103.982 115.551 103.937 114.636H106.085C106.13 115.199 106.323 115.685 106.664 116.094C107.005 116.497 107.451 116.81 108.002 117.031C108.553 117.253 109.164 117.364 109.835 117.364C110.585 117.364 111.249 117.233 111.829 116.972C112.408 116.71 112.863 116.347 113.192 115.881C113.522 115.415 113.687 114.875 113.687 114.261C113.687 113.619 113.528 113.054 113.21 112.565C112.891 112.071 112.425 111.685 111.812 111.406C111.198 111.128 110.448 110.989 109.562 110.989H108.164V109.114H109.562C110.255 109.114 110.863 108.989 111.386 108.739C111.914 108.489 112.326 108.136 112.621 107.682C112.923 107.227 113.073 106.693 113.073 106.08C113.073 105.489 112.942 104.974 112.681 104.537C112.42 104.099 112.05 103.759 111.573 103.514C111.102 103.27 110.545 103.148 109.903 103.148C109.3 103.148 108.732 103.259 108.198 103.48C107.67 103.696 107.238 104.011 106.903 104.426C106.567 104.835 106.386 105.33 106.357 105.909H104.312C104.346 104.994 104.621 104.193 105.138 103.506C105.656 102.812 106.332 102.273 107.167 101.886C108.008 101.5 108.931 101.307 109.937 101.307C111.016 101.307 111.942 101.526 112.715 101.963C113.488 102.395 114.082 102.966 114.496 103.676C114.911 104.386 115.119 105.153 115.119 105.977C115.119 106.96 114.86 107.798 114.343 108.491C113.832 109.185 113.136 109.665 112.255 109.932V110.068C113.357 110.25 114.218 110.719 114.837 111.474C115.457 112.224 115.766 113.153 115.766 114.261C115.766 115.21 115.508 116.062 114.991 116.818C114.479 117.568 113.781 118.159 112.894 118.591C112.008 119.023 110.999 119.239 109.869 119.239ZM118.843 115.42V113.682L126.513 101.545H127.775V104.239H126.923L121.127 113.409V113.545H131.457V115.42H118.843ZM127.059 119V114.892V114.082V101.545H129.07V119H127.059ZM140.553 101.545V119H138.439V103.761H138.337L134.075 106.591V104.443L138.439 101.545H140.553ZM145.572 119V117.466L151.334 111.159C152.01 110.42 152.567 109.778 153.004 109.233C153.442 108.682 153.766 108.165 153.976 107.682C154.192 107.193 154.3 106.682 154.3 106.148C154.3 105.534 154.152 105.003 153.857 104.554C153.567 104.105 153.169 103.759 152.663 103.514C152.158 103.27 151.589 103.148 150.959 103.148C150.288 103.148 149.703 103.287 149.203 103.565C148.709 103.838 148.325 104.222 148.053 104.716C147.786 105.21 147.652 105.79 147.652 106.455H145.641C145.641 105.432 145.876 104.534 146.348 103.761C146.82 102.989 147.462 102.386 148.274 101.955C149.092 101.523 150.01 101.307 151.027 101.307C152.05 101.307 152.956 101.523 153.746 101.955C154.536 102.386 155.155 102.969 155.604 103.702C156.053 104.435 156.277 105.25 156.277 106.148C156.277 106.79 156.161 107.418 155.928 108.031C155.7 108.639 155.303 109.318 154.734 110.068C154.172 110.812 153.391 111.722 152.391 112.795L148.47 116.989V117.125H156.584V119H145.572Z" fill="black"/>
</svg>
