<svg width="500" height="160" viewBox="0 0 500 160" fill="none" xmlns="http://www.w3.org/2000/svg">
<rect width="500" height="160" rx="30" fill="white"/>
<rect width="500" height="160" rx="30" fill="#41B9F7" fill-opacity="0.2"/>
<g opacity="0.9">
<path d="M46.4318 50.794V46.8182H67.321V50.794H59.2287V73H54.5241V50.794H46.4318ZM76.989 73.3835C75.0202 73.3835 73.32 72.9744 71.8881 72.1562C70.4648 71.3295 69.3697 70.1619 68.6026 68.6534C67.8356 67.1364 67.4521 65.3509 67.4521 63.2969C67.4521 61.277 67.8356 59.5043 68.6026 57.9787C69.3782 56.4446 70.4606 55.2514 71.8498 54.3991C73.239 53.5384 74.8711 53.108 76.7461 53.108C77.9563 53.108 79.0984 53.304 80.1722 53.696C81.2546 54.0795 82.2092 54.6761 83.0359 55.4858C83.8711 56.2955 84.5273 57.3267 85.0046 58.5795C85.4819 59.8239 85.7205 61.3068 85.7205 63.0284V64.4474H69.6254V61.3281H81.2844C81.2759 60.4418 81.0842 59.6534 80.7092 58.9631C80.3342 58.2642 79.81 57.7145 79.1367 57.3139C78.4719 56.9134 77.6964 56.7131 76.81 56.7131C75.864 56.7131 75.033 56.9432 74.3171 57.4034C73.6012 57.8551 73.043 58.4517 72.6424 59.1932C72.2504 59.9261 72.0501 60.7315 72.0415 61.6094V64.3324C72.0415 65.4744 72.2504 66.4545 72.668 67.2727C73.0856 68.0824 73.6694 68.7045 74.4194 69.1392C75.1694 69.5653 76.0472 69.7784 77.0529 69.7784C77.7262 69.7784 78.3356 69.6847 78.881 69.4972C79.4265 69.3011 79.8995 69.0156 80.3001 68.6406C80.7006 68.2656 81.0032 67.8011 81.2077 67.2472L85.5288 67.733C85.256 68.875 84.7362 69.8722 83.9691 70.7244C83.2106 71.5682 82.239 72.2244 81.0543 72.6932C79.8697 73.1534 78.5146 73.3835 76.989 73.3835ZM94.2635 46.8182V73H89.6357V46.8182H94.2635ZM107.716 73.3835C105.747 73.3835 104.047 72.9744 102.615 72.1562C101.191 71.3295 100.096 70.1619 99.3292 68.6534C98.5621 67.1364 98.1786 65.3509 98.1786 63.2969C98.1786 61.277 98.5621 59.5043 99.3292 57.9787C100.105 56.4446 101.187 55.2514 102.576 54.3991C103.966 53.5384 105.598 53.108 107.473 53.108C108.683 53.108 109.825 53.304 110.899 53.696C111.981 54.0795 112.936 54.6761 113.762 55.4858C114.598 56.2955 115.254 57.3267 115.731 58.5795C116.208 59.8239 116.447 61.3068 116.447 63.0284V64.4474H100.352V61.3281H112.011C112.002 60.4418 111.811 59.6534 111.436 58.9631C111.061 58.2642 110.537 57.7145 109.863 57.3139C109.199 56.9134 108.423 56.7131 107.537 56.7131C106.591 56.7131 105.76 56.9432 105.044 57.4034C104.328 57.8551 103.77 58.4517 103.369 59.1932C102.977 59.9261 102.777 60.7315 102.768 61.6094V64.3324C102.768 65.4744 102.977 66.4545 103.395 67.2727C103.812 68.0824 104.396 68.7045 105.146 69.1392C105.896 69.5653 106.774 69.7784 107.779 69.7784C108.453 69.7784 109.062 69.6847 109.608 69.4972C110.153 69.3011 110.626 69.0156 111.027 68.6406C111.427 68.2656 111.73 67.8011 111.934 67.2472L116.255 67.733C115.983 68.875 115.463 69.8722 114.696 70.7244C113.937 71.5682 112.966 72.2244 111.781 72.6932C110.596 73.1534 109.241 73.3835 107.716 73.3835ZM128.902 80.7727C127.24 80.7727 125.813 80.5469 124.619 80.0952C123.426 79.652 122.467 79.0554 121.743 78.3054C121.018 77.5554 120.516 76.7244 120.234 75.8125L124.402 74.8026C124.589 75.1861 124.862 75.5653 125.22 75.9403C125.578 76.3239 126.06 76.6392 126.665 76.8864C127.278 77.142 128.05 77.2699 128.979 77.2699C130.291 77.2699 131.378 76.9503 132.239 76.3111C133.099 75.6804 133.53 74.6406 133.53 73.1918V69.4716H133.3C133.061 69.9489 132.712 70.4389 132.251 70.9418C131.8 71.4446 131.199 71.8665 130.449 72.2074C129.707 72.5483 128.774 72.7188 127.649 72.7188C126.141 72.7188 124.773 72.3651 123.545 71.6577C122.327 70.9418 121.355 69.8764 120.631 68.4616C119.915 67.0384 119.557 65.2571 119.557 63.1179C119.557 60.9616 119.915 59.142 120.631 57.6591C121.355 56.1676 122.331 55.0384 123.558 54.2713C124.786 53.4957 126.153 53.108 127.662 53.108C128.813 53.108 129.759 53.304 130.5 53.696C131.25 54.0795 131.847 54.544 132.29 55.0895C132.733 55.6264 133.07 56.1335 133.3 56.6108H133.555V53.3636H138.119V73.3196C138.119 74.9986 137.719 76.3878 136.918 77.4872C136.116 78.5866 135.021 79.4091 133.632 79.9545C132.243 80.5 130.666 80.7727 128.902 80.7727ZM128.94 69.0881C129.92 69.0881 130.756 68.8494 131.446 68.3722C132.136 67.8949 132.661 67.2088 133.018 66.3139C133.376 65.419 133.555 64.3452 133.555 63.0923C133.555 61.8565 133.376 60.7741 133.018 59.8452C132.669 58.9162 132.149 58.196 131.459 57.6847C130.777 57.1648 129.938 56.9048 128.94 56.9048C127.909 56.9048 127.048 57.1733 126.358 57.7102C125.668 58.2472 125.148 58.9844 124.798 59.9219C124.449 60.8509 124.274 61.9077 124.274 63.0923C124.274 64.294 124.449 65.3466 124.798 66.25C125.156 67.1449 125.68 67.8437 126.371 68.3466C127.07 68.8409 127.926 69.0881 128.94 69.0881ZM142.862 73V53.3636H147.349V56.6364H147.554C147.912 55.5028 148.526 54.6293 149.395 54.0156C150.273 53.3935 151.274 53.0824 152.399 53.0824C152.655 53.0824 152.94 53.0952 153.256 53.1207C153.58 53.1378 153.848 53.1676 154.061 53.2102V57.4673C153.865 57.3991 153.554 57.3395 153.128 57.2884C152.71 57.2287 152.305 57.1989 151.913 57.1989C151.07 57.1989 150.311 57.3821 149.638 57.7486C148.973 58.1065 148.449 58.6051 148.065 59.2443C147.682 59.8835 147.49 60.6207 147.49 61.456V73H142.862ZM162.435 73.3963C161.19 73.3963 160.07 73.1747 159.072 72.7315C158.084 72.2798 157.3 71.6151 156.72 70.7372C156.149 69.8594 155.864 68.777 155.864 67.4901C155.864 66.3821 156.068 65.4659 156.477 64.7415C156.886 64.017 157.445 63.4375 158.152 63.0028C158.859 62.5682 159.656 62.2401 160.543 62.0185C161.438 61.7884 162.362 61.6222 163.317 61.5199C164.467 61.4006 165.401 61.294 166.116 61.2003C166.832 61.098 167.352 60.9446 167.676 60.7401C168.009 60.527 168.175 60.1989 168.175 59.7557V59.679C168.175 58.7159 167.889 57.9702 167.318 57.4418C166.747 56.9134 165.925 56.6491 164.851 56.6491C163.717 56.6491 162.818 56.8963 162.153 57.3906C161.497 57.8849 161.054 58.4687 160.824 59.142L156.503 58.5284C156.844 57.3352 157.406 56.3381 158.19 55.5369C158.974 54.7273 159.933 54.1222 161.067 53.7216C162.2 53.3125 163.453 53.108 164.825 53.108C165.771 53.108 166.713 53.2188 167.651 53.4403C168.588 53.6619 169.445 54.0284 170.22 54.5398C170.996 55.0426 171.618 55.7287 172.087 56.598C172.564 57.4673 172.803 58.554 172.803 59.858V73H168.354V70.3026H168.2C167.919 70.848 167.523 71.3594 167.011 71.8366C166.509 72.3054 165.874 72.6847 165.107 72.9744C164.348 73.2557 163.457 73.3963 162.435 73.3963ZM163.636 69.9957C164.565 69.9957 165.371 69.8125 166.053 69.446C166.734 69.071 167.259 68.5767 167.625 67.9631C168 67.3494 168.188 66.6804 168.188 65.956V63.642C168.043 63.7614 167.795 63.8722 167.446 63.9744C167.105 64.0767 166.722 64.1662 166.295 64.2429C165.869 64.3196 165.447 64.3878 165.03 64.4474C164.612 64.5071 164.25 64.5582 163.943 64.6009C163.253 64.6946 162.635 64.848 162.089 65.0611C161.544 65.2741 161.114 65.5724 160.798 65.956C160.483 66.331 160.325 66.8168 160.325 67.4134C160.325 68.2656 160.636 68.9091 161.259 69.3438C161.881 69.7784 162.673 69.9957 163.636 69.9957ZM177.456 73V53.3636H181.879V56.7003H182.109C182.518 55.5753 183.196 54.6974 184.142 54.0668C185.088 53.4276 186.217 53.108 187.53 53.108C188.859 53.108 189.98 53.4318 190.892 54.0795C191.813 54.7187 192.46 55.5923 192.835 56.7003H193.04C193.474 55.6094 194.207 54.7401 195.239 54.0923C196.278 53.4361 197.51 53.108 198.933 53.108C200.74 53.108 202.214 53.679 203.357 54.821C204.499 55.9631 205.07 57.6293 205.07 59.8196V73H200.429V60.5355C200.429 59.3168 200.105 58.4261 199.457 57.8636C198.81 57.2926 198.017 57.0071 197.08 57.0071C195.963 57.0071 195.089 57.3565 194.459 58.0554C193.837 58.7457 193.526 59.6449 193.526 60.7528V73H188.987V60.3438C188.987 59.3295 188.68 58.5199 188.067 57.9148C187.462 57.3097 186.669 57.0071 185.689 57.0071C185.024 57.0071 184.419 57.1776 183.874 57.5185C183.328 57.8509 182.893 58.3239 182.57 58.9375C182.246 59.5426 182.084 60.25 182.084 61.0597V73H177.456Z" fill="#41B9F7"/>
<path d="M46.4318 50.794V46.8182H67.321V50.794H59.2287V73H54.5241V50.794H46.4318ZM76.989 73.3835C75.0202 73.3835 73.32 72.9744 71.8881 72.1562C70.4648 71.3295 69.3697 70.1619 68.6026 68.6534C67.8356 67.1364 67.4521 65.3509 67.4521 63.2969C67.4521 61.277 67.8356 59.5043 68.6026 57.9787C69.3782 56.4446 70.4606 55.2514 71.8498 54.3991C73.239 53.5384 74.8711 53.108 76.7461 53.108C77.9563 53.108 79.0984 53.304 80.1722 53.696C81.2546 54.0795 82.2092 54.6761 83.0359 55.4858C83.8711 56.2955 84.5273 57.3267 85.0046 58.5795C85.4819 59.8239 85.7205 61.3068 85.7205 63.0284V64.4474H69.6254V61.3281H81.2844C81.2759 60.4418 81.0842 59.6534 80.7092 58.9631C80.3342 58.2642 79.81 57.7145 79.1367 57.3139C78.4719 56.9134 77.6964 56.7131 76.81 56.7131C75.864 56.7131 75.033 56.9432 74.3171 57.4034C73.6012 57.8551 73.043 58.4517 72.6424 59.1932C72.2504 59.9261 72.0501 60.7315 72.0415 61.6094V64.3324C72.0415 65.4744 72.2504 66.4545 72.668 67.2727C73.0856 68.0824 73.6694 68.7045 74.4194 69.1392C75.1694 69.5653 76.0472 69.7784 77.0529 69.7784C77.7262 69.7784 78.3356 69.6847 78.881 69.4972C79.4265 69.3011 79.8995 69.0156 80.3001 68.6406C80.7006 68.2656 81.0032 67.8011 81.2077 67.2472L85.5288 67.733C85.256 68.875 84.7362 69.8722 83.9691 70.7244C83.2106 71.5682 82.239 72.2244 81.0543 72.6932C79.8697 73.1534 78.5146 73.3835 76.989 73.3835ZM94.2635 46.8182V73H89.6357V46.8182H94.2635ZM107.716 73.3835C105.747 73.3835 104.047 72.9744 102.615 72.1562C101.191 71.3295 100.096 70.1619 99.3292 68.6534C98.5621 67.1364 98.1786 65.3509 98.1786 63.2969C98.1786 61.277 98.5621 59.5043 99.3292 57.9787C100.105 56.4446 101.187 55.2514 102.576 54.3991C103.966 53.5384 105.598 53.108 107.473 53.108C108.683 53.108 109.825 53.304 110.899 53.696C111.981 54.0795 112.936 54.6761 113.762 55.4858C114.598 56.2955 115.254 57.3267 115.731 58.5795C116.208 59.8239 116.447 61.3068 116.447 63.0284V64.4474H100.352V61.3281H112.011C112.002 60.4418 111.811 59.6534 111.436 58.9631C111.061 58.2642 110.537 57.7145 109.863 57.3139C109.199 56.9134 108.423 56.7131 107.537 56.7131C106.591 56.7131 105.76 56.9432 105.044 57.4034C104.328 57.8551 103.77 58.4517 103.369 59.1932C102.977 59.9261 102.777 60.7315 102.768 61.6094V64.3324C102.768 65.4744 102.977 66.4545 103.395 67.2727C103.812 68.0824 104.396 68.7045 105.146 69.1392C105.896 69.5653 106.774 69.7784 107.779 69.7784C108.453 69.7784 109.062 69.6847 109.608 69.4972C110.153 69.3011 110.626 69.0156 111.027 68.6406C111.427 68.2656 111.73 67.8011 111.934 67.2472L116.255 67.733C115.983 68.875 115.463 69.8722 114.696 70.7244C113.937 71.5682 112.966 72.2244 111.781 72.6932C110.596 73.1534 109.241 73.3835 107.716 73.3835ZM128.902 80.7727C127.24 80.7727 125.813 80.5469 124.619 80.0952C123.426 79.652 122.467 79.0554 121.743 78.3054C121.018 77.5554 120.516 76.7244 120.234 75.8125L124.402 74.8026C124.589 75.1861 124.862 75.5653 125.22 75.9403C125.578 76.3239 126.06 76.6392 126.665 76.8864C127.278 77.142 128.05 77.2699 128.979 77.2699C130.291 77.2699 131.378 76.9503 132.239 76.3111C133.099 75.6804 133.53 74.6406 133.53 73.1918V69.4716H133.3C133.061 69.9489 132.712 70.4389 132.251 70.9418C131.8 71.4446 131.199 71.8665 130.449 72.2074C129.707 72.5483 128.774 72.7188 127.649 72.7188C126.141 72.7188 124.773 72.3651 123.545 71.6577C122.327 70.9418 121.355 69.8764 120.631 68.4616C119.915 67.0384 119.557 65.2571 119.557 63.1179C119.557 60.9616 119.915 59.142 120.631 57.6591C121.355 56.1676 122.331 55.0384 123.558 54.2713C124.786 53.4957 126.153 53.108 127.662 53.108C128.813 53.108 129.759 53.304 130.5 53.696C131.25 54.0795 131.847 54.544 132.29 55.0895C132.733 55.6264 133.07 56.1335 133.3 56.6108H133.555V53.3636H138.119V73.3196C138.119 74.9986 137.719 76.3878 136.918 77.4872C136.116 78.5866 135.021 79.4091 133.632 79.9545C132.243 80.5 130.666 80.7727 128.902 80.7727ZM128.94 69.0881C129.92 69.0881 130.756 68.8494 131.446 68.3722C132.136 67.8949 132.661 67.2088 133.018 66.3139C133.376 65.419 133.555 64.3452 133.555 63.0923C133.555 61.8565 133.376 60.7741 133.018 59.8452C132.669 58.9162 132.149 58.196 131.459 57.6847C130.777 57.1648 129.938 56.9048 128.94 56.9048C127.909 56.9048 127.048 57.1733 126.358 57.7102C125.668 58.2472 125.148 58.9844 124.798 59.9219C124.449 60.8509 124.274 61.9077 124.274 63.0923C124.274 64.294 124.449 65.3466 124.798 66.25C125.156 67.1449 125.68 67.8437 126.371 68.3466C127.07 68.8409 127.926 69.0881 128.94 69.0881ZM142.862 73V53.3636H147.349V56.6364H147.554C147.912 55.5028 148.526 54.6293 149.395 54.0156C150.273 53.3935 151.274 53.0824 152.399 53.0824C152.655 53.0824 152.94 53.0952 153.256 53.1207C153.58 53.1378 153.848 53.1676 154.061 53.2102V57.4673C153.865 57.3991 153.554 57.3395 153.128 57.2884C152.71 57.2287 152.305 57.1989 151.913 57.1989C151.07 57.1989 150.311 57.3821 149.638 57.7486C148.973 58.1065 148.449 58.6051 148.065 59.2443C147.682 59.8835 147.49 60.6207 147.49 61.456V73H142.862ZM162.435 73.3963C161.19 73.3963 160.07 73.1747 159.072 72.7315C158.084 72.2798 157.3 71.6151 156.72 70.7372C156.149 69.8594 155.864 68.777 155.864 67.4901C155.864 66.3821 156.068 65.4659 156.477 64.7415C156.886 64.017 157.445 63.4375 158.152 63.0028C158.859 62.5682 159.656 62.2401 160.543 62.0185C161.438 61.7884 162.362 61.6222 163.317 61.5199C164.467 61.4006 165.401 61.294 166.116 61.2003C166.832 61.098 167.352 60.9446 167.676 60.7401C168.009 60.527 168.175 60.1989 168.175 59.7557V59.679C168.175 58.7159 167.889 57.9702 167.318 57.4418C166.747 56.9134 165.925 56.6491 164.851 56.6491C163.717 56.6491 162.818 56.8963 162.153 57.3906C161.497 57.8849 161.054 58.4687 160.824 59.142L156.503 58.5284C156.844 57.3352 157.406 56.3381 158.19 55.5369C158.974 54.7273 159.933 54.1222 161.067 53.7216C162.2 53.3125 163.453 53.108 164.825 53.108C165.771 53.108 166.713 53.2188 167.651 53.4403C168.588 53.6619 169.445 54.0284 170.22 54.5398C170.996 55.0426 171.618 55.7287 172.087 56.598C172.564 57.4673 172.803 58.554 172.803 59.858V73H168.354V70.3026H168.2C167.919 70.848 167.523 71.3594 167.011 71.8366C166.509 72.3054 165.874 72.6847 165.107 72.9744C164.348 73.2557 163.457 73.3963 162.435 73.3963ZM163.636 69.9957C164.565 69.9957 165.371 69.8125 166.053 69.446C166.734 69.071 167.259 68.5767 167.625 67.9631C168 67.3494 168.188 66.6804 168.188 65.956V63.642C168.043 63.7614 167.795 63.8722 167.446 63.9744C167.105 64.0767 166.722 64.1662 166.295 64.2429C165.869 64.3196 165.447 64.3878 165.03 64.4474C164.612 64.5071 164.25 64.5582 163.943 64.6009C163.253 64.6946 162.635 64.848 162.089 65.0611C161.544 65.2741 161.114 65.5724 160.798 65.956C160.483 66.331 160.325 66.8168 160.325 67.4134C160.325 68.2656 160.636 68.9091 161.259 69.3438C161.881 69.7784 162.673 69.9957 163.636 69.9957ZM177.456 73V53.3636H181.879V56.7003H182.109C182.518 55.5753 183.196 54.6974 184.142 54.0668C185.088 53.4276 186.217 53.108 187.53 53.108C188.859 53.108 189.98 53.4318 190.892 54.0795C191.813 54.7187 192.46 55.5923 192.835 56.7003H193.04C193.474 55.6094 194.207 54.7401 195.239 54.0923C196.278 53.4361 197.51 53.108 198.933 53.108C200.74 53.108 202.214 53.679 203.357 54.821C204.499 55.9631 205.07 57.6293 205.07 59.8196V73H200.429V60.5355C200.429 59.3168 200.105 58.4261 199.457 57.8636C198.81 57.2926 198.017 57.0071 197.08 57.0071C195.963 57.0071 195.089 57.3565 194.459 58.0554C193.837 58.7457 193.526 59.6449 193.526 60.7528V73H188.987V60.3438C188.987 59.3295 188.68 58.5199 188.067 57.9148C187.462 57.3097 186.669 57.0071 185.689 57.0071C185.024 57.0071 184.419 57.1776 183.874 57.5185C183.328 57.8509 182.893 58.3239 182.57 58.9375C182.246 59.5426 182.084 60.25 182.084 61.0597V73H177.456Z" fill="black" fill-opacity="0.5"/>
</g>
<path d="M56.8977 123.602C55.1591 123.602 53.6222 123.364 52.2869 122.886C50.9517 122.415 49.8295 121.719 48.9205 120.798C48.0114 119.878 47.3239 118.75 46.858 117.415C46.392 116.08 46.1591 114.551 46.1591 112.83C46.1591 111.165 46.3949 109.676 46.8665 108.364C47.3438 107.051 48.0341 105.938 48.9375 105.023C49.8466 104.102 50.9489 103.401 52.2443 102.918C53.5455 102.435 55.017 102.193 56.6591 102.193C58.2557 102.193 59.6534 102.455 60.8523 102.977C62.0568 103.494 63.0625 104.196 63.8693 105.082C64.6818 105.963 65.2898 106.955 65.6932 108.057C66.1023 109.159 66.3068 110.295 66.3068 111.466C66.3068 112.29 66.267 113.125 66.1875 113.972C66.108 114.818 65.9403 115.597 65.6847 116.307C65.429 117.011 65.0341 117.58 64.5 118.011C63.9716 118.443 63.2557 118.659 62.3523 118.659C61.9545 118.659 61.517 118.597 61.0398 118.472C60.5625 118.347 60.1392 118.139 59.7699 117.849C59.4006 117.56 59.1818 117.17 59.1136 116.682H59.0114C58.875 117.011 58.6648 117.324 58.3807 117.619C58.1023 117.915 57.7358 118.151 57.2812 118.327C56.8324 118.503 56.2841 118.58 55.6364 118.557C54.8977 118.528 54.2472 118.364 53.6847 118.062C53.1222 117.756 52.6506 117.341 52.2699 116.818C51.8949 116.29 51.6108 115.679 51.4176 114.986C51.2301 114.287 51.1364 113.534 51.1364 112.727C51.1364 111.96 51.25 111.259 51.4773 110.622C51.7045 109.986 52.0199 109.429 52.4233 108.952C52.8324 108.474 53.3097 108.094 53.8551 107.81C54.4063 107.52 55 107.341 55.6364 107.273C56.2045 107.216 56.7216 107.241 57.1875 107.349C57.6534 107.452 58.0369 107.608 58.3381 107.818C58.6392 108.023 58.8295 108.25 58.9091 108.5H59.0114V107.545H60.8182V115.25C60.8182 115.727 60.9517 116.148 61.2188 116.511C61.4858 116.875 61.875 117.057 62.3864 117.057C62.9659 117.057 63.4091 116.858 63.7159 116.46C64.0284 116.062 64.2415 115.449 64.3551 114.619C64.4744 113.79 64.5341 112.727 64.5341 111.432C64.5341 110.67 64.429 109.92 64.2188 109.182C64.0142 108.437 63.7017 107.741 63.2812 107.094C62.8665 106.446 62.3409 105.875 61.7045 105.381C61.0682 104.886 60.321 104.5 59.4631 104.222C58.6108 103.937 57.642 103.795 56.5568 103.795C55.2216 103.795 54.0256 104.003 52.9688 104.418C51.9176 104.827 51.0227 105.426 50.2841 106.216C49.5511 107 48.9915 107.955 48.6051 109.08C48.2244 110.199 48.0341 111.472 48.0341 112.898C48.0341 114.347 48.2244 115.634 48.6051 116.759C48.9915 117.884 49.5597 118.832 50.3097 119.605C51.0653 120.378 52 120.963 53.1136 121.361C54.2273 121.764 55.5114 121.966 56.9659 121.966C57.5909 121.966 58.2074 121.906 58.8153 121.787C59.4233 121.668 59.9602 121.537 60.4261 121.395C60.892 121.253 61.2273 121.148 61.4318 121.08L61.9091 122.648C61.5568 122.795 61.0966 122.943 60.5284 123.091C59.9659 123.239 59.3636 123.361 58.7216 123.457C58.0852 123.554 57.4773 123.602 56.8977 123.602ZM55.9091 116.818C56.6705 116.818 57.2869 116.665 57.7585 116.358C58.2301 116.051 58.5739 115.588 58.7898 114.969C59.0057 114.349 59.1136 113.568 59.1136 112.625C59.1136 111.67 58.9943 110.926 58.7557 110.392C58.517 109.858 58.1648 109.483 57.6989 109.267C57.233 109.051 56.6591 108.943 55.9773 108.943C55.3295 108.943 54.7756 109.114 54.3153 109.455C53.8608 109.79 53.5114 110.239 53.267 110.801C53.0284 111.358 52.9091 111.966 52.9091 112.625C52.9091 113.352 53.0057 114.037 53.1989 114.679C53.392 115.315 53.7074 115.832 54.1449 116.23C54.5824 116.622 55.1705 116.818 55.9091 116.818ZM69.3175 123.909V105.909H71.2607V107.989H71.4993C71.647 107.761 71.8516 107.472 72.1129 107.119C72.38 106.761 72.7607 106.443 73.255 106.165C73.755 105.881 74.4311 105.739 75.2834 105.739C76.3857 105.739 77.3572 106.014 78.1982 106.565C79.0391 107.116 79.6953 107.898 80.1669 108.909C80.6385 109.92 80.8743 111.114 80.8743 112.489C80.8743 113.875 80.6385 115.077 80.1669 116.094C79.6953 117.105 79.0419 117.889 78.2067 118.446C77.3714 118.997 76.4084 119.273 75.3175 119.273C74.4766 119.273 73.8033 119.134 73.2976 118.855C72.7919 118.571 72.4027 118.25 72.13 117.892C71.8572 117.528 71.647 117.227 71.4993 116.989H71.3288V123.909H69.3175ZM71.2947 112.455C71.2947 113.443 71.4396 114.315 71.7294 115.071C72.0192 115.821 72.4425 116.409 72.9993 116.835C73.5561 117.256 74.2379 117.466 75.0447 117.466C75.8857 117.466 76.5874 117.244 77.1499 116.801C77.718 116.352 78.1442 115.75 78.4283 114.994C78.718 114.233 78.8629 113.386 78.8629 112.455C78.8629 111.534 78.7209 110.705 78.4368 109.966C78.1584 109.222 77.7351 108.634 77.1669 108.202C76.6044 107.764 75.897 107.545 75.0447 107.545C74.2266 107.545 73.5391 107.753 72.9822 108.168C72.4254 108.577 72.005 109.151 71.7209 109.889C71.4368 110.622 71.2947 111.477 71.2947 112.455ZM87.7947 119.307C86.9652 119.307 86.2124 119.151 85.5362 118.838C84.8601 118.52 84.3232 118.062 83.9254 117.466C83.5277 116.864 83.3288 116.136 83.3288 115.284C83.3288 114.534 83.4766 113.926 83.772 113.46C84.0675 112.989 84.4624 112.619 84.9567 112.352C85.451 112.085 85.9964 111.886 86.593 111.756C87.1953 111.619 87.8004 111.511 88.4084 111.432C89.2038 111.33 89.8487 111.253 90.343 111.202C90.843 111.145 91.2067 111.051 91.4339 110.92C91.6669 110.79 91.7834 110.562 91.7834 110.239V110.17C91.7834 109.33 91.5533 108.676 91.093 108.21C90.6385 107.744 89.9482 107.511 89.022 107.511C88.0618 107.511 87.3089 107.722 86.7635 108.142C86.218 108.562 85.8345 109.011 85.6129 109.489L83.7038 108.807C84.0447 108.011 84.4993 107.392 85.0675 106.949C85.6413 106.5 86.2663 106.187 86.9425 106.011C87.6243 105.83 88.2947 105.739 88.9538 105.739C89.3743 105.739 89.8572 105.79 90.4027 105.892C90.9538 105.989 91.4851 106.19 91.9964 106.497C92.5135 106.804 92.9425 107.267 93.2834 107.886C93.6243 108.506 93.7947 109.335 93.7947 110.375V119H91.7834V117.227H91.6811C91.5447 117.511 91.3175 117.815 90.9993 118.139C90.6811 118.463 90.2578 118.739 89.7294 118.966C89.201 119.193 88.5561 119.307 87.7947 119.307ZM88.1016 117.5C88.897 117.5 89.5675 117.344 90.1129 117.031C90.6641 116.719 91.0788 116.315 91.3572 115.821C91.6413 115.327 91.7834 114.807 91.7834 114.261V112.42C91.6982 112.523 91.5107 112.616 91.2209 112.702C90.9368 112.781 90.6072 112.852 90.2322 112.915C89.8629 112.972 89.5021 113.023 89.1499 113.068C88.8033 113.108 88.522 113.142 88.3061 113.17C87.7834 113.239 87.2947 113.349 86.8402 113.503C86.3913 113.651 86.0277 113.875 85.7493 114.176C85.4766 114.472 85.3402 114.875 85.3402 115.386C85.3402 116.085 85.5987 116.614 86.1158 116.972C86.6385 117.324 87.3004 117.5 88.1016 117.5ZM99.4773 111.125V119H97.4659V105.909H99.4091V107.955H99.5795C99.8864 107.29 100.352 106.756 100.977 106.352C101.602 105.943 102.409 105.739 103.398 105.739C104.284 105.739 105.06 105.92 105.724 106.284C106.389 106.642 106.906 107.188 107.276 107.92C107.645 108.648 107.83 109.568 107.83 110.682V119H105.818V110.818C105.818 109.79 105.551 108.989 105.017 108.415C104.483 107.835 103.75 107.545 102.818 107.545C102.176 107.545 101.602 107.685 101.097 107.963C100.597 108.241 100.202 108.648 99.9119 109.182C99.6222 109.716 99.4773 110.364 99.4773 111.125ZM117.028 101.307C117.744 101.312 118.46 101.449 119.175 101.716C119.891 101.983 120.545 102.426 121.136 103.045C121.727 103.659 122.201 104.497 122.559 105.56C122.917 106.622 123.096 107.955 123.096 109.557C123.096 111.108 122.948 112.486 122.653 113.69C122.363 114.889 121.942 115.901 121.391 116.724C120.846 117.548 120.181 118.173 119.397 118.599C118.619 119.026 117.738 119.239 116.755 119.239C115.778 119.239 114.906 119.045 114.138 118.659C113.377 118.267 112.752 117.724 112.263 117.031C111.781 116.332 111.471 115.523 111.335 114.602H113.414C113.602 115.403 113.974 116.065 114.531 116.588C115.093 117.105 115.835 117.364 116.755 117.364C118.102 117.364 119.164 116.776 119.942 115.599C120.727 114.423 121.119 112.761 121.119 110.614H120.982C120.664 111.091 120.286 111.503 119.849 111.849C119.411 112.196 118.925 112.463 118.391 112.651C117.857 112.838 117.289 112.932 116.687 112.932C115.687 112.932 114.769 112.685 113.934 112.19C113.104 111.69 112.44 111.006 111.94 110.136C111.445 109.261 111.198 108.261 111.198 107.136C111.198 106.068 111.437 105.091 111.914 104.205C112.397 103.312 113.073 102.602 113.942 102.074C114.817 101.545 115.846 101.29 117.028 101.307ZM117.028 103.182C116.312 103.182 115.667 103.361 115.093 103.719C114.525 104.071 114.073 104.548 113.738 105.151C113.408 105.747 113.244 106.409 113.244 107.136C113.244 107.864 113.403 108.526 113.721 109.122C114.045 109.713 114.485 110.185 115.042 110.537C115.604 110.884 116.244 111.057 116.96 111.057C117.499 111.057 118.002 110.952 118.468 110.741C118.934 110.526 119.34 110.233 119.687 109.864C120.039 109.489 120.315 109.065 120.513 108.594C120.712 108.116 120.812 107.619 120.812 107.102C120.812 106.42 120.647 105.781 120.317 105.185C119.994 104.588 119.545 104.105 118.971 103.736C118.403 103.366 117.755 103.182 117.028 103.182ZM132.345 119.239C131.22 119.239 130.217 119.045 129.337 118.659C128.462 118.273 127.766 117.736 127.249 117.048C126.737 116.355 126.459 115.551 126.413 114.636H128.561C128.607 115.199 128.8 115.685 129.141 116.094C129.482 116.497 129.928 116.81 130.479 117.031C131.03 117.253 131.641 117.364 132.311 117.364C133.061 117.364 133.726 117.233 134.305 116.972C134.885 116.71 135.339 116.347 135.669 115.881C135.999 115.415 136.163 114.875 136.163 114.261C136.163 113.619 136.004 113.054 135.686 112.565C135.368 112.071 134.902 111.685 134.288 111.406C133.675 111.128 132.925 110.989 132.038 110.989H130.641V109.114H132.038C132.732 109.114 133.339 108.989 133.862 108.739C134.391 108.489 134.803 108.136 135.098 107.682C135.399 107.227 135.55 106.693 135.55 106.08C135.55 105.489 135.419 104.974 135.158 104.537C134.896 104.099 134.527 103.759 134.05 103.514C133.578 103.27 133.021 103.148 132.379 103.148C131.777 103.148 131.209 103.259 130.675 103.48C130.146 103.696 129.714 104.011 129.379 104.426C129.044 104.835 128.862 105.33 128.834 105.909H126.788C126.822 104.994 127.098 104.193 127.615 103.506C128.132 102.812 128.808 102.273 129.643 101.886C130.484 101.5 131.408 101.307 132.413 101.307C133.493 101.307 134.419 101.526 135.192 101.963C135.964 102.395 136.558 102.966 136.973 103.676C137.388 104.386 137.595 105.153 137.595 105.977C137.595 106.96 137.337 107.798 136.82 108.491C136.308 109.185 135.612 109.665 134.732 109.932V110.068C135.834 110.25 136.695 110.719 137.314 111.474C137.933 112.224 138.243 113.153 138.243 114.261C138.243 115.21 137.984 116.062 137.467 116.818C136.956 117.568 136.257 118.159 135.371 118.591C134.484 119.023 133.476 119.239 132.345 119.239ZM141.32 115.42V113.682L148.99 101.545H150.251V104.239H149.399L143.604 113.409V113.545H153.933V115.42H141.32ZM149.536 119V114.892V114.082V101.545H151.547V119H149.536ZM163.029 101.545V119H160.915V103.761H160.813L156.552 106.591V104.443L160.915 101.545H163.029ZM168.049 119V117.466L173.81 111.159C174.487 110.42 175.043 109.778 175.481 109.233C175.918 108.682 176.242 108.165 176.452 107.682C176.668 107.193 176.776 106.682 176.776 106.148C176.776 105.534 176.629 105.003 176.333 104.554C176.043 104.105 175.646 103.759 175.14 103.514C174.634 103.27 174.066 103.148 173.435 103.148C172.765 103.148 172.18 103.287 171.68 103.565C171.185 103.838 170.802 104.222 170.529 104.716C170.262 105.21 170.129 105.79 170.129 106.455H168.117C168.117 105.432 168.353 104.534 168.825 103.761C169.296 102.989 169.938 102.386 170.751 101.955C171.569 101.523 172.487 101.307 173.504 101.307C174.526 101.307 175.433 101.523 176.222 101.955C177.012 102.386 177.631 102.969 178.08 103.702C178.529 104.435 178.754 105.25 178.754 106.148C178.754 106.79 178.637 107.418 178.404 108.031C178.177 108.639 177.779 109.318 177.211 110.068C176.648 110.812 175.867 111.722 174.867 112.795L170.947 116.989V117.125H179.06V119H168.049ZM191.648 119V120.875H180.739V119H191.648ZM194.567 119V105.909H196.511V107.886H196.647C196.886 107.239 197.317 106.713 197.942 106.31C198.567 105.906 199.272 105.705 200.056 105.705C200.204 105.705 200.388 105.707 200.61 105.713C200.832 105.719 200.999 105.727 201.113 105.739V107.784C201.045 107.767 200.888 107.741 200.644 107.707C200.406 107.668 200.153 107.648 199.886 107.648C199.249 107.648 198.681 107.781 198.181 108.048C197.687 108.31 197.295 108.673 197.005 109.139C196.721 109.599 196.579 110.125 196.579 110.716V119H194.567Z" fill="black"/>
</svg>
