<svg width="500" height="160" viewBox="0 0 500 160" fill="none" xmlns="http://www.w3.org/2000/svg">
<rect width="500" height="160" rx="30" fill="white"/>
<rect width="500" height="160" rx="30" fill="#00ACEE" fill-opacity="0.2"/>
<g opacity="0.9">
<path d="M46.4318 50.794V46.8182H67.321V50.794H59.2287V73H54.5241V50.794H46.4318ZM72.946 73L67.3977 53.3636H72.1151L75.5668 67.1705H75.7457L79.2741 53.3636H83.9403L87.4688 67.0938H87.6605L91.0611 53.3636H95.7912L90.2301 73H85.4105L81.7287 59.7301H81.4602L77.7784 73H72.946ZM99.0224 73V53.3636H103.65V73H99.0224ZM101.349 50.5767C100.616 50.5767 99.9854 50.3338 99.457 49.848C98.9286 49.3537 98.6644 48.7614 98.6644 48.071C98.6644 47.3722 98.9286 46.7798 99.457 46.294C99.9854 45.7997 100.616 45.5526 101.349 45.5526C102.091 45.5526 102.721 45.7997 103.241 46.294C103.77 46.7798 104.034 47.3722 104.034 48.071C104.034 48.7614 103.77 49.3537 103.241 49.848C102.721 50.3338 102.091 50.5767 101.349 50.5767ZM118.214 53.3636V56.9432H106.926V53.3636H118.214ZM109.713 48.6591H114.341V67.0938C114.341 67.7159 114.435 68.1932 114.622 68.5256C114.818 68.8494 115.074 69.071 115.389 69.1903C115.705 69.3097 116.054 69.3693 116.438 69.3693C116.727 69.3693 116.991 69.348 117.23 69.3054C117.477 69.2628 117.665 69.2244 117.793 69.1903L118.572 72.8082C118.325 72.8935 117.972 72.9872 117.511 73.0895C117.06 73.1918 116.506 73.2514 115.849 73.2685C114.69 73.3026 113.646 73.1278 112.717 72.7443C111.788 72.3523 111.051 71.7472 110.506 70.929C109.969 70.1108 109.705 69.0881 109.713 67.8608V48.6591ZM131.89 53.3636V56.9432H120.602V53.3636H131.89ZM123.389 48.6591H128.017V67.0938C128.017 67.7159 128.11 68.1932 128.298 68.5256C128.494 68.8494 128.75 69.071 129.065 69.1903C129.38 69.3097 129.73 69.3693 130.113 69.3693C130.403 69.3693 130.667 69.348 130.906 69.3054C131.153 69.2628 131.341 69.2244 131.468 69.1903L132.248 72.8082C132.001 72.8935 131.647 72.9872 131.187 73.0895C130.735 73.1918 130.181 73.2514 129.525 73.2685C128.366 73.3026 127.322 73.1278 126.393 72.7443C125.464 72.3523 124.727 71.7472 124.181 70.929C123.645 70.1108 123.38 69.0881 123.389 67.8608V48.6591ZM144.243 73.3835C142.274 73.3835 140.574 72.9744 139.142 72.1562C137.719 71.3295 136.624 70.1619 135.857 68.6534C135.089 67.1364 134.706 65.3509 134.706 63.2969C134.706 61.277 135.089 59.5043 135.857 57.9787C136.632 56.4446 137.714 55.2514 139.104 54.3991C140.493 53.5384 142.125 53.108 144 53.108C145.21 53.108 146.352 53.304 147.426 53.696C148.509 54.0795 149.463 54.6761 150.29 55.4858C151.125 56.2955 151.781 57.3267 152.259 58.5795C152.736 59.8239 152.974 61.3068 152.974 63.0284V64.4474H136.879V61.3281H148.538C148.53 60.4418 148.338 59.6534 147.963 58.9631C147.588 58.2642 147.064 57.7145 146.391 57.3139C145.726 56.9134 144.95 56.7131 144.064 56.7131C143.118 56.7131 142.287 56.9432 141.571 57.4034C140.855 57.8551 140.297 58.4517 139.896 59.1932C139.504 59.9261 139.304 60.7315 139.295 61.6094V64.3324C139.295 65.4744 139.504 66.4545 139.922 67.2727C140.339 68.0824 140.923 68.7045 141.673 69.1392C142.423 69.5653 143.301 69.7784 144.307 69.7784C144.98 69.7784 145.589 69.6847 146.135 69.4972C146.68 69.3011 147.153 69.0156 147.554 68.6406C147.955 68.2656 148.257 67.8011 148.462 67.2472L152.783 67.733C152.51 68.875 151.99 69.8722 151.223 70.7244C150.464 71.5682 149.493 72.2244 148.308 72.6932C147.124 73.1534 145.768 73.3835 144.243 73.3835ZM156.89 73V53.3636H161.377V56.6364H161.581C161.939 55.5028 162.553 54.6293 163.422 54.0156C164.3 53.3935 165.301 53.0824 166.426 53.0824C166.682 53.0824 166.968 53.0952 167.283 53.1207C167.607 53.1378 167.875 53.1676 168.088 53.2102V57.4673C167.892 57.3991 167.581 57.3395 167.155 57.2884C166.738 57.2287 166.333 57.1989 165.941 57.1989C165.097 57.1989 164.338 57.3821 163.665 57.7486C163 58.1065 162.476 58.6051 162.093 59.2443C161.709 59.8835 161.517 60.6207 161.517 61.456V73H156.89Z" fill="#00ACEE"/>
<path d="M46.4318 50.794V46.8182H67.321V50.794H59.2287V73H54.5241V50.794H46.4318ZM72.946 73L67.3977 53.3636H72.1151L75.5668 67.1705H75.7457L79.2741 53.3636H83.9403L87.4688 67.0938H87.6605L91.0611 53.3636H95.7912L90.2301 73H85.4105L81.7287 59.7301H81.4602L77.7784 73H72.946ZM99.0224 73V53.3636H103.65V73H99.0224ZM101.349 50.5767C100.616 50.5767 99.9854 50.3338 99.457 49.848C98.9286 49.3537 98.6644 48.7614 98.6644 48.071C98.6644 47.3722 98.9286 46.7798 99.457 46.294C99.9854 45.7997 100.616 45.5526 101.349 45.5526C102.091 45.5526 102.721 45.7997 103.241 46.294C103.77 46.7798 104.034 47.3722 104.034 48.071C104.034 48.7614 103.77 49.3537 103.241 49.848C102.721 50.3338 102.091 50.5767 101.349 50.5767ZM118.214 53.3636V56.9432H106.926V53.3636H118.214ZM109.713 48.6591H114.341V67.0938C114.341 67.7159 114.435 68.1932 114.622 68.5256C114.818 68.8494 115.074 69.071 115.389 69.1903C115.705 69.3097 116.054 69.3693 116.438 69.3693C116.727 69.3693 116.991 69.348 117.23 69.3054C117.477 69.2628 117.665 69.2244 117.793 69.1903L118.572 72.8082C118.325 72.8935 117.972 72.9872 117.511 73.0895C117.06 73.1918 116.506 73.2514 115.849 73.2685C114.69 73.3026 113.646 73.1278 112.717 72.7443C111.788 72.3523 111.051 71.7472 110.506 70.929C109.969 70.1108 109.705 69.0881 109.713 67.8608V48.6591ZM131.89 53.3636V56.9432H120.602V53.3636H131.89ZM123.389 48.6591H128.017V67.0938C128.017 67.7159 128.11 68.1932 128.298 68.5256C128.494 68.8494 128.75 69.071 129.065 69.1903C129.38 69.3097 129.73 69.3693 130.113 69.3693C130.403 69.3693 130.667 69.348 130.906 69.3054C131.153 69.2628 131.341 69.2244 131.468 69.1903L132.248 72.8082C132.001 72.8935 131.647 72.9872 131.187 73.0895C130.735 73.1918 130.181 73.2514 129.525 73.2685C128.366 73.3026 127.322 73.1278 126.393 72.7443C125.464 72.3523 124.727 71.7472 124.181 70.929C123.645 70.1108 123.38 69.0881 123.389 67.8608V48.6591ZM144.243 73.3835C142.274 73.3835 140.574 72.9744 139.142 72.1562C137.719 71.3295 136.624 70.1619 135.857 68.6534C135.089 67.1364 134.706 65.3509 134.706 63.2969C134.706 61.277 135.089 59.5043 135.857 57.9787C136.632 56.4446 137.714 55.2514 139.104 54.3991C140.493 53.5384 142.125 53.108 144 53.108C145.21 53.108 146.352 53.304 147.426 53.696C148.509 54.0795 149.463 54.6761 150.29 55.4858C151.125 56.2955 151.781 57.3267 152.259 58.5795C152.736 59.8239 152.974 61.3068 152.974 63.0284V64.4474H136.879V61.3281H148.538C148.53 60.4418 148.338 59.6534 147.963 58.9631C147.588 58.2642 147.064 57.7145 146.391 57.3139C145.726 56.9134 144.95 56.7131 144.064 56.7131C143.118 56.7131 142.287 56.9432 141.571 57.4034C140.855 57.8551 140.297 58.4517 139.896 59.1932C139.504 59.9261 139.304 60.7315 139.295 61.6094V64.3324C139.295 65.4744 139.504 66.4545 139.922 67.2727C140.339 68.0824 140.923 68.7045 141.673 69.1392C142.423 69.5653 143.301 69.7784 144.307 69.7784C144.98 69.7784 145.589 69.6847 146.135 69.4972C146.68 69.3011 147.153 69.0156 147.554 68.6406C147.955 68.2656 148.257 67.8011 148.462 67.2472L152.783 67.733C152.51 68.875 151.99 69.8722 151.223 70.7244C150.464 71.5682 149.493 72.2244 148.308 72.6932C147.124 73.1534 145.768 73.3835 144.243 73.3835ZM156.89 73V53.3636H161.377V56.6364H161.581C161.939 55.5028 162.553 54.6293 163.422 54.0156C164.3 53.3935 165.301 53.0824 166.426 53.0824C166.682 53.0824 166.968 53.0952 167.283 53.1207C167.607 53.1378 167.875 53.1676 168.088 53.2102V57.4673C167.892 57.3991 167.581 57.3395 167.155 57.2884C166.738 57.2287 166.333 57.1989 165.941 57.1989C165.097 57.1989 164.338 57.3821 163.665 57.7486C163 58.1065 162.476 58.6051 162.093 59.2443C161.709 59.8835 161.517 60.6207 161.517 61.456V73H156.89Z" fill="black" fill-opacity="0.5"/>
</g>
<path d="M56.8977 123.602C55.1591 123.602 53.6222 123.364 52.2869 122.886C50.9517 122.415 49.8295 121.719 48.9205 120.798C48.0114 119.878 47.3239 118.75 46.858 117.415C46.392 116.08 46.1591 114.551 46.1591 112.83C46.1591 111.165 46.3949 109.676 46.8665 108.364C47.3438 107.051 48.0341 105.938 48.9375 105.023C49.8466 104.102 50.9489 103.401 52.2443 102.918C53.5455 102.435 55.017 102.193 56.6591 102.193C58.2557 102.193 59.6534 102.455 60.8523 102.977C62.0568 103.494 63.0625 104.196 63.8693 105.082C64.6818 105.963 65.2898 106.955 65.6932 108.057C66.1023 109.159 66.3068 110.295 66.3068 111.466C66.3068 112.29 66.267 113.125 66.1875 113.972C66.108 114.818 65.9403 115.597 65.6847 116.307C65.429 117.011 65.0341 117.58 64.5 118.011C63.9716 118.443 63.2557 118.659 62.3523 118.659C61.9545 118.659 61.517 118.597 61.0398 118.472C60.5625 118.347 60.1392 118.139 59.7699 117.849C59.4006 117.56 59.1818 117.17 59.1136 116.682H59.0114C58.875 117.011 58.6648 117.324 58.3807 117.619C58.1023 117.915 57.7358 118.151 57.2812 118.327C56.8324 118.503 56.2841 118.58 55.6364 118.557C54.8977 118.528 54.2472 118.364 53.6847 118.062C53.1222 117.756 52.6506 117.341 52.2699 116.818C51.8949 116.29 51.6108 115.679 51.4176 114.986C51.2301 114.287 51.1364 113.534 51.1364 112.727C51.1364 111.96 51.25 111.259 51.4773 110.622C51.7045 109.986 52.0199 109.429 52.4233 108.952C52.8324 108.474 53.3097 108.094 53.8551 107.81C54.4063 107.52 55 107.341 55.6364 107.273C56.2045 107.216 56.7216 107.241 57.1875 107.349C57.6534 107.452 58.0369 107.608 58.3381 107.818C58.6392 108.023 58.8295 108.25 58.9091 108.5H59.0114V107.545H60.8182V115.25C60.8182 115.727 60.9517 116.148 61.2188 116.511C61.4858 116.875 61.875 117.057 62.3864 117.057C62.9659 117.057 63.4091 116.858 63.7159 116.46C64.0284 116.062 64.2415 115.449 64.3551 114.619C64.4744 113.79 64.5341 112.727 64.5341 111.432C64.5341 110.67 64.429 109.92 64.2188 109.182C64.0142 108.437 63.7017 107.741 63.2812 107.094C62.8665 106.446 62.3409 105.875 61.7045 105.381C61.0682 104.886 60.321 104.5 59.4631 104.222C58.6108 103.937 57.642 103.795 56.5568 103.795C55.2216 103.795 54.0256 104.003 52.9688 104.418C51.9176 104.827 51.0227 105.426 50.2841 106.216C49.5511 107 48.9915 107.955 48.6051 109.08C48.2244 110.199 48.0341 111.472 48.0341 112.898C48.0341 114.347 48.2244 115.634 48.6051 116.759C48.9915 117.884 49.5597 118.832 50.3097 119.605C51.0653 120.378 52 120.963 53.1136 121.361C54.2273 121.764 55.5114 121.966 56.9659 121.966C57.5909 121.966 58.2074 121.906 58.8153 121.787C59.4233 121.668 59.9602 121.537 60.4261 121.395C60.892 121.253 61.2273 121.148 61.4318 121.08L61.9091 122.648C61.5568 122.795 61.0966 122.943 60.5284 123.091C59.9659 123.239 59.3636 123.361 58.7216 123.457C58.0852 123.554 57.4773 123.602 56.8977 123.602ZM55.9091 116.818C56.6705 116.818 57.2869 116.665 57.7585 116.358C58.2301 116.051 58.5739 115.588 58.7898 114.969C59.0057 114.349 59.1136 113.568 59.1136 112.625C59.1136 111.67 58.9943 110.926 58.7557 110.392C58.517 109.858 58.1648 109.483 57.6989 109.267C57.233 109.051 56.6591 108.943 55.9773 108.943C55.3295 108.943 54.7756 109.114 54.3153 109.455C53.8608 109.79 53.5114 110.239 53.267 110.801C53.0284 111.358 52.9091 111.966 52.9091 112.625C52.9091 113.352 53.0057 114.037 53.1989 114.679C53.392 115.315 53.7074 115.832 54.1449 116.23C54.5824 116.622 55.1705 116.818 55.9091 116.818ZM69.5902 119V101.545H71.6016V107.989H71.772C71.9197 107.761 72.1243 107.472 72.3857 107.119C72.6527 106.761 73.0334 106.443 73.5277 106.165C74.0277 105.881 74.7038 105.739 75.5561 105.739C76.6584 105.739 77.63 106.014 78.4709 106.565C79.3118 107.116 79.968 107.898 80.4396 108.909C80.9112 109.92 81.147 111.114 81.147 112.489C81.147 113.875 80.9112 115.077 80.4396 116.094C79.968 117.105 79.3146 117.889 78.4794 118.446C77.6442 118.997 76.6811 119.273 75.5902 119.273C74.7493 119.273 74.076 119.134 73.5703 118.855C73.0646 118.571 72.6754 118.25 72.4027 117.892C72.13 117.528 71.9197 117.227 71.772 116.989H71.5334V119H69.5902ZM71.5675 112.455C71.5675 113.443 71.7124 114.315 72.0021 115.071C72.2919 115.821 72.7152 116.409 73.272 116.835C73.8288 117.256 74.5107 117.466 75.3175 117.466C76.1584 117.466 76.8601 117.244 77.4226 116.801C77.9908 116.352 78.4169 115.75 78.701 114.994C78.9908 114.233 79.1357 113.386 79.1357 112.455C79.1357 111.534 78.9936 110.705 78.7095 109.966C78.4311 109.222 78.0078 108.634 77.4396 108.202C76.8771 107.764 76.1697 107.545 75.3175 107.545C74.4993 107.545 73.8118 107.753 73.255 108.168C72.6982 108.577 72.2777 109.151 71.9936 109.889C71.7095 110.622 71.5675 111.477 71.5675 112.455ZM85.0504 123.909C84.7095 123.909 84.4055 123.881 84.1385 123.824C83.8714 123.773 83.6868 123.722 83.5845 123.67L84.0959 121.898C84.5845 122.023 85.0163 122.068 85.3913 122.034C85.7663 122 86.0987 121.832 86.3885 121.531C86.6839 121.236 86.9538 120.756 87.1982 120.091L87.5732 119.068L82.7322 105.909H84.9141L88.5277 116.341H88.6641L92.2777 105.909H94.4595L88.9027 120.909C88.6527 121.585 88.343 122.145 87.9737 122.588C87.6044 123.037 87.1754 123.369 86.6868 123.585C86.2038 123.801 85.6584 123.909 85.0504 123.909ZM106.933 105.909C106.83 105.045 106.415 104.375 105.688 103.898C104.961 103.42 104.069 103.182 103.012 103.182C102.239 103.182 101.563 103.307 100.984 103.557C100.41 103.807 99.9609 104.151 99.6371 104.588C99.3189 105.026 99.1598 105.523 99.1598 106.08C99.1598 106.545 99.2706 106.946 99.4922 107.281C99.7195 107.611 100.009 107.886 100.362 108.108C100.714 108.324 101.083 108.503 101.469 108.645C101.856 108.781 102.211 108.892 102.535 108.977L104.308 109.455C104.762 109.574 105.268 109.739 105.825 109.949C106.387 110.159 106.924 110.446 107.435 110.81C107.952 111.168 108.379 111.628 108.714 112.19C109.049 112.753 109.217 113.443 109.217 114.261C109.217 115.205 108.969 116.057 108.475 116.818C107.987 117.58 107.271 118.185 106.327 118.634C105.39 119.082 104.251 119.307 102.91 119.307C101.66 119.307 100.577 119.105 99.6626 118.702C98.7536 118.298 98.0376 117.736 97.5149 117.014C96.9979 116.293 96.7053 115.455 96.6371 114.5H98.8189C98.8757 115.159 99.0973 115.705 99.4837 116.136C99.8757 116.562 100.37 116.881 100.967 117.091C101.569 117.295 102.217 117.398 102.91 117.398C103.717 117.398 104.441 117.267 105.083 117.006C105.725 116.739 106.234 116.369 106.609 115.898C106.984 115.42 107.171 114.864 107.171 114.227C107.171 113.648 107.009 113.176 106.685 112.812C106.362 112.449 105.935 112.153 105.407 111.926C104.879 111.699 104.308 111.5 103.694 111.33L101.546 110.716C100.183 110.324 99.103 109.764 98.3075 109.037C97.5121 108.31 97.1143 107.358 97.1143 106.182C97.1143 105.205 97.3786 104.352 97.907 103.625C98.4411 102.892 99.157 102.324 100.055 101.92C100.958 101.511 101.967 101.307 103.08 101.307C104.205 101.307 105.205 101.509 106.08 101.912C106.955 102.31 107.648 102.855 108.16 103.548C108.677 104.241 108.95 105.028 108.978 105.909H106.933ZM118.112 105.909V107.614H111.328V105.909H118.112ZM113.305 102.773H115.317V115.25C115.317 115.818 115.399 116.244 115.564 116.528C115.734 116.807 115.95 116.994 116.212 117.091C116.479 117.182 116.76 117.227 117.055 117.227C117.277 117.227 117.459 117.216 117.601 117.193C117.743 117.165 117.857 117.142 117.942 117.125L118.351 118.932C118.214 118.983 118.024 119.034 117.78 119.085C117.536 119.142 117.226 119.17 116.851 119.17C116.283 119.17 115.726 119.048 115.18 118.804C114.641 118.56 114.192 118.188 113.834 117.688C113.482 117.188 113.305 116.557 113.305 115.795V102.773ZM124.99 119.307C124.161 119.307 123.408 119.151 122.732 118.838C122.055 118.52 121.518 118.062 121.121 117.466C120.723 116.864 120.524 116.136 120.524 115.284C120.524 114.534 120.672 113.926 120.967 113.46C121.263 112.989 121.658 112.619 122.152 112.352C122.646 112.085 123.192 111.886 123.788 111.756C124.391 111.619 124.996 111.511 125.604 111.432C126.399 111.33 127.044 111.253 127.538 111.202C128.038 111.145 128.402 111.051 128.629 110.92C128.862 110.79 128.979 110.562 128.979 110.239V110.17C128.979 109.33 128.749 108.676 128.288 108.21C127.834 107.744 127.143 107.511 126.217 107.511C125.257 107.511 124.504 107.722 123.959 108.142C123.413 108.562 123.03 109.011 122.808 109.489L120.899 108.807C121.24 108.011 121.695 107.392 122.263 106.949C122.837 106.5 123.462 106.187 124.138 106.011C124.82 105.83 125.49 105.739 126.149 105.739C126.57 105.739 127.053 105.79 127.598 105.892C128.149 105.989 128.68 106.19 129.192 106.497C129.709 106.804 130.138 107.267 130.479 107.886C130.82 108.506 130.99 109.335 130.99 110.375V119H128.979V117.227H128.876C128.74 117.511 128.513 117.815 128.195 118.139C127.876 118.463 127.453 118.739 126.925 118.966C126.396 119.193 125.751 119.307 124.99 119.307ZM125.297 117.5C126.092 117.5 126.763 117.344 127.308 117.031C127.859 116.719 128.274 116.315 128.553 115.821C128.837 115.327 128.979 114.807 128.979 114.261V112.42C128.893 112.523 128.706 112.616 128.416 112.702C128.132 112.781 127.803 112.852 127.428 112.915C127.058 112.972 126.697 113.023 126.345 113.068C125.999 113.108 125.717 113.142 125.501 113.17C124.979 113.239 124.49 113.349 124.036 113.503C123.587 113.651 123.223 113.875 122.945 114.176C122.672 114.472 122.536 114.875 122.536 115.386C122.536 116.085 122.794 116.614 123.311 116.972C123.834 117.324 124.496 117.5 125.297 117.5ZM134.661 119V105.909H136.604V107.886H136.741C136.979 107.239 137.411 106.713 138.036 106.31C138.661 105.906 139.366 105.705 140.15 105.705C140.298 105.705 140.482 105.707 140.704 105.713C140.925 105.719 141.093 105.727 141.207 105.739V107.784C141.138 107.767 140.982 107.741 140.738 107.707C140.499 107.668 140.246 107.648 139.979 107.648C139.343 107.648 138.775 107.781 138.275 108.048C137.781 108.31 137.388 108.673 137.099 109.139C136.815 109.599 136.673 110.125 136.673 110.716V119H134.661ZM141.55 103.42V101.545H154.641V103.42H149.152V119H147.038V103.42H141.55ZM161.073 119L156.3 101.545H158.448L162.096 115.761H162.266L165.982 101.545H168.369L172.085 115.761H172.255L175.903 101.545H178.05L173.278 119H171.096L167.244 105.091H167.107L163.255 119H161.073Z" fill="black"/>
</svg>
